<?xml version="1.0" encoding="utf-8"?>
<!-- Generator: Adobe Illustrator 26.2.1, SVG Export Plug-In . SVG Version: 6.00 Build 0)  -->
<svg version="1.1" id="Calque_1" xmlns="http://www.w3.org/2000/svg" xmlns:xlink="http://www.w3.org/1999/xlink" x="0px" y="0px"
	 viewBox="0 0 1024 70" style="enable-background:new 0 0 1024 70;" xml:space="preserve">
<g>
	<polygon points="1023.1,69.7 993.6,69.7 993.6,51.1 1010.2,51.1 1010.2,57.3 1000.1,57.3 1000.1,63.5 1016.7,63.5 1016.7,44.9 
		993.6,44.9 993.6,38.7 1023.1,38.7 	"/>
	<polygon points="956.9,69.7 986.4,69.7 986.4,51.1 969.8,51.1 969.8,57.3 979.9,57.3 979.9,63.5 963.4,63.5 963.4,44.9 986.4,44.9 
		986.4,38.7 956.9,38.7 	"/>
	<polygon points="1023.1,0.2 993.6,0.2 993.6,18.7 1010.2,18.7 1010.2,12.5 1000.1,12.5 1000.1,6.3 1016.7,6.3 1016.7,24.9 
		993.6,24.9 993.6,31.1 1023.1,31.1 	"/>
	<polygon points="956.9,0.2 986.4,0.2 986.4,18.7 969.8,18.7 969.8,12.5 979.9,12.5 979.9,6.3 963.4,6.3 963.4,24.9 986.4,24.9 
		986.4,31.1 956.9,31.1 	"/>
</g>
<g>
	<path d="M10.8,28.3c-4.3,0-7.5-1.2-10.5-4.3l2.1-2.1c2.7,2.5,5.1,3.3,8.8,3.3c2.3,0,6.5-0.7,6.5-3.8c0-1-0.5-1.8-1.4-2.4
		c-1.1-0.7-2.1-0.8-5.2-0.8l-3.2-0.1c-3.3-0.1-6.2-1.8-6.2-5.4c0-3.1,2.6-5.1,5.2-6c1.2-0.4,2.4-0.5,3.6-0.5c3.2,0,6.2,1,8.7,2.9
		l-1.7,2.4c-2.3-1.4-3.9-2.2-6.6-2.2c-2.1,0-6.2,0.6-6.2,3.4c0,2.1,1.9,2.4,3.5,2.4h3.1c2.3,0,4.2,0,6.3,1.3c1.9,1.1,3,3,3,5.2
		C20.7,26.8,14.9,28.3,10.8,28.3z"/>
	<path d="M42.2,27.8v-9.4H29.8v9.4h-3v-21h3v8.5h12.4V6.8h3.1v21H42.2z"/>
	<path d="M63.6,28.3c-6.4,0-11.3-5-11.3-11.3c0-6.2,5.3-10.8,11.3-10.8c6.2,0,11.3,4.9,11.3,11.1C74.9,23.6,69.6,28.3,63.6,28.3z
		 M63.6,9.3c-4.7,0-8.3,3.3-8.3,8.1c0,4.5,3.9,7.9,8.3,7.9c4.5,0,8.2-3.5,8.2-8C71.8,12.6,68,9.3,63.6,9.3z"/>
	<path d="M94.1,18.9H85v8.9H82v-21h12.2c3.7,0,6.1,2.2,6.1,6C100.3,16.5,97.8,18.9,94.1,18.9z M94.1,9.9H85v5.9h9.1c2,0,3.1-1,3.1-3
		C97.2,10.8,96.2,9.9,94.1,9.9z"/>
	<path d="M132.5,27.8l-12.7-16v16h-3v-21h3l12.6,16v-16h3.1v21H132.5z"/>
	<path d="M153.7,28.3c-6.4,0-11.3-5-11.3-11.3c0-6.2,5.3-10.8,11.3-10.8c6.2,0,11.3,4.9,11.3,11.1C165,23.6,159.8,28.3,153.7,28.3z
		 M153.7,9.3c-4.7,0-8.3,3.3-8.3,8.1c0,4.5,3.9,7.9,8.3,7.9c4.5,0,8.2-3.5,8.2-8C162,12.6,158.2,9.3,153.7,9.3z"/>
	<path d="M189.5,27.8h-3.2L182,13l-4.1,14.9h-3.3l-6.3-21h3.2l4.7,15.6l4.3-15.6h3l4.4,15.6l4.6-15.6h3.2L189.5,27.8z"/>
	<path d="M17,61.6c-1.2,0.3-2.5,0.5-3.7,0.5c-6.3,0-11.5-4.6-11.5-11S7,40.1,13.3,40.1c3.9,0,6.4,1.3,8.9,3.8l-2.1,2.2
		c-1.9-2.1-3.8-3-6.6-3c-4.7,0-8.8,3-8.8,7.9s4,7.9,8.7,7.9c0.8,0,1.6-0.1,2.4-0.3c1.5-0.4,3.9-1.4,3.9-3.2v-2.4H13v-3h9.7v5.6
		C22.7,58.9,19.7,60.9,17,61.6z"/>
	<path d="M28.5,61.6v-21h3v21H28.5z"/>
	<path d="M48.9,61.6h-3.6l-9.2-21h3.3l7.7,17.6l7.8-17.6h3.4L48.9,61.6z"/>
	<path d="M63.1,61.6v-21h17.3v3.1H66.2v5.5h7.1v3h-7.1v6.3H81v3.1H63.1z"/>
	<path d="M102.8,61.6l-12.7-16v16h-3v-21h3l12.6,16v-16h3.1v21H102.8z"/>
	<path d="M124.4,62.1c-6.5,0-11.8-4.3-11.8-11.1c0-6.4,4.9-10.9,11.2-10.9c3.9,0,7.4,1.6,10.1,4.3l-2.3,1.9
		c-2.3-1.9-4.7-3.2-7.7-3.2c-4.6,0-8.4,3.2-8.4,7.9c0,5.1,4.3,7.9,9,7.9c3.3,0,5.3-1.1,7.6-3.4l2,2.2
		C131.7,60.8,128.3,62.1,124.4,62.1z"/>
	<path d="M155.8,61.6v-9.4h-12.4v9.4h-3v-21h3v8.5h12.4v-8.5h3.1v21H155.8z"/>
	<path d="M175.3,52.5v9.1h-3v-9.1l-8.5-11.9h3.7l6.4,8.9l6.3-8.9h3.8L175.3,52.5z"/>
	<path d="M189.7,62.1c-1.1,0-2-1-2-2c0-1.1,0.9-2,2-2c1.1,0,2,1,2,2C191.6,61.1,190.8,62.1,189.7,62.1z"/>
	<path d="M209.3,62.1c-6.5,0-11.8-4.3-11.8-11.1c0-6.4,4.9-10.9,11.2-10.9c3.9,0,7.4,1.6,10.1,4.3l-2.3,1.9
		c-2.3-1.9-4.7-3.2-7.7-3.2c-4.6,0-8.4,3.2-8.4,7.9c0,5.1,4.3,7.9,9,7.9c3.3,0,5.3-1.1,7.6-3.4l2,2.2
		C216.6,60.8,213.2,62.1,209.3,62.1z"/>
	<path d="M235,62.1c-6.4,0-11.3-5-11.3-11.3c0-6.2,5.3-10.8,11.3-10.8c6.2,0,11.3,4.9,11.3,11.1C246.3,57.3,241,62.1,235,62.1z
		 M235,43.1c-4.7,0-8.3,3.3-8.3,8.1c0,4.5,3.9,7.8,8.3,7.8c4.5,0,8.2-3.5,8.2-8C243.2,46.3,239.4,43.1,235,43.1z"/>
	<path d="M271,61.6V46.9l-7.5,13l-7.3-13v14.7h-3v-21h3l7.2,13.1l7.5-13.1h3v21H271z"/>
</g>
</svg>
