<?xml version="1.0" encoding="utf-8"?>
<!-- Generator: Adobe Illustrator 26.2.1, SVG Export Plug-In . SVG Version: 6.00 Build 0)  -->
<svg version="1.1" xmlns="http://www.w3.org/2000/svg" xmlns:xlink="http://www.w3.org/1999/xlink" x="0px" y="0px"
	 viewBox="0 0 768 94" style="enable-background:new 0 0 768 94;" xml:space="preserve">
<g id="Calque_1">
</g>
<g id="Calque_2">
	<g>
		<polygon points="725.4,40.3 748.5,10.4 766.5,10.4 732.1,52.6 732.1,83.6 717.9,83.6 717.9,52.6 683.5,10.4 701.5,10.4 
			724.6,40.3 		"/>
		<polygon points="646.1,40.3 605,40.3 605,10.4 590.8,10.4 590.8,83.6 605,83.6 605,53 646.1,53 646.1,83.6 660.3,83.6 660.3,10.4 
			646.1,10.4 		"/>
		<polygon points="433.4,60.4 433,60.4 387,10.4 374.6,10.4 374.6,83.6 387.8,83.6 387.8,33.4 388,33.4 434.5,83.6 446.6,83.6 
			446.6,10.4 433.4,10.4 		"/>
		<polygon points="275.4,83.6 336.7,83.6 336.7,70.9 289.6,70.9 289.6,53 323.4,53 323.4,40.3 289.6,40.3 289.6,22.9 336.7,22.9 
			336.7,10.4 275.4,10.4 		"/>
		<polygon points="204.2,65.4 203.8,65.4 181.1,10.4 164.6,10.4 198,83.6 209.8,83.6 243.2,10.4 226.8,10.4 		"/>
		<rect x="118.3" y="10.4" width="14.2" height="73.2"/>
		<path d="M39.2,56.5h24.3v12.7c-3.4,1.1-9.4,2.7-19.2,2.7c-17.4,0-27-8.4-27-24.9c0-16.4,9.7-24.9,27-24.9
			c17.6,0,26.7,5.3,31.7,9.3V16.7C70.5,12.3,57.9,9,44.3,9C24.1,9,1.5,17,1.5,47c0,30,22.6,38,42.9,38c12.3,0,25.2-2.7,33.2-7.7
			V43.8H39.2V56.5z"/>
		<path d="M496.2,47c0,16.5,9.7,24.9,27,24.9c17.6,0,26.7-5.3,31.7-9.3v14.7c-5.6,4.4-18.2,7.7-31.7,7.7c-20.2,0-42.8-8-42.8-38
			c0-30,22.6-38,42.8-38c13.5,0,26.1,3.3,31.7,7.7v14.7c-5-4-14.1-9.3-31.7-9.3C505.9,22.1,496.2,30.5,496.2,47z"/>
	</g>
</g>
</svg>
