<svg width="54" height="10" viewBox="0 0 54 10" fill="none" xmlns="http://www.w3.org/2000/svg">
<path d="M0.985352 9.00011V0.946912H4.37937C4.85786 0.946912 5.31607 1.04018 5.75401 1.22671C6.20006 1.40513 6.59745 1.6687 6.94618 2.01743C7.2949 2.36616 7.57064 2.78787 7.77339 3.28258C7.97614 3.77729 8.07752 4.34093 8.07752 4.97351C8.07752 5.60609 7.97614 6.16973 7.77339 6.66444C7.57064 7.15915 7.2949 7.58086 6.94618 7.92959C6.59745 8.27832 6.20006 8.54595 5.75401 8.73248C5.31607 8.9109 4.85786 9.00011 4.37937 9.00011H0.985352ZM1.89772 8.1364H4.34288C4.91868 8.1364 5.41745 7.99042 5.83917 7.69846C6.26088 7.4065 6.58528 7.02128 6.81236 6.54279C7.04755 6.0643 7.16515 5.54121 7.16515 4.97351C7.16515 4.3977 7.04755 3.87056 6.81236 3.39207C6.58528 2.91358 6.26088 2.53241 5.83917 2.24856C5.41745 1.9566 4.91868 1.81062 4.34288 1.81062H1.89772V8.1364Z" fill="black"/>
<path d="M10.2809 1.89578V0.703613H11.2663V1.89578H10.2809ZM10.3174 9.00011V2.91763H11.2298V9.00011H10.3174Z" fill="black"/>
<path d="M15.9994 9.09743C15.4398 9.09743 14.9653 9.00416 14.5761 8.81763C14.1949 8.6311 13.9029 8.38781 13.7002 8.08774C13.4974 7.77956 13.3839 7.44705 13.3596 7.09021H14.3084C14.3328 7.29296 14.4017 7.49165 14.5152 7.68629C14.6369 7.87282 14.8194 8.02691 15.0627 8.14856C15.306 8.2621 15.6223 8.31887 16.0115 8.31887C16.1332 8.31887 16.2832 8.30671 16.4616 8.28238C16.6401 8.25805 16.8104 8.21344 16.9726 8.14856C17.1429 8.08368 17.2848 7.98636 17.3983 7.8566C17.5119 7.72684 17.5686 7.56059 17.5686 7.35784C17.5686 7.10643 17.4713 6.91179 17.2767 6.77392C17.082 6.63605 16.8306 6.53062 16.5225 6.45763C16.2143 6.37653 15.8858 6.29949 15.5371 6.2265C15.1965 6.15351 14.8721 6.06025 14.5639 5.94671C14.2557 5.82506 14.0043 5.6588 13.8097 5.44794C13.615 5.22897 13.5177 4.93296 13.5177 4.5599C13.5177 4.00842 13.7164 3.58265 14.1138 3.28258C14.5193 2.9744 15.1154 2.82031 15.902 2.82031C16.4373 2.82031 16.8712 2.90547 17.2037 3.07578C17.5443 3.23798 17.7998 3.44884 17.9701 3.70836C18.1485 3.96787 18.2539 4.24767 18.2864 4.54774H17.3618C17.3294 4.28822 17.1996 4.06519 16.9726 3.87866C16.7536 3.69214 16.3886 3.59887 15.8777 3.59887C14.9126 3.59887 14.4301 3.89083 14.4301 4.47475C14.4301 4.71805 14.5274 4.90458 14.722 5.03434C14.9167 5.16409 15.1681 5.26952 15.4763 5.35062C15.7845 5.42361 16.1089 5.4966 16.4495 5.56959C16.7982 5.63447 17.1267 5.72774 17.4348 5.84939C17.743 5.97104 17.9944 6.1454 18.1891 6.37248C18.3837 6.59145 18.481 6.89152 18.481 7.27269C18.481 7.86471 18.2539 8.31887 17.7998 8.63516C17.3537 8.94334 16.7536 9.09743 15.9994 9.09743Z" fill="black"/>
<path d="M23.2426 9.09743C22.6344 9.09743 22.1072 8.95956 21.6612 8.68382C21.2152 8.39997 20.8664 8.0188 20.615 7.54031C20.3717 7.06183 20.2501 6.53468 20.2501 5.95887C20.2501 5.37495 20.3717 4.84781 20.615 4.37743C20.8664 3.89894 21.2152 3.52183 21.6612 3.24609C22.1072 2.96224 22.6344 2.82031 23.2426 2.82031C23.9644 2.82031 24.5767 3.00684 25.0796 3.3799C25.5905 3.75296 25.9352 4.2355 26.1136 4.82753H25.1282C24.9903 4.4788 24.7673 4.19495 24.4591 3.97598C24.1591 3.75702 23.7941 3.64753 23.3643 3.64753C22.9182 3.64753 22.529 3.75296 22.1965 3.96382C21.864 4.17468 21.6085 4.45447 21.4301 4.8032C21.2516 5.15193 21.1624 5.53715 21.1624 5.95887C21.1624 6.37248 21.2516 6.7577 21.4301 7.11454C21.6085 7.46327 21.864 7.74306 22.1965 7.95392C22.529 8.16478 22.9182 8.27021 23.3643 8.27021C23.7941 8.27021 24.1591 8.16073 24.4591 7.94176C24.7673 7.72279 24.9903 7.43894 25.1282 7.09021H26.1136C25.9352 7.68224 25.5905 8.16478 25.0796 8.53784C24.5767 8.9109 23.9644 9.09743 23.2426 9.09743Z" fill="black"/>
<path d="M30.8572 9.09743C30.2409 9.09743 29.7056 8.95956 29.2515 8.68382C28.7973 8.39997 28.4486 8.0188 28.2053 7.54031C27.962 7.06183 27.8403 6.53468 27.8403 5.95887C27.8403 5.37495 27.962 4.84781 28.2053 4.37743C28.4486 3.89894 28.7973 3.52183 29.2515 3.24609C29.7056 2.96224 30.2409 2.82031 30.8572 2.82031C31.4817 2.82031 32.017 2.96224 32.463 3.24609C32.9172 3.52183 33.2659 3.89894 33.5092 4.37743C33.7525 4.84781 33.8741 5.37495 33.8741 5.95887C33.8741 6.53468 33.7525 7.06183 33.5092 7.54031C33.2659 8.0188 32.9172 8.39997 32.463 8.68382C32.017 8.95956 31.4817 9.09743 30.8572 9.09743ZM30.8572 8.27021C31.3114 8.27021 31.6926 8.16478 32.0007 7.95392C32.317 7.74306 32.5563 7.46327 32.7185 7.11454C32.8807 6.7577 32.9618 6.37248 32.9618 5.95887C32.9618 5.53715 32.8807 5.15193 32.7185 4.8032C32.5563 4.45447 32.317 4.17468 32.0007 3.96382C31.6926 3.75296 31.3114 3.64753 30.8572 3.64753C30.4112 3.64753 30.03 3.75296 29.7137 3.96382C29.3974 4.17468 29.1582 4.45447 28.996 4.8032C28.8338 5.15193 28.7527 5.53715 28.7527 5.95887C28.7527 6.37248 28.8338 6.7577 28.996 7.11454C29.1582 7.46327 29.3974 7.74306 29.7137 7.95392C30.03 8.16478 30.4112 8.27021 30.8572 8.27021Z" fill="black"/>
<path d="M37.5928 9.00011L35.2085 2.91763H36.206L38.1281 8.02691L40.038 2.91763H41.0355L38.6633 9.00011H37.5928Z" fill="black"/>
<path d="M45.4452 9.09743C44.8288 9.09743 44.2895 8.95956 43.8273 8.68382C43.365 8.39997 43.0041 8.0188 42.7446 7.54031C42.4932 7.06183 42.3675 6.53468 42.3675 5.95887C42.3675 5.37495 42.4891 4.84781 42.7324 4.37743C42.9757 3.89894 43.3244 3.52183 43.7786 3.24609C44.2328 2.96224 44.768 2.82031 45.3844 2.82031C46.0088 2.82031 46.5441 2.96224 46.9901 3.24609C47.4443 3.52183 47.793 3.89894 48.0363 4.37743C48.2796 4.84781 48.4013 5.37495 48.4013 5.95887V6.32382H43.3042C43.3528 6.68066 43.4664 7.00911 43.6448 7.30918C43.8313 7.60114 44.0787 7.83633 44.3868 8.01475C44.695 8.18506 45.0519 8.27021 45.4574 8.27021C45.8872 8.27021 46.2481 8.17695 46.54 7.99042C46.832 7.79578 47.0591 7.54842 47.2213 7.24836H48.2188C48.0079 7.79172 47.6714 8.23777 47.2091 8.5865C46.755 8.92712 46.167 9.09743 45.4452 9.09743ZM43.3163 5.47227H47.4524C47.3713 4.95324 47.1523 4.51935 46.7955 4.17062C46.4387 3.82189 45.9683 3.64753 45.3844 3.64753C44.8005 3.64753 44.3301 3.82189 43.9732 4.17062C43.6245 4.51935 43.4055 4.95324 43.3163 5.47227Z" fill="black"/>
<path d="M50.4893 9.00011V2.91763H51.4016V4.41392C51.4341 4.30849 51.4949 4.17062 51.5841 4.00031C51.6814 3.8219 51.8193 3.64348 51.9977 3.46506C52.1761 3.28664 52.3992 3.1366 52.6668 3.01495C52.9425 2.88519 53.2669 2.82031 53.64 2.82031H53.7008V3.73269H53.5913C53.1372 3.73269 52.7438 3.85839 52.4113 4.1098C52.0869 4.3531 51.8355 4.67344 51.6571 5.07083C51.4868 5.46011 51.4016 5.87777 51.4016 6.32382V9.00011H50.4893Z" fill="black"/>
</svg>
