<svg width="163" height="30" viewBox="0 0 163 30" fill="none" xmlns="http://www.w3.org/2000/svg">
<path d="M157.251 20.8233C157.251 22.6593 156.363 23.9764 154.666 23.9764C152.929 23.9764 152.08 22.6199 152.08 20.4653H147.029C147.029 25.6514 150.303 28.7224 154.626 28.7224C158.948 28.7224 162.222 25.6514 162.222 20.4653C162.222 18.0709 161.657 16.0773 160.442 14.6026C158.948 12.7666 157.248 12.1688 155.431 11.6893C153.128 11.0915 152.037 10.0931 152.037 7.97788C152.037 6.06306 152.885 4.746 154.582 4.746C156.2 4.746 157.048 6.06306 157.048 8.25706H162.099C162.099 3.07423 158.908 0 154.582 0C150.057 0 147.026 3.11036 147.026 8.25706C147.026 10.5299 147.631 12.4447 149.046 14.0015C150.42 15.5189 152.117 16.0773 153.937 16.5141C156.363 17.1152 157.251 18.3928 157.251 20.8233ZM129.124 20.4653C129.124 25.612 132.359 28.7224 136.681 28.7224C141.003 28.7224 144.237 25.612 144.237 20.4653V0.400701H139.146V20.4653C139.146 22.4195 138.338 23.776 136.681 23.776C135.024 23.776 134.215 22.4195 134.215 20.4653V0.400701H129.124V20.4653ZM120.716 0.400701L115.948 16.0379L111.179 0.400701H106.248V28.3249H110.937V12.6056L115.788 28.3217H116.031L120.879 12.6056V28.3217H125.567V0.400701H120.716ZM103.137 23.6183H95.5006V16.4353H101.846V11.7287H95.5006V5.10729H103.057V0.400701H90.4063V28.3249H103.137V23.6183ZM71.7361 20.4653C71.7361 25.612 74.9703 28.7224 79.2927 28.7224C83.6183 28.7224 86.8493 25.612 86.8493 20.4653V0.400701H81.7583V20.4653C81.7583 22.4195 80.9497 23.776 79.2927 23.776C77.6356 23.776 76.8271 22.4195 76.8271 20.4653V0.400701H71.7361V20.4653ZM62.3594 20.4259L59.2482 22.6987L60.2198 23.9764C58.7258 23.776 58.1602 22.5016 58.1602 20.4653V8.45741C58.1602 6.224 58.8889 4.94635 60.7056 4.94635C62.5258 4.94635 63.2511 6.224 63.2511 8.45741V21.582L62.3594 20.4259ZM53.0625 8.26035V20.4686C53.0625 25.6941 56.3367 28.7256 60.7023 28.7256C61.6739 28.7256 62.6023 28.5647 63.4508 28.2855L64.7851 30L67.8962 27.7272L66.6019 26.0521C67.6933 24.6562 68.3388 22.7808 68.3388 20.4686V8.26035C68.3388 2.91329 65.0646 0.00328443 60.699 0.00328443C56.3367 -3.05887e-09 53.0625 2.91329 53.0625 8.26035ZM35.2009 20.4653C35.2009 25.612 38.4352 28.7224 42.7575 28.7224C47.0831 28.7224 50.3141 25.612 50.3141 20.4653H45.2231C45.2231 22.4195 44.4145 23.776 42.7575 23.776C41.1004 23.776 40.2919 22.4195 40.2919 20.4653V8.26035C40.2919 6.30611 41.1004 4.94964 42.7575 4.94964C44.4145 4.94964 45.2231 6.30611 45.2231 8.26035H50.3141C50.3141 3.11364 47.0798 0.00328443 42.7575 0.00328443C38.4318 0.00328443 35.2009 3.11364 35.2009 8.26035V20.4653ZM23.1988 19.5489L25.1787 9.1767L27.0786 19.5489H23.1988ZM21.5418 28.3249L22.3104 24.2555H27.9271L28.6558 28.3249H33.6669L27.8073 0.400701H22.7164L16.6937 28.3249H21.5418ZM7.71964 28.7224C11.8024 28.7224 15.1165 25.7302 15.1165 20.4653V0.400701H10.0255V20.4653C10.0255 22.5411 9.17705 23.8154 7.72297 23.8154C6.34874 23.8154 5.46031 22.6593 5.13755 20.9021H0C0.282832 25.4511 3.64021 28.7224 7.71964 28.7224Z" fill="#2E2E2E"/>
</svg>
