<svg width="55" height="9" viewBox="0 0 55 9" fill="none" xmlns="http://www.w3.org/2000/svg">
<path d="M0.034 8V0.432H2.564C4.874 0.432 6.139 1.906 6.139 4.216C6.139 6.526 4.874 8 2.564 8H0.034ZM1.002 7.186H2.388C4.17 7.186 5.138 6.174 5.138 4.216C5.138 2.258 4.17 1.246 2.388 1.246H1.002V7.186ZM8.26518 8V0.432H9.23318V8H8.26518ZM14.1202 8.165C12.6682 8.165 11.6342 7.274 11.1942 6.108L12.0082 5.646C12.4262 6.746 13.2402 7.329 14.1422 7.329C15.0442 7.329 15.6602 6.79 15.6602 6.02C15.6602 5.25 15.1322 4.898 14.3402 4.634L13.4162 4.326C12.4922 4.018 11.4802 3.479 11.4802 2.269C11.4802 1.059 12.4702 0.278 13.8562 0.278C15.2422 0.278 16.1002 1.158 16.3862 1.818L15.6822 2.346C15.3962 1.686 14.7142 1.103 13.8562 1.103C12.9982 1.103 12.4702 1.532 12.4702 2.214C12.4702 2.896 13.0642 3.182 13.7242 3.402L14.6482 3.71C15.5392 4.007 16.6612 4.59 16.6612 5.932C16.6612 7.274 15.5722 8.165 14.1202 8.165ZM21.4706 8.154C19.4466 8.154 18.2256 6.548 18.2256 4.216C18.2256 1.884 19.4906 0.278 21.5146 0.278C23.5386 0.278 24.2206 1.884 24.3086 2.368L23.4506 2.72C23.3516 2.181 22.8786 1.114 21.4926 1.114C20.1066 1.114 19.2266 2.324 19.2266 4.216C19.2266 6.108 20.1066 7.296 21.4926 7.296C22.8786 7.296 23.3846 6.284 23.5276 5.657L24.3856 6.009C24.2426 6.636 23.4946 8.154 21.4706 8.154ZM29.2956 8.154C27.1176 8.154 25.9406 6.394 25.9406 4.216C25.9406 2.038 27.1176 0.278 29.2956 0.278C31.4736 0.278 32.6506 2.038 32.6506 4.216C32.6506 6.394 31.4736 8.154 29.2956 8.154ZM29.2956 7.34C30.9236 7.34 31.6496 5.866 31.6496 4.216C31.6496 2.566 30.9236 1.092 29.2956 1.092C27.6676 1.092 26.9416 2.566 26.9416 4.216C26.9416 5.866 27.6676 7.34 29.2956 7.34ZM36.4248 8L33.8508 0.432H34.8848L36.7548 6.152C36.8648 6.504 37.0298 7.076 37.0298 7.076H37.0518C37.0518 7.076 37.2168 6.504 37.3268 6.152L39.1968 0.432H40.1867L37.6128 8H36.4248ZM41.8985 8V0.432H46.5405L46.3865 1.268H42.8665V3.457H45.9905V4.293H42.8665V7.164H46.5405L46.6945 8H41.8985ZM48.6682 8V0.432H51.4732C53.0132 0.432 54.0142 1.125 54.0142 2.456C54.0142 3.787 53.0242 4.282 52.2322 4.414L54.4542 8H53.3102L51.1762 4.48H49.6362V8H48.6682ZM49.6362 3.666H51.4622C52.3642 3.666 53.0242 3.358 53.0242 2.456C53.0242 1.543 52.3642 1.246 51.4622 1.246H49.6362V3.666Z" fill="#53545C"/>
</svg>
