<svg class="icon icon--arrow" width="8" height="8" viewBox="0 0 8 8" xmlns="http://www.w3.org/2000/svg">
<path d="M0.767 7.86595L0 7.05995L4.589 2.43195C4.71033 2.31061 4.836 2.19794 4.966 2.09394C5.096 1.98128 5.2 1.89461 5.278 1.83395L5.265 1.74294C5.16967 1.75161 5.02667 1.76461 4.836 1.78194C4.64533 1.79928 4.44167 1.80794 4.225 1.80794H1.69V0.793945H7.085V6.18895H6.045V3.60195C6.045 3.38528 6.05367 3.17295 6.071 2.96495C6.08833 2.75695 6.10567 2.59661 6.123 2.48395L6.032 2.45795C5.97133 2.54461 5.876 2.66161 5.746 2.80894C5.62467 2.95628 5.50333 3.09061 5.382 3.21195L0.767 7.86595Z"/>
</svg>
