 <svg class="icon icon--hide" width="12" height="10" viewBox="0 0 12 10" xmlns="http://www.w3.org/2000/svg">
<path fill-rule="evenodd" clip-rule="evenodd" d="M10.6829 1.08323C10.839 0.927025 10.839 0.673761 10.6829 0.517553C10.5266 0.361337 10.2734 0.361337 10.1171 0.517553L8.54624 2.08849C7.76522 1.77376 6.91007 1.60039 6 1.60039C3.44629 1.60039 1.32511 2.9655 0.0608002 4.9884C-0.020267 5.11811 -0.0202667 5.2827 0.0608011 5.4124C0.722356 6.47089 1.61851 7.34927 2.68849 7.94623L1.31716 9.31751C1.16094 9.47375 1.16094 9.72703 1.31716 9.88327C1.47337 10.0394 1.72663 10.0394 1.88284 9.88327L3.45378 8.31231C4.23478 8.62703 5.08993 8.80039 6 8.80039C8.55368 8.80039 10.6749 7.43527 11.9392 5.4124C12.0202 5.2827 12.0202 5.11811 11.9392 4.9884C11.2777 3.92991 10.3815 3.05152 9.31152 2.45456L10.6829 1.08323ZM7.92342 2.71128C7.32266 2.50927 6.67807 2.40039 6 2.40039C3.84228 2.40039 2.02362 3.50292 0.876976 5.2004C1.49827 6.12015 2.31687 6.86524 3.27979 7.35487L7.92342 2.71128ZM4.07658 7.68951L8.72024 3.04587C9.68312 3.53554 10.5018 4.28064 11.123 5.2004C9.9764 6.89786 8.15768 8.00039 6 8.00039C5.32193 8.00039 4.67734 7.89151 4.07658 7.68951Z"/>
</svg>
