<svg class="icon icon--logout" width="14" height="13" viewBox="0 0 14 13" xmlns="http://www.w3.org/2000/svg">
<path fill-rule="evenodd" clip-rule="evenodd" d="M13.4498 0.500293C13.4498 0.251763 13.2483 0.050293 12.9998 0.050293C12.7512 0.050293 12.5498 0.251763 12.5498 0.500293V12.5002C12.5498 12.7488 12.7512 12.9502 12.9998 12.9502C13.2483 12.9502 13.4498 12.7488 13.4498 12.5002V0.500293ZM7.06812 2.93212C6.89239 2.75638 6.60746 2.75638 6.43173 2.93212C6.25599 3.10785 6.25599 3.39278 6.43173 3.56851L8.91353 6.05031H0.999804C0.751276 6.05031 0.549805 6.25179 0.549805 6.50031C0.549805 6.74884 0.751277 6.95031 0.999804 6.95031H8.91353L6.43173 9.43214C6.25599 9.60784 6.25599 9.89274 6.43173 10.0685C6.60746 10.2442 6.89239 10.2442 7.06813 10.0685L10.3181 6.81851C10.4939 6.64278 10.4939 6.35785 10.3181 6.18212L7.06812 2.93212Z"/>
</svg>
