<svg class="logo" width="80" height="37" viewBox="0 0 80 37" xmlns="http://www.w3.org/2000/svg">
<path d="M18.3972 0C8.23711 0 0 8.23711 0 18.3972C0 28.5573 8.23711 36.7944 18.3972 36.7944C28.5573 36.7944 36.7944 28.5573 36.7944 18.3972C36.7944 8.23711 28.5573 0 18.3972 0ZM26.0758 26.0758H10.7186V10.7186H26.0758V26.0758Z"/>
<path d="M69.9729 1.07186H49.92L39.8929 18.4384L49.92 35.805H69.9729L80 18.4384L69.9729 1.07186ZM59.9458 26.6489C55.3884 26.6489 51.6941 22.9546 51.6941 18.3972C51.6941 13.8398 55.3884 10.1455 59.9458 10.1455C64.5032 10.1455 68.1975 13.8398 68.1975 18.3972C68.1975 22.9546 64.5032 26.6489 59.9458 26.6489Z"/>
<path d="M75 3.54013C75 2.15631 76.1266 1.03418 77.504 1.03418C78.8813 1.03418 80 2.15631 80 3.54013C80 4.92395 78.8734 6.03418 77.504 6.03418C76.1345 6.03418 75 4.91206 75 3.54013ZM79.5223 3.54013C79.5223 2.40214 78.6345 1.50999 77.5 1.50999C76.3654 1.50999 75.4697 2.40214 75.4697 3.54013C75.4697 4.67811 76.3654 5.57026 77.5 5.57026C78.6345 5.57026 79.5223 4.67811 79.5223 3.54013ZM76.5724 4.86051V2.19992H77.7229C78.2444 2.19992 78.5828 2.50127 78.5828 2.94536C78.5828 3.23481 78.4276 3.48462 78.1887 3.59167C78.3997 3.68287 78.5271 3.88113 78.5271 4.17455V4.85654H78.0693V4.26574C78.0693 3.92078 77.9419 3.80182 77.5955 3.80182H77.0183V4.85654H76.5685L76.5724 4.86051ZM77.0183 3.39342H77.6592C77.9618 3.39342 78.133 3.25861 78.133 2.99294C78.133 2.74711 77.9698 2.62022 77.6592 2.62022H77.0183V3.39342Z"/>
</svg>
