<svg class="icon icon--show" width="12" height="8" viewBox="0 0 12 8" xmlns="http://www.w3.org/2000/svg">
<path fill-rule="evenodd" clip-rule="evenodd" d="M6.00001 7.09435C3.84229 7.09435 2.02362 5.99182 0.876977 4.29435C2.02362 2.59687 3.84229 1.49434 6.00001 1.49434C8.15769 1.49434 9.97642 2.59687 11.1231 4.29435C9.97642 5.99181 8.15769 7.09435 6.00001 7.09435ZM6.00001 0.694336C3.44629 0.694336 1.32511 2.05944 0.0608003 4.08235C-0.0202671 4.21206 -0.0202668 4.37665 0.0608012 4.50635C1.32511 6.52923 3.44629 7.89435 6.00001 7.89435C8.55369 7.89435 10.6749 6.52923 11.9392 4.50635C12.0203 4.37665 12.0203 4.21206 11.9392 4.08235C10.6749 2.05944 8.55369 0.694336 6.00001 0.694336ZM6.00001 5.89434C6.88367 5.89434 7.60001 5.178 7.60001 4.29434C7.60001 3.41068 6.88367 2.69434 6.00001 2.69434C5.11635 2.69434 4.40001 3.41068 4.40001 4.29434C4.40001 5.178 5.11635 5.89434 6.00001 5.89434Z"/>
</svg>
