<svg width="55" height="16" viewBox="0 0 55 16" fill="none" xmlns="http://www.w3.org/2000/svg">
<path d="M3.26017 12.1217C2.61137 12.1217 2.10044 11.9716 1.72738 11.6716C1.36244 11.3634 1.10292 10.9498 0.948827 10.4307C0.802848 9.9117 0.729858 9.33995 0.729858 8.71548C0.729858 8.02614 0.798793 7.45844 0.936663 7.01239C1.08264 6.55823 1.28539 6.20139 1.54491 5.94187C1.81254 5.67425 2.12883 5.48772 2.49378 5.38229C2.86683 5.26875 3.27639 5.21198 3.72244 5.21198C4.37123 5.21198 4.89838 5.3093 5.30388 5.50394C5.71749 5.69047 6.02161 5.95809 6.21625 6.30682C6.41089 6.65555 6.50821 7.07321 6.50821 7.55981V12H5.43769V7.65713C5.43769 7.15431 5.31199 6.77315 5.06058 6.51363C4.80917 6.246 4.37529 6.11218 3.75893 6.11218C3.38587 6.11218 3.04931 6.18112 2.74924 6.31899C2.45728 6.45686 2.22615 6.71232 2.05584 7.08538C1.89364 7.45844 1.81254 8.00586 1.81254 8.72765C1.81254 9.19803 1.85714 9.6238 1.94635 10.005C2.04367 10.378 2.20993 10.674 2.44512 10.893C2.68031 11.112 3.00876 11.2215 3.43048 11.2215C3.55213 11.2215 3.66567 11.2134 3.7711 11.1971C3.87652 11.1809 3.9779 11.1566 4.07522 11.1241L4.1847 11.9635C4.05494 12.0203 3.90491 12.0608 3.7346 12.0852C3.5724 12.1095 3.41426 12.1217 3.26017 12.1217Z" fill="black"/>
<path d="M5.90025 15.2237C5.38121 15.2237 4.98788 15.1183 4.72025 14.9074C4.44451 14.7047 4.30664 14.4127 4.30664 14.0316V13.8248C4.30664 13.6869 4.2742 13.6017 4.20932 13.5693C4.13633 13.545 4.03901 13.549 3.91736 13.5815L3.84437 12.8516C3.95791 12.8191 4.07145 12.7988 4.18499 12.7907C4.29042 12.7826 4.37152 12.7786 4.42829 12.7786C4.72025 12.7786 4.93111 12.8435 5.06086 12.9732C5.18251 13.103 5.24334 13.2854 5.24334 13.5206V13.9342C5.24334 14.0883 5.292 14.2181 5.38932 14.3235C5.48664 14.429 5.65289 14.4817 5.88808 14.4817C6.13138 14.4817 6.30169 14.429 6.39901 14.3235C6.48822 14.2181 6.53282 14.0883 6.53282 13.9342V12.8151H7.48169V13.9951C7.48169 14.3925 7.34787 14.6966 7.08025 14.9074C6.81262 15.1183 6.41928 15.2237 5.90025 15.2237Z" fill="black"/>
<path d="M11.9363 12.1217C11.7174 12.1217 11.5065 12.0852 11.3038 12.0122C11.101 11.9392 10.9348 11.8094 10.805 11.6229C10.6752 11.4364 10.6104 11.1769 10.6104 10.8443V5.33363H11.693V10.7105C11.693 10.8971 11.7336 11.0309 11.8147 11.112C11.8958 11.1931 12.0256 11.2336 12.204 11.2336C12.277 11.2336 12.354 11.2255 12.4351 11.2093C12.5162 11.1931 12.5932 11.1728 12.6662 11.1485L12.8122 11.9392C12.6581 12.0122 12.5081 12.0608 12.3621 12.0852C12.2161 12.1095 12.0742 12.1217 11.9363 12.1217Z" fill="black"/>
<path d="M15.4808 12L14.2765 5.33363H15.3835L15.8579 8.22889C15.8985 8.46407 15.939 8.7682 15.9796 9.14126C16.0201 9.51431 16.0688 9.95631 16.1256 10.4672H16.162C16.235 10.1185 16.304 9.80627 16.3688 9.53053C16.4418 9.2548 16.5067 9.00744 16.5635 8.78847C16.6284 8.56139 16.6851 8.3627 16.7338 8.19239L17.5488 5.33363H18.4369L19.2641 8.19239C19.3128 8.3627 19.3655 8.56139 19.4223 8.78847C19.4871 9.00744 19.552 9.2548 19.6169 9.53053C19.6899 9.80627 19.7629 10.1185 19.8359 10.4672H19.8845C19.9332 9.95631 19.9778 9.51431 20.0183 9.14126C20.0589 8.7682 20.0994 8.46407 20.14 8.22889L20.6266 5.33363H21.7336L20.5293 12H19.4709L18.3517 8.37486C18.295 8.17211 18.2382 7.96126 18.1814 7.74229C18.1328 7.52332 18.0841 7.23541 18.0354 6.87858H17.9868C17.9543 7.11376 17.9179 7.32057 17.8773 7.49899C17.8368 7.67741 17.7962 7.83555 17.7557 7.97342C17.7151 8.11129 17.6746 8.2451 17.634 8.37486L16.5392 12H15.4808Z" fill="black"/>
<path d="M17.0278 4.27528V3.80084L17.9159 3.41157H22.198V4.27528H17.0278Z" fill="black"/>
<path d="M22.1493 2.70847V0.725586H23.1833V2.70847H22.1493Z" fill="black"/>
<path d="M29.3526 12.1217C28.8336 12.1217 28.3835 12.0203 28.0023 11.8175C27.6293 11.6067 27.3738 11.3147 27.2359 10.9417H27.1873L27.1265 12H26.2384V5.33363H27.3211V9.18992C27.3211 9.59541 27.39 9.95225 27.5279 10.2604C27.6739 10.5605 27.8807 10.7957 28.1483 10.966C28.4241 11.1282 28.7525 11.2093 29.1337 11.2093C29.6122 11.2093 29.969 11.0836 30.2042 10.8322C30.4394 10.5808 30.557 10.2118 30.557 9.72517V5.33363H31.6397V9.79816C31.6397 10.3334 31.5464 10.7714 31.3599 11.112C31.1814 11.4526 30.9219 11.7081 30.5813 11.8784C30.2407 12.0406 29.8311 12.1217 29.3526 12.1217Z" fill="black"/>
<path d="M36.0952 12.1217C35.8762 12.1217 35.6653 12.0852 35.4626 12.0122C35.2598 11.9392 35.0936 11.8094 34.9638 11.6229C34.8341 11.4364 34.7692 11.1769 34.7692 10.8443V5.33363H35.8519V10.7105C35.8519 10.8971 35.8924 11.0309 35.9735 11.112C36.0546 11.1931 36.1844 11.2336 36.3628 11.2336C36.4358 11.2336 36.5128 11.2255 36.5939 11.2093C36.675 11.1931 36.7521 11.1728 36.8251 11.1485L36.971 11.9392C36.817 12.0122 36.6669 12.0608 36.5209 12.0852C36.375 12.1095 36.233 12.1217 36.0952 12.1217Z" fill="black"/>
<path d="M41.3888 12.1217C40.7076 12.1217 40.1804 11.9676 39.8074 11.6594C39.4343 11.3431 39.1748 10.9173 39.0288 10.3821C38.8828 9.83871 38.8098 9.22236 38.8098 8.53301C38.8098 7.73823 38.8828 7.09754 39.0288 6.61095C39.1829 6.12435 39.4059 5.77157 39.6979 5.5526C39.9898 5.32552 40.3467 5.21198 40.7684 5.21198C41.0523 5.21198 41.2915 5.26064 41.4861 5.35796C41.6889 5.45528 41.8308 5.61748 41.9119 5.84455H41.9606C42.0417 5.60937 42.1876 5.44717 42.3985 5.35796C42.6094 5.26064 42.8567 5.21198 43.1406 5.21198C43.6677 5.21198 44.0732 5.3539 44.3571 5.63775C44.649 5.91349 44.795 6.33926 44.795 6.91507V12H43.7123V6.92724C43.7123 6.61095 43.6434 6.39603 43.5055 6.28249C43.3677 6.16895 43.1933 6.11218 42.9824 6.11218C42.7472 6.11218 42.5729 6.16895 42.4593 6.28249C42.3539 6.39603 42.289 6.58256 42.2647 6.84208H41.5835C41.551 6.55823 41.4659 6.36765 41.328 6.27033C41.1901 6.1649 41.036 6.11218 40.8657 6.11218C40.5413 6.11218 40.298 6.30277 40.1358 6.68394C39.9736 7.05699 39.8925 7.67741 39.8925 8.54517C39.8925 9.10476 39.9331 9.58325 40.0142 9.98064C40.1034 10.378 40.2656 10.6862 40.5008 10.9052C40.736 11.116 41.0766 11.2215 41.5226 11.2215C41.6848 11.2215 41.8186 11.2134 41.9241 11.1971C42.0295 11.1809 42.1309 11.1606 42.2282 11.1363L42.3377 11.9635C42.216 12.0203 42.0701 12.0608 41.8997 12.0852C41.7294 12.1095 41.5591 12.1217 41.3888 12.1217Z" fill="black"/>
<path d="M40.4501 4.27528V3.80084L41.3382 3.41157H45.6202V4.27528H40.4501Z" fill="black"/>
<path d="M51.9205 12.1217C51.4015 12.1217 50.9514 12.0203 50.5702 11.8175C50.1972 11.6067 49.9417 11.3147 49.8038 10.9417H49.7552L49.6943 12H48.8063V5.33363H49.889V9.18992C49.889 9.59541 49.9579 9.95225 50.0958 10.2604C50.2418 10.5605 50.4486 10.7957 50.7162 10.966C50.9919 11.1282 51.3204 11.2093 51.7016 11.2093C52.18 11.2093 52.5369 11.0836 52.7721 10.8322C53.0073 10.5808 53.1249 10.2118 53.1249 9.72517V5.33363H54.2075V9.79816C54.2075 10.3334 54.1143 10.7714 53.9277 11.112C53.7493 11.4526 53.4898 11.7081 53.1492 11.8784C52.8086 12.0406 52.399 12.1217 51.9205 12.1217Z" fill="black"/>
</svg>
