<svg width="75" height="8" viewBox="0 0 75 8" fill="none" xmlns="http://www.w3.org/2000/svg">
<path d="M2.07784 7.07167C1.54621 7.07167 1.12211 6.92234 0.80552 6.62367C0.494907 6.31903 0.309733 5.93076 0.25 5.45887L1.03848 5.28863C1.08627 5.62911 1.19677 5.89194 1.37 6.07711C1.54323 6.25631 1.77917 6.34591 2.07784 6.34591C2.4004 6.34591 2.65725 6.24735 2.8484 6.05023C3.04552 5.85311 3.14408 5.54548 3.14408 5.12735V0.727991H3.91464V5.04671C3.91464 5.71572 3.7444 6.22047 3.40392 6.56095C3.06344 6.90143 2.62141 7.07167 2.07784 7.07167Z" fill="white"/>
<path d="M5.37239 0.727991H9.01911V1.45375H6.15191V3.29951H8.48151V4.01631H6.15191V6.27423H9.10871V6.99999H5.37239V0.727991Z" fill="white"/>
<path d="M11.6768 1.45375H9.84V0.727991H14.2842V1.45375H12.4474V6.99999H11.6768V1.45375Z" fill="white"/>
<path d="M14.9002 6.63263L17.9108 1.45375H15.0167V0.727991H18.9591V1.09535L15.9844 6.27423H19.0398V6.99999H14.9002V6.63263Z" fill="white"/>
<path d="M21.4943 1.45375H19.6575V0.727991H24.1017V1.45375H22.2649V6.99999H21.4943V1.45375Z" fill="white"/>
<path d="M27.3786 0.727991H31.0254V1.45375H28.1582V3.29951H30.4878V4.01631H28.1582V6.27423H31.115V6.99999H27.3786V0.727991Z" fill="white"/>
<path d="M32.3399 0.727991H33.209L36.0583 5.67391V0.727991H36.8288V6.99999H35.9597L33.1194 2.07199V6.99999H32.3399V0.727991Z" fill="white"/>
<path d="M39.5193 1.45375H37.6825V0.727991H42.1267V1.45375H40.2899V6.99999H39.5193V1.45375Z" fill="white"/>
<path d="M42.9799 0.727991H44.7271C45.2587 0.727991 45.7426 0.850444 46.1786 1.09535C46.6147 1.34026 46.9611 1.69866 47.218 2.17055C47.4748 2.64244 47.6033 3.20692 47.6033 3.86399C47.6033 4.52106 47.4748 5.08554 47.218 5.55743C46.9611 6.02932 46.6147 6.38772 46.1786 6.63263C45.7426 6.87754 45.2587 6.99999 44.7271 6.99999H42.9799V0.727991ZM44.6106 6.27423C45.0049 6.27423 45.3662 6.19359 45.6948 6.03231C46.0233 5.86506 46.2891 5.60223 46.4922 5.24383C46.6953 4.87946 46.7969 4.41951 46.7969 3.86399C46.7969 3.30847 46.6953 2.85151 46.4922 2.49311C46.2891 2.12874 46.0233 1.86591 45.6948 1.70463C45.3662 1.53738 45.0049 1.45375 44.6106 1.45375H43.7594V6.27423H44.6106Z" fill="white"/>
<path d="M48.8336 0.727991H52.4804V1.45375H49.6132V3.29951H51.9428V4.01631H49.6132V6.27423H52.57V6.99999H48.8336V0.727991Z" fill="white"/>
<path d="M56.1547 7.07167C55.653 7.07167 55.187 6.9522 54.757 6.71327C54.3269 6.46836 53.9804 6.10399 53.7176 5.62015C53.4548 5.13631 53.3234 4.55092 53.3234 3.86399C53.3234 3.17706 53.4548 2.59167 53.7176 2.10783C53.9804 1.62399 54.3269 1.2626 54.757 1.02367C55.187 0.778764 55.653 0.656311 56.1547 0.656311C56.776 0.656311 57.2986 0.817591 57.7227 1.14015C58.1468 1.46271 58.4395 1.91071 58.6008 2.48415L57.8661 2.68127C57.7407 2.26911 57.5346 1.94954 57.2479 1.72255C56.9671 1.49556 56.6027 1.38207 56.1547 1.38207C55.7665 1.38207 55.417 1.47764 55.1064 1.66879C54.8018 1.85994 54.5628 2.14068 54.3896 2.51103C54.2164 2.88138 54.1298 3.33236 54.1298 3.86399C54.1298 4.39562 54.2164 4.8466 54.3896 5.21695C54.5628 5.5873 54.8018 5.86804 55.1064 6.05919C55.417 6.25034 55.7665 6.34591 56.1547 6.34591C56.6027 6.34591 56.9671 6.23242 57.2479 6.00543C57.5346 5.77844 57.7407 5.45887 57.8661 5.04671L58.6008 5.24383C58.4395 5.81727 58.1468 6.26527 57.7227 6.58783C57.2986 6.91039 56.776 7.07167 56.1547 7.07167Z" fill="white"/>
<path d="M59.7886 0.727991H60.5682V3.29055L62.9157 0.727991H63.8834L61.3208 3.54143L64.0984 6.99999H63.1218L60.5682 3.78335V6.99999H59.7886V0.727991Z" fill="white"/>
<path d="M64.8461 0.727991H68.4929V1.45375H65.6257V3.29951H67.9553V4.01631H65.6257V6.27423H68.5825V6.99999H64.8461V0.727991Z" fill="white"/>
<path d="M69.8074 0.727991H70.6765L73.5258 5.67391V0.727991H74.2963V6.99999H73.4272L70.5869 2.07199V6.99999H69.8074V0.727991Z" fill="white"/>
</svg>
