<?xml version="1.0" encoding="utf-8"?>
<!-- Generator: Adobe Illustrator 26.0.2, SVG Export Plug-In . SVG Version: 6.00 Build 0)  -->
<svg version="1.1" id="Layer_1" xmlns="http://www.w3.org/2000/svg" xmlns:xlink="http://www.w3.org/1999/xlink" x="0px" y="0px"
	 viewBox="0 0 920 233.9" style="enable-background:new 0 0 920 233.9;" xml:space="preserve">
<g id="Layer_1_00000137849521605407516060000004140840678318851257_">
	<g>
		<g>
			<path d="M487.9,229.9L471.4,212h-7.8v17.8H455v-52.8h22.4c9.6,0,17.6,7.8,17.6,17.6c0,12.3-9.8,16.5-12.6,16.9
				c1.6,1.8,11.2,12.3,16.5,18.1l0.2,0.2H487.9z M477.2,203.4c4.8,0,8.7-3.9,8.7-8.7s-3.9-8.7-8.7-8.7h-13.5v17.6h13.5V203.4z"/>
			<path d="M348.4,229.9v-52.8h22.4c9.6,0,17.6,7.8,17.6,17.6c0,9.6-7.8,17.6-17.6,17.6h-13.5v17.6L348.4,229.9L348.4,229.9z
				 M357.3,203.4h13.5c4.8,0,8.7-3.9,8.7-8.7c0-4.8-3.9-8.7-8.7-8.7h-13.5V203.4z"/>
			<path d="M433.9,229.9l-5-12.3h-23.1l-5,12.3h-9.6l21.3-52.8h9.4l21.3,52.8H433.9z M409.5,209.1h16.2l-8-20.6L409.5,209.1z"/>
			<rect x="511.7" y="177.1" width="8.9" height="52.8"/>
			<path d="M557.4,231.2c-9.1,0-17.6-3.7-22.6-9.8l-0.7-0.9l7.5-5.5l0.7,0.7c3.9,4.6,9.1,6.9,15.3,6.9c6.2,0,12.8-1.8,12.8-7.3
				c0-5.5-7.5-6.9-12.6-8c-0.9-0.2-1.8-0.5-2.3-0.5l-1.1-0.2c-8.5-2.1-17.4-4.1-17.4-14.9c0-11.2,10.5-16.2,20.4-16.2
				c8.7,0,15.8,3,21,9.1l0.7,0.9l-7.3,5.5l-0.7-0.7c-3.9-4.3-8.2-6.4-13.9-6.4c-6.6,0-10.7,2.5-10.7,6.4c0,4.8,4.8,6.2,11.9,7.5
				c1.6,0.2,3.2,0.7,4.6,0.9c9.1,2.3,16.7,4.8,16.7,15.1C579.8,226.7,568.2,231.2,557.4,231.2z"/>
		</g>
		<g>
			<path d="M479,122.6l-34.1-37.3h-17.2v37.3h-17.6v-110h46.4c20.1,0,36.4,16.2,36.4,36.4c0,27.2-23.3,34.8-26.5,35.2l35,38.4
				L479,122.6L479,122.6z M427.8,68h28.8c10.3,0,18.8-8.5,18.8-18.8s-8.5-18.8-18.8-18.8h-28.8V68z"/>
			<path d="M96.9,125.4c-32.2,0-57.4-25.4-57.4-57.9c0-32.5,25.4-57.9,57.6-57.9c19,0,34.8,7.8,45.7,22.2l-14.9,11
				c-7.1-10.1-18.1-15.5-30.9-15.5c-22,0-38.4,16.9-38.4,40s16.2,40,38.2,40h0.5c19,0,33.2-11.2,36.8-29l0.2-0.9h-33.6V59.7H154v8.7
				c0,15.3-5.5,28.8-16.2,39.8c-10.5,10.7-24.9,16.7-40.5,16.7l0,0L96.9,125.4z"/>
			<path d="M227.9,125.4c-26.3,0-47.8-21.5-47.8-47.8V12.6h17.6v64.9c0,16.7,13.5,30.4,30.4,30.4c16.7,0,30.4-13.5,30.4-30.4V12.6
				h17.6v64.9C275.7,104.1,254.2,125.4,227.9,125.4z"/>
			<polygon points="305,122.6 305,12.6 380.4,12.6 380.4,30.2 322.6,30.2 322.6,58.8 376.1,58.8 376.1,76.4 322.6,76.4 322.6,105.3 
				380.4,105.3 380.4,122.6 			"/>
			<polygon points="526.3,122.6 526.3,12.6 543.9,12.6 543.9,105.3 592.4,105.3 592.4,122.6 			"/>
			<path d="M694.8,122.6L684.6,97h-48.9l-10.3,25.6h-19l44.1-110h19.2l44.1,110H694.8z M642.2,79.9h35.2l-17.6-44.8L642.2,79.9z"/>
			<rect x="734.6" y="12.6" width="17.6" height="110"/>
			<polygon points="862.2,122.6 801.6,41.2 801.6,122.6 784,122.6 784,12.6 802.3,12.6 862.9,94.3 862.9,12.6 880.5,12.6 
				880.5,122.6 			"/>
			<path d="M99.6,67.1"/>
		</g>
	</g>
</g>
</svg>
