<svg width="25" height="12" viewBox="0 0 25 12" fill="none" xmlns="http://www.w3.org/2000/svg">
<path d="M4.35509 7.05861H11.5446V7.89799H4.35509V7.05861ZM8.43035 2.63057H9.25756V4.78376C9.25756 5.03923 9.30622 5.08789 9.61035 5.08789C9.74416 5.08789 10.4254 5.08789 10.6079 5.08789C10.8755 5.08789 10.9242 4.96624 10.9485 4.01737C11.1188 4.15118 11.4594 4.27283 11.6906 4.33366C11.6054 5.52582 11.3743 5.82995 10.7052 5.82995C10.5227 5.82995 9.67117 5.82995 9.50086 5.82995C8.62499 5.82995 8.43035 5.59881 8.43035 4.79593V2.63057ZM4.54973 1.45057H11.4473V3.60376H10.62V2.25345H5.35261V3.65242H4.54973V1.45057ZM7.44499 5.74479H8.34519V11.9732H7.44499V5.74479ZM6.48396 2.6549H7.3355C7.21385 4.54046 6.73942 5.56232 4.74437 6.10974C4.65921 5.9151 4.44024 5.61098 4.26993 5.465C6.03385 5.0149 6.38664 4.22417 6.48396 2.6549ZM8.68581 7.43572C9.34272 8.7617 10.6322 10.0512 11.8852 10.6838C11.6906 10.8541 11.4108 11.1704 11.2526 11.4015C9.9753 10.6473 8.68581 9.19964 7.96808 7.71551L8.68581 7.43572ZM7.15303 7.36273L7.87076 7.61819C7.14086 9.26046 5.77839 10.7203 4.2821 11.4623C4.14828 11.2433 3.89282 10.9271 3.68602 10.7568C5.12148 10.1363 6.48396 8.81036 7.15303 7.36273ZM0.328491 7.0951C1.27736 6.82747 2.70066 6.38954 4.08746 5.93943L4.20911 6.77881C2.94395 7.21675 1.60581 7.65469 0.57179 7.98314L0.328491 7.0951ZM0.4988 3.23881H4.19694V4.09036H0.4988V3.23881ZM2.03158 0.793659H2.88313V10.9149C2.88313 11.4258 2.76148 11.6691 2.45736 11.8151C2.17756 11.9611 1.70313 11.9854 0.936739 11.9854C0.900244 11.7664 0.790759 11.3893 0.66911 11.1339C1.20437 11.146 1.66664 11.146 1.81261 11.1339C1.95859 11.1339 2.03158 11.0974 2.03158 10.9149V0.793659Z" fill="black"/>
<path d="M18.7341 8.62789H19.6464V11.9976H18.7341V8.62789ZM18.7341 0.781494H19.6343V4.18768H18.7341V0.781494ZM18.284 4.40665L19.1355 4.82026C18.4299 5.47716 17.5662 6.18273 16.8607 6.66933L16.1916 6.29222C16.8728 5.79345 17.7852 4.99057 18.284 4.40665ZM20.9116 5.19737L21.7388 5.64747C20.3642 6.76665 18.4908 8.05613 17.0066 8.88335L16.3619 8.44541C17.846 7.60603 19.7681 6.23139 20.9116 5.19737ZM15.2549 6.25572L15.8631 5.73263C16.7755 6.18273 17.9312 6.87613 18.5273 7.38706L17.8947 7.97098C17.3351 7.46005 16.1916 6.73015 15.2549 6.25572ZM20.7778 7.21675L21.386 6.73015C22.4565 7.36273 23.8068 8.29943 24.4881 8.94417L23.8433 9.50376C23.1986 8.85902 21.8604 7.86149 20.7778 7.21675ZM20.8143 9.82005L21.5077 9.34562C22.5539 9.85655 23.892 10.6716 24.5854 11.2677L23.8312 11.8151C23.1986 11.219 21.8848 10.3675 20.8143 9.82005ZM13.9289 8.25077C16.1551 8.25077 19.8289 8.20211 23.2959 8.12912L23.2473 8.85902C19.8776 8.95634 16.2889 9.06582 13.9776 9.09015L13.9289 8.25077ZM16.6539 9.33345L17.5176 9.64974C16.7025 10.4891 15.4495 11.3285 14.3912 11.8516C14.233 11.6813 13.8924 11.365 13.6734 11.2069C14.7561 10.7568 15.924 10.0512 16.6539 9.33345ZM14.0627 1.86417H24.3421V2.66706H14.0627V1.86417ZM14.0262 3.8349H24.4516V6.12191H23.5514V4.62562H14.8899V6.12191H14.0262V3.8349Z" fill="black"/>
</svg>
