<?xml version="1.0" encoding="UTF-8"?>
<svg id="Calque_1" xmlns="http://www.w3.org/2000/svg" version="1.1" viewBox="0 0 82.7 7">
  <!-- Generator: Adobe Illustrator 29.1.0, SVG Export Plug-In . SVG Version: 2.1.0 Build 142)  -->
  <defs>
    <style>
      .st0 {
        fill: #fff;
      }
    </style>
  </defs>
  <path class="st0" d="M2.6,6.9c-1.1,0-1.9-.6-2-1.5h.6c.2.5.7.9,1.4.9s1.2-.6,1.2-1.5V.2h.7v4.5c0,1.3-.8,2.2-1.9,2.2ZM10.5.2v.6h-3.5v2.3h2.7v.6h-2.7v2.4h3.5v.6h-4.2V.2h4.2ZM16.2.2v.6h-2.1v5.9h-.7V.8h-2.1V.2h4.8ZM21.8,6.8h-4.7v-.6l3.8-5.3h-3.5V.2h4.4v.6l-3.8,5.3h3.8v.6ZM27.5.2v.6h-2.1v5.9h-.7V.8h-2.1V.2h4.8ZM35,.2v.6h-3.5v2.3h2.7v.6h-2.7v2.4h3.5v.6h-4.2V.2h4.2ZM37.3.2v6.6h-.7V.2h.7ZM44.6,6.8h-.8l-4-5.7v5.6h-.7V.1h.8l4,5.7V.2h.7v6.7ZM47.2,6.8h-.7V.2h.7v3.1l2.9-3.1h.8l-3,3.2,3.4,3.4h-.9l-3.2-3.2v3.2ZM57.6,6.8h-.7l-.8-2h-2.8l-.8,2h-.7L54.3.1h.8l2.5,6.7ZM54.7.9l-1.2,3.2h2.4l-1.2-3.2h0ZM61,6.9c-1.5,0-2.6-.9-2.6-2.8V.2h.7v3.8c0,1.5.8,2.2,1.9,2.2s1.9-.7,1.9-2.2V.2h.7v3.9c0,1.9-1,2.8-2.6,2.8ZM69.5.2v.6h-3.5v2.3h2.6v.6h-2.6v3h-.7V.2h4.2ZM75.1.2v.6h-3.5v2.3h2.7v.6h-2.7v2.4h3.5v.6h-4.2V.2h4.2ZM82.2,6.8h-.8l-4-5.7v5.6h-.7V.1h.8l4,5.7V.2h.7v6.7Z"/>
</svg>