<svg xmlns="http://www.w3.org/2000/svg" viewBox="0 0 66.93 15.75"><defs><style>.cls-1,.cls-2{isolation:isolate;}.cls-2{mix-blend-mode:multiply;}.cls-3{fill-rule:evenodd;}.cls-4{fill:#fff;}</style></defs><g class="cls-1"><g id="Rectangle_2" data-name="Rectangle 2" class="cls-2"><g id="Rectangle_2-2" data-name="Rectangle 2"><path class="cls-3" d="M62.2,3.15H10.63A7.68,7.68,0,0,0,3,10.83v.39a7.68,7.68,0,0,0,7.68,7.68H62.2a7.68,7.68,0,0,0,7.68-7.68v-.39A7.68,7.68,0,0,0,62.2,3.15Z" transform="translate(-2.95 -3.15)"/></g></g><g id="Découvrir"><path class="cls-4" d="M24.7,12.48h5.44v.41H24.7ZM30,8.81V9.2H24.91V8.81h2.28V7.59l.54,0s0,.07-.12.09v1.1Zm-3.87.72a9.56,9.56,0,0,1,.57,2.53,2.34,2.34,0,0,0-.42.09,9.33,9.33,0,0,0-.53-2.52Zm3.16.08a.19.19,0,0,1-.15.09,18.74,18.74,0,0,1-.79,2.62L28,12.21a17.93,17.93,0,0,0,.72-2.72Zm3.38,2.21a7.4,7.4,0,0,0-.57-.73l.31-.18a7.49,7.49,0,0,1,1.12,1.58l-.34.2a4.84,4.84,0,0,0-.31-.57l-2,.62a.14.14,0,0,1-.08.09l-.18-.47.42-.11V7.92h2.16V10.7H31.44v1.45Zm.19-3.52H31.44v.82h1.39Zm-1.39,2h1.39V9.49H31.44Zm4.49-2.4v3.71c0,.52-.25.53-1.11.53a1.73,1.73,0,0,0-.14-.42h.52c.29,0,.33,0,.33-.12V8.32H34.18v4.84h-.41V7.92ZM37.81,10v2c.47.72,1.36.72,2.39.72.69,0,1.53,0,2,0a1,1,0,0,0-.13.39l-1.69,0c-1.34,0-2.17,0-2.76-.74-.27.27-.55.53-.77.74,0,.05,0,.07-.05.09l-.23-.41a10.11,10.11,0,0,0,.83-.72V10.37h-.77V10ZM37,7.73a4.36,4.36,0,0,1,.94,1L37.63,9a4.18,4.18,0,0,0-.92-1.05Zm5.12,3.38v.32H38.08v-.32h1.13v-.6h-.88v-.33h.88V9.7l.5,0s0,.07-.12.08v.36h1V9.7l.51,0s0,.07-.12.08v.36h.9v.33H41v.6ZM39.38,8.55V8.13H38.17v-.3h1.56v1H38.67v.33c0,.11,0,.14.22.14h.68c.15,0,.18,0,.19-.32a1,1,0,0,0,.3.12c0,.39-.13.49-.44.49h-.76c-.43,0-.54-.08-.54-.43V8.55Zm.51,3.1a.12.12,0,0,1-.13,0,5.53,5.53,0,0,1-1.25.75,2.2,2.2,0,0,0-.28-.24,4.31,4.31,0,0,0,1.23-.73Zm-.3-1.14v.6h1v-.6Zm1.85-2V8.13H40.15v-.3H41.8v1H40.66v.33c0,.11,0,.14.25.14h.75c.16,0,.19,0,.2-.34a1.15,1.15,0,0,0,.31.11c0,.42-.14.52-.46.52h-.82c-.46,0-.58-.08-.58-.43V8.55Zm-.73,2.92a7.18,7.18,0,0,1,1.37.79l-.39.18a6.52,6.52,0,0,0-1.27-.78Zm2.93.43a.09.09,0,0,1-.11,0,3.55,3.55,0,0,1-.66,1.2,1.57,1.57,0,0,0-.28-.21,2.85,2.85,0,0,0,.6-1.18Zm.94-4.09v3.82H42.89V7.81ZM44.22,9V8.16h-1V9Zm0,1.15V9.3h-1v.83Zm0,1.16v-.84h-1v.84Zm.05.47a5.47,5.47,0,0,1,.51.93l-.33.17a5.46,5.46,0,0,0-.49-1Zm3.95,0v.32h-.45v.63c0,.41-.17.43-1.08.43a1.31,1.31,0,0,0-.12-.33h.52c.28,0,.31,0,.31-.12V12.1H45.49v1.06h-.36V12.1h-.46v-.32h.46V10.32h1.12V9.88H44.74V9.57h.86V9.16h-.52v-.3h.52v-.4h-.73V8.15h.73V7.59l.48,0s0,.07-.12.08v.45h1V7.59l.48,0s0,.07-.11.08v.45h.77v.31h-.77v.4h.61v.3h-.61v.41h.9v.31H46.61v.44h1.16v1.46Zm-2-1.15h-.76v.42h.76Zm-.76.72v.43h.76v-.43ZM46,8.46v.4h1v-.4Zm0,.7v.41h1V9.16Zm1.44,1.47h-.79v.42h.79Zm-.79,1.15h.79v-.43h-.79Z" transform="translate(-2.95 -3.15)"/></g></g></svg>