<svg xmlns="http://www.w3.org/2000/svg" viewBox="0 0 66.93 15.75"><defs><style>.cls-1,.cls-2{isolation:isolate;}.cls-2{mix-blend-mode:multiply;}.cls-3{fill-rule:evenodd;}.cls-4{fill:#fff;}</style></defs><g class="cls-1"><g id="Rectangle_2" data-name="Rectangle 2" class="cls-2"><g id="Rectangle_2-2" data-name="Rectangle 2"><path class="cls-3" d="M62.2,3.15H10.63A7.68,7.68,0,0,0,3,10.83v.39a7.68,7.68,0,0,0,7.68,7.68H62.2a7.68,7.68,0,0,0,7.68-7.68v-.39A7.68,7.68,0,0,0,62.2,3.15Z" transform="translate(-2.95 -3.15)"/></g></g><g id="Découvrir"><path class="cls-4" d="M20.25,8.6v.33H18V8.6ZM20,11.05v1.76H18.6v.28h-.36v-2Zm-1.8-1.31V9.41h1.81v.33Zm0,.82v-.33h1.81v.33ZM20,7.8v.33H18.28V7.8Zm-.35,3.59H18.6v1.08h1.08Zm3.88-.11v.37H22.1v1.51h-.4V11.65H20.21v-.37H21.7v-.92H20.53V10H21.7V9.13H20.41V8.75h.72a4.68,4.68,0,0,0-.45-1L21,7.62a4.18,4.18,0,0,1,.49,1l-.21.09H22.5l-.2-.09a6.71,6.71,0,0,0,.49-1.09l.46.18a.14.14,0,0,1-.13.06,9.29,9.29,0,0,1-.48.94h.83v.38H22.1V10h1.2v.36H22.1v.92Zm1.77-3.44c0,.08-.06.12-.18.14,0,.69-.11,2.28-.11,3.17s.44,1.32,1.2,1.32a2.9,2.9,0,0,0,2.16-1.14,2.6,2.6,0,0,0,.27.36,3.26,3.26,0,0,1-2.44,1.21c-1.09,0-1.65-.63-1.65-1.76,0-.75.06-2.61.1-3.35Zm7,5.27A17.3,17.3,0,0,0,30,10.88c-.3-.24-.41-.41-.41-.63a.77.77,0,0,1,.32-.54c.55-.51,1.57-1.48,2.15-2.06l.51.33a.19.19,0,0,1-.13.06h-.08c-.6.57-1.53,1.39-2,1.85-.15.14-.26.26-.26.36s.11.22.32.37a21.77,21.77,0,0,1,2.37,2.18Zm1.74-.29a6.43,6.43,0,0,1-.26-2.11,15,15,0,0,1,.32-2.8l.58.11a.14.14,0,0,1-.15.11,11.29,11.29,0,0,0-.35,2.59,8.32,8.32,0,0,0,0,1.13c.14-.36.38-.94.5-1.22l.27.25a7,7,0,0,0-.62,1.6.83.83,0,0,0,.06.29Zm1.52-3.53c.5,0,1,0,1.51,0,0-.51,0-1,0-1.4l.6,0c0,.06-.06.11-.15.13,0,.38,0,.77,0,1.22A4.8,4.8,0,0,0,38.74,9l.06.42a5.74,5.74,0,0,1-1.21.22c0,.67,0,1.37.07,1.75a4.6,4.6,0,0,1,1.22.76l-.23.39a3.75,3.75,0,0,0-1-.69c0,.51-.11,1.08-1,1.08-.7,0-1.17-.33-1.17-.86s.62-.88,1.17-.88a1.83,1.83,0,0,1,.57.08c0-.38-.05-1-.08-1.6l-.61,0h-.91Zm1.64,2.36a2,2,0,0,0-.59-.11c-.37,0-.8.13-.8.51s.36.5.79.5.61-.22.61-.7Zm6.6.89a11.69,11.69,0,0,1-1.82.14,6.74,6.74,0,0,1-1.18-.08,1.15,1.15,0,0,1-1-1.15,1.89,1.89,0,0,1,.61-1.28l.35.18a1.62,1.62,0,0,0-.53,1.07c0,.34.23.66.75.78a5.73,5.73,0,0,0,1,.07,10.32,10.32,0,0,0,1.84-.16Zm-2.69-3a8.42,8.42,0,0,1,1.06-.7h0c-.45,0-1.5.08-2.16.07,0-.11,0-.31,0-.42a19.63,19.63,0,0,0,3.42-.19l0,.44a5,5,0,0,0-2,1ZM49,8.8a14.18,14.18,0,0,1-2.58.34,8.06,8.06,0,0,1-.28,1.59,3.07,3.07,0,0,1,1.7-.63,1.26,1.26,0,0,1,1.44,1.29c0,1.19-1.21,1.59-3.16,1.64a1.52,1.52,0,0,0-.12-.4c1.72,0,2.84-.33,2.84-1.23,0-.54-.36-.91-1.05-.91a2.46,2.46,0,0,0-1.85.92l-.42-.2A5.23,5.23,0,0,0,46,9.15H44.59V8.73H46c0-.34,0-.73,0-1.09l.64.06c0,.1-.09.12-.2.13,0,.3,0,.61,0,.89a12.39,12.39,0,0,0,2.46-.36Zm2.28.07c0,.06-.07.09-.15.11a6.7,6.7,0,0,1-.25,1.77h0A4.06,4.06,0,0,1,53.1,10c.92,0,1.49.47,1.48,1.31,0,1.1-.93,1.6-3.25,1.69a1.56,1.56,0,0,0-.15-.39c2.1-.09,2.94-.44,3-1.29,0-.58-.39-.93-1.09-.93a3.19,3.19,0,0,0-2.28,1l-.41-.19a6.65,6.65,0,0,0,.34-2.37Zm.11-1.16a9.56,9.56,0,0,1,2.32.53l-.15.41a10,10,0,0,0-2.3-.54Z" transform="translate(-2.95 -3.15)"/></g></g></svg>