<?xml version="1.0" encoding="UTF-8"?>
<svg id="Calque_1" xmlns="http://www.w3.org/2000/svg" version="1.1" viewBox="0 0 50.7 7">
  <!-- Generator: Adobe Illustrator 29.1.0, SVG Export Plug-In . SVG Version: 2.1.0 Build 142)  -->
  <defs>
    <style>
      .st0 {
        fill: #fff;
      }
    </style>
  </defs>
  <path class="st0" d="M10,6.8h-.7l-.8-2.1h-2.9l-.8,2.1h-.7L6.6,0h.8l2.5,6.7ZM7,.9l-1.2,3.2h2.4l-1.2-3.2h0ZM10.4,3.5C10.4,1.4,11.8,0,13.6,0s2.4.8,2.7,2h-.7c-.3-.7-1-1.3-2-1.3s-2.5,1.2-2.5,2.8,1.1,2.8,2.5,2.8,1.7-.6,2-1.5l.7.2c-.4,1.2-1.4,2-2.7,2s-3.2-1.3-3.2-3.5ZM22.9.2v6.6h-.7v-3h-3.7v3h-.7V.2h.7v3h3.7V.2h.7ZM29.1.2v.6h-3.6v2.3h2.7v.6h-2.7v2.4h3.6v.6h-4.3V.2h4.3ZM34.9.2v.6h-2.1v6h-.7V.8h-2.1V.2h4.9ZM40.4.2v.6h-3.6v2.3h2.7v.6h-2.7v2.4h3.6v.6h-4.3V.2h4.3ZM45.8,6.8l-1.8-3h-1.2v3h-.7V.2h2.3c1.2,0,2,.7,2,1.9s-.6,1.6-1.6,1.8l1.9,3h-.8ZM45.6,2.1c0-.6-.4-1.2-1.4-1.2h-1.4v2.4h1.5c1,0,1.4-.6,1.4-1.2Z"/>
</svg>