<svg width="40" height="8" viewBox="0 0 40 8" fill="none" xmlns="http://www.w3.org/2000/svg">
<path d="M2.31974 0.727991H3.05446L5.26758 6.99999H4.45222L3.87878 5.31551H1.49542L0.921976 6.99999H0.0976562L2.31974 0.727991ZM3.64582 4.58975L2.6871 1.77631L1.72838 4.58975H3.64582Z" fill="white"/>
<path d="M8.40596 7.07167C7.9042 7.07167 7.43828 6.9522 7.0082 6.71327C6.57812 6.46836 6.23166 6.10399 5.96884 5.62015C5.70601 5.13631 5.5746 4.55092 5.5746 3.86399C5.5746 3.17706 5.70601 2.59167 5.96884 2.10783C6.23166 1.62399 6.57812 1.2626 7.0082 1.02367C7.43828 0.778764 7.9042 0.656311 8.40596 0.656311C9.02718 0.656311 9.54985 0.817591 9.97396 1.14015C10.3981 1.46271 10.6908 1.91071 10.852 2.48415L10.1173 2.68127C9.99188 2.26911 9.7858 1.94954 9.49908 1.72255C9.21833 1.49556 8.85396 1.38207 8.40596 1.38207C8.01769 1.38207 7.66825 1.47764 7.35764 1.66879C7.053 1.85994 6.81406 2.14068 6.64084 2.51103C6.46761 2.88138 6.381 3.33236 6.381 3.86399C6.381 4.39562 6.46761 4.8466 6.64084 5.21695C6.81406 5.5873 7.053 5.86804 7.35764 6.05919C7.66825 6.25034 8.01769 6.34591 8.40596 6.34591C8.85396 6.34591 9.21833 6.23242 9.49908 6.00543C9.7858 5.77844 9.99188 5.45887 10.1173 5.04671L10.852 5.24383C10.6908 5.81727 10.3981 6.26527 9.97396 6.58783C9.54985 6.91039 9.02718 7.07167 8.40596 7.07167Z" fill="white"/>
<path d="M14.5395 7.07167C14.0258 7.07167 13.5539 6.94623 13.1238 6.69535C12.6937 6.4385 12.3503 6.06815 12.0934 5.58431C11.8425 5.10047 11.7171 4.52703 11.7171 3.86399C11.7171 3.20095 11.8425 2.62751 12.0934 2.14367C12.3503 1.65983 12.6937 1.29247 13.1238 1.04159C13.5539 0.784738 14.0258 0.656311 14.5395 0.656311C15.0472 0.656311 15.5161 0.784738 15.9462 1.04159C16.3763 1.29247 16.7168 1.65983 16.9677 2.14367C17.2245 2.62751 17.3529 3.20095 17.3529 3.86399C17.3529 4.28212 17.2992 4.6674 17.1917 5.01983C17.0841 5.36628 16.9318 5.67391 16.7347 5.94271L17.335 6.53407L16.7974 7.07167L16.224 6.49823C15.991 6.6834 15.7282 6.82676 15.4355 6.92831C15.1428 7.02388 14.8441 7.07167 14.5395 7.07167ZM14.5395 6.34591C14.9755 6.34591 15.3608 6.22346 15.6953 5.97855L14.9785 5.25279L15.5161 4.72415L16.1792 5.38719C16.4301 4.97503 16.5555 4.4673 16.5555 3.86399C16.5555 3.32639 16.4659 2.87242 16.2867 2.50207C16.1075 2.12575 15.8656 1.845 15.5609 1.65983C15.2563 1.47466 14.9158 1.38207 14.5395 1.38207C14.1632 1.38207 13.8227 1.47466 13.5181 1.65983C13.2134 1.845 12.9715 2.12575 12.7923 2.50207C12.6131 2.87242 12.5235 3.32639 12.5235 3.86399C12.5235 4.40159 12.6131 4.85855 12.7923 5.23487C12.9715 5.60522 13.2134 5.88298 13.5181 6.06815C13.8227 6.25332 14.1632 6.34591 14.5395 6.34591Z" fill="white"/>
<path d="M20.6907 7.07167C20.2725 7.07167 19.8962 6.99103 19.5617 6.82975C19.2272 6.6625 18.9614 6.4146 18.7643 6.08607C18.5731 5.75156 18.4776 5.34538 18.4776 4.86751V0.727991H19.2571V4.91231C19.2571 5.34239 19.3795 5.68884 19.6244 5.95167C19.8693 6.2145 20.2248 6.34591 20.6907 6.34591C21.1566 6.34591 21.512 6.2145 21.7569 5.95167C22.0018 5.68884 22.1243 5.34239 22.1243 4.91231V0.727991H22.9038V4.86751C22.9038 5.34538 22.8052 5.75156 22.6081 6.08607C22.411 6.4146 22.1452 6.6625 21.8107 6.82975C21.4762 6.99103 21.1028 7.07167 20.6907 7.07167Z" fill="white"/>
<path d="M24.3511 0.727991H25.1306V6.99999H24.3511V0.727991Z" fill="white"/>
<path d="M28.256 7.07167C27.9095 7.07167 27.59 6.997 27.2973 6.84767C27.0106 6.69236 26.7746 6.4833 26.5894 6.22047C26.4043 5.95764 26.2848 5.67092 26.231 5.36031L26.8762 4.95711C27.0972 5.88298 27.5601 6.34591 28.265 6.34591C28.5696 6.34591 28.8175 6.25631 29.0086 6.07711C29.1998 5.89194 29.2954 5.62612 29.2954 5.27967C29.2954 5.05268 29.2356 4.85855 29.1162 4.69727C28.9967 4.53599 28.8474 4.40159 28.6682 4.29407C28.489 4.18655 28.2351 4.05514 27.9066 3.89983C27.5004 3.70271 27.1778 3.47274 26.9389 3.20991C26.7059 2.94111 26.5894 2.60063 26.5894 2.18847C26.5894 1.89578 26.6581 1.63295 26.7955 1.39999C26.9329 1.16703 27.1211 0.984844 27.36 0.853431C27.5989 0.722018 27.8677 0.656311 28.1664 0.656311C28.5786 0.656311 28.9131 0.745911 29.1699 0.925111C29.4268 1.09834 29.6269 1.34922 29.7702 1.67775L29.1341 2.08095C28.9429 1.61503 28.6204 1.38207 28.1664 1.38207C27.9215 1.38207 27.7244 1.45674 27.575 1.60607C27.4257 1.7554 27.351 1.9346 27.351 2.14367C27.351 2.35274 27.4078 2.53194 27.5213 2.68127C27.6348 2.8306 27.7751 2.95604 27.9424 3.05759C28.1156 3.15914 28.3486 3.27562 28.6413 3.40703C29.1012 3.6161 29.4566 3.861 29.7075 4.14175C29.9584 4.41652 30.0838 4.78388 30.0838 5.24383C30.0838 5.6082 30.0032 5.92778 29.8419 6.20255C29.6866 6.47732 29.4686 6.69236 29.1878 6.84767C28.9131 6.997 28.6025 7.07167 28.256 7.07167Z" fill="white"/>
<path d="M32.213 1.45375H30.3762V0.727991H34.8204V1.45375H32.9836V6.99999H32.213V1.45375Z" fill="white"/>
<path d="M36.6197 0.727991H37.3545L39.5676 6.99999H38.7522L38.1788 5.31551H35.7954L35.222 6.99999H34.3977L36.6197 0.727991ZM37.9458 4.58975L36.9871 1.77631L36.0284 4.58975H37.9458Z" fill="white"/>
</svg>
