<?xml version="1.0" encoding="utf-8"?>
<!-- Generator: Adobe Illustrator 26.0.1, SVG Export Plug-In . SVG Version: 6.00 Build 0)  -->
<svg version="1.1" id="Layer_1" xmlns="http://www.w3.org/2000/svg" xmlns:xlink="http://www.w3.org/1999/xlink" x="0px" y="0px"
	 viewBox="0 0 66.9 15.8" style="enable-background:new 0 0 66.9 15.8;" xml:space="preserve">
<style type="text/css">
	.st0{fill-rule:evenodd;clip-rule:evenodd;}
	.st1{fill:#FFFFFF;}
</style>
<g>
	<g id="Rectangle_2">
		<g id="Rectangle_2-2">
			<path class="st0" d="M59.2,0H7.7C3.5,0,0,3.5,0,7.7v0.4c0,4.2,3.4,7.7,7.7,7.7h51.5c4.2,0,7.7-3.4,7.7-7.7V7.7
				C66.9,3.4,63.5,0,59.2,0z"/>
		</g>
	</g>
</g>
<g>
	<path class="st1" d="M15.7,10.1c0.1-0.4,0.1-0.8,0.1-1.2V8.3c0-1.1-0.1-2.6-0.2-3.6c0.2-0.2,0.4-0.5,0.6-0.6l0.1,0
		c0.1,1.3,0.2,2.8,0.2,4.1c0,0.4,0,0.7,0,1C16.3,9.5,16.2,9.7,15.7,10.1L15.7,10.1z"/>
	<path class="st1" d="M22,4c0,0.3,0.1,0.7,0.5,1.3c-0.1,0.1-0.3,0.2-0.4,0.3c0,0.8,0.1,1.7,0.1,2.5c0,0.4-0.2,1-0.5,1.3
		c-0.7,0.4-1.6,0.6-2.2,0.6c-0.8,0-1.2-0.2-1.5-0.6c-0.3-0.3-0.4-0.7-0.4-1.1c0-0.5,0.1-0.9,0.3-1.3L18,7.2
		c-0.1,0.2-0.1,0.5-0.1,0.7c0,0.5,0.2,0.9,0.6,1.1c0.3,0.2,0.7,0.3,1.1,0.3c0.6,0,1.2-0.1,2-0.5c0.2-0.1,0.2-0.2,0.2-0.8
		c0-0.7-0.1-1.5-0.1-2.4c0-0.3-0.1-0.6-0.1-0.8c0-0.3,0.1-0.4,0.2-0.5C21.8,4.2,21.9,4.1,22,4L22,4z M20.3,5.9L20.3,5.9
		c-0.4,0.1-0.6,0.3-0.7,0.5h0.5c0.4,0,0.6,0.2,0.6,0.5c0,0.6-0.6,0.8-1.1,0.8c-0.2,0-0.3,0-0.4,0l-0.4-0.2v0c0.8,0,1.5-0.2,1.5-0.4
		c0-0.1-0.1-0.1-0.5-0.1c-0.4,0-0.5,0-0.5-0.1V6.6c0-0.2,0.1-0.5,0.4-0.8c0.2-0.3,0.5-0.5,0.7-0.5c0.1,0,0.1,0,0.1,0.1
		C20.4,5.5,20.4,5.7,20.3,5.9L20.3,5.9z"/>
	<path class="st1" d="M26.3,10.2c-1.6,0-2.9-0.6-2.9-2c0-0.5,0.1-0.9,0.3-1.4L24,6.9c-0.1,0.3-0.2,0.6-0.2,0.9
		c0,1.2,1.2,1.7,2.6,1.7c0.7,0,1.4-0.1,2-0.3C28.8,9.1,29,9,29.3,8.9c0,0,0.1,0,0.1-0.1c0-0.3-0.3-0.8-0.6-1.4
		c0.1-0.3,0.3-0.5,0.4-0.7h0c0.3,0.5,0.6,1.2,0.6,1.8c0,0.4-0.1,0.7-0.3,1C29,9.8,27.5,10.2,26.3,10.2z M26.1,6.3
		c-0.2-0.2-0.5-0.4-0.7-0.6c0.2-0.2,0.3-0.4,0.5-0.6c0.2,0.2,0.4,0.4,0.7,0.6C26.4,6,26.3,6.2,26.1,6.3z M27.2,6.2
		C27,6,26.8,5.8,26.6,5.6c0.2-0.2,0.3-0.4,0.5-0.6c0.2,0.2,0.4,0.4,0.7,0.6C27.5,5.9,27.4,6.1,27.2,6.2z"/>
	<path class="st1" d="M34.2,7.7c0.2,0.3,0.3,0.6,0.4,0.9c0.1,0.2,0.1,0.5,0.5,0.5c0.1,0,0.3,0,0.4-0.1c0.2-0.1,0.3-0.2,0.3-0.5
		l0.1-0.6l0.4-0.2l0,0c0,0.2-0.1,0.4-0.1,0.6c0,0.5,0.4,0.7,0.6,0.7c0.2,0,0.3-0.1,0.3-0.3c0-0.2-0.1-0.6-0.2-1
		c0.2-0.2,0.3-0.4,0.5-0.5l0,0c0.1,0.4,0.1,0.8,0.1,1.1c0,0.3-0.1,0.6-0.2,0.8c-0.2,0.4-0.5,0.7-0.8,0.7c-0.3,0-0.6-0.2-0.8-0.5h0
		c-0.2,0.3-0.5,0.6-1,0.6h-0.2c0,0.4-0.1,0.7-0.2,0.9c-0.3,0.7-1.2,1.1-2,1.1c-1.1,0-1.7-0.8-1.7-1.8c0-0.6,0.2-1.2,0.4-1.6l0.2,0.1
		c-0.2,0.4-0.3,0.7-0.3,1.1c0,1,0.7,1.4,1.4,1.4c0.7,0,1.6-0.5,1.7-1.1c-0.1-0.7-0.3-1-0.6-1.6C33.9,8.1,34,7.9,34.2,7.7L34.2,7.7z
		 M35.4,6.8c-0.2-0.2-0.5-0.4-0.7-0.6C34.9,6,35,5.8,35.2,5.7c0.2,0.2,0.4,0.4,0.7,0.6C35.7,6.5,35.6,6.7,35.4,6.8z M35.7,5.6
		C35.5,5.4,35.3,5.2,35,5c0.2-0.2,0.3-0.4,0.5-0.6c0.2,0.2,0.4,0.4,0.7,0.6C36,5.3,35.9,5.4,35.7,5.6z M36.5,6.8
		c-0.2-0.2-0.5-0.4-0.7-0.6c0.2-0.2,0.3-0.4,0.5-0.6C36.5,5.8,36.7,6,37,6.2C36.8,6.5,36.7,6.6,36.5,6.8z"/>
	<path class="st1" d="M44.3,8.5c-0.7,0-1.2-0.2-1.4-0.6c-0.1-0.1-0.1-0.3-0.1-0.4c0-0.4,0.2-0.9,0.4-1.2c0.2-0.2,0.5-0.4,0.8-0.4
		c0.5,0,0.8,0.4,1.1,1.2c0.1,0.4,0.2,0.8,0.2,1.4c0,0.4,0,0.6-0.2,0.9c-0.5,0.3-0.8,0.4-1.2,0.5c-0.7,0.2-1.5,0.4-2.3,0.4
		c-0.8,0-1.5-0.1-2-0.5c-0.5-0.3-0.9-0.9-0.9-1.6c0-0.5,0.1-0.9,0.3-1.4l0.2,0.1c-0.1,0.3-0.2,0.6-0.2,0.9c0,0.5,0.3,1,0.8,1.3
		c0.5,0.3,1.1,0.4,1.9,0.4c0.7,0,1.3-0.1,2-0.3C44,9.1,44.3,9,44.6,8.9C44.7,8.8,45,8.7,45,8.6c0,0,0-0.1,0-0.1
		C44.7,8.5,44.5,8.5,44.3,8.5z M43.5,4.1c0.2,0.2,0.5,0.4,0.7,0.6c-0.1,0.2-0.3,0.4-0.5,0.6C43.5,5,43.3,4.9,43,4.7
		C43.2,4.4,43.3,4.2,43.5,4.1z M43.9,6.7c-0.4,0-0.7,0.3-0.7,0.5c0,0.5,0.8,0.6,1.7,0.6C44.7,7.3,44.3,6.7,43.9,6.7z"/>
	<path class="st1" d="M48.3,9.4C47.6,9.4,47,9,47,8.3c0-0.4,0.1-0.7,0.4-1C47.7,7,48,6.8,48.3,6.8c0.3,0,0.7,0.2,0.9,0.7
		c0.2,0.4,0.4,1,0.4,1.6c0,0.5-0.1,1.1-0.4,1.5c-0.5,0.8-1,1.1-1.5,1.1c-0.5,0-1.1-0.2-1.7-0.6l0.1-0.2c0.3,0.1,0.6,0.2,0.9,0.2
		c0.6,0,1.2-0.3,1.7-0.9c0.3-0.3,0.5-0.6,0.6-1C48.9,9.3,48.6,9.4,48.3,9.4z M48.1,7.5c-0.3,0-0.7,0.3-0.7,0.5c0,0.4,0.5,0.6,1,0.6
		c0.2,0,0.5,0,0.7-0.1C48.9,8,48.6,7.5,48.1,7.5z"/>
	<path class="st1" d="M50.6,10.1c0.1-0.4,0.1-0.8,0.1-1.2V8.3c0-1.1-0.1-2.6-0.2-3.6c0.2-0.2,0.4-0.5,0.6-0.6l0.1,0
		c0.1,1.3,0.2,2.8,0.2,4.1c0,0.4,0,0.7,0,1C51.2,9.5,51,9.7,50.6,10.1L50.6,10.1z"/>
</g>
</svg>
