<svg width="61" height="10" viewBox="0 0 61 10" fill="none" xmlns="http://www.w3.org/2000/svg">
<path d="M0.985352 8.99999V0.94679H4.37937C4.85786 0.94679 5.31607 1.04005 5.75401 1.22658C6.20006 1.405 6.59745 1.66858 6.94618 2.01731C7.2949 2.36603 7.57064 2.78775 7.77339 3.28246C7.97614 3.77717 8.07752 4.34081 8.07752 4.97339C8.07752 5.60597 7.97614 6.16961 7.77339 6.66432C7.57064 7.15902 7.2949 7.58074 6.94618 7.92947C6.59745 8.2782 6.20006 8.54583 5.75401 8.73236C5.31607 8.91078 4.85786 8.99999 4.37937 8.99999H0.985352ZM1.89772 8.13627H4.34288C4.91868 8.13627 5.41745 7.9903 5.83917 7.69834C6.26088 7.40638 6.58528 7.02115 6.81236 6.54267C7.04755 6.06418 7.16515 5.54109 7.16515 4.97339C7.16515 4.39758 7.04755 3.87043 6.81236 3.39194C6.58528 2.91346 6.26088 2.53229 5.83917 2.24844C5.41745 1.95648 4.91868 1.8105 4.34288 1.8105H1.89772V8.13627Z" fill="black"/>
<path d="M13.018 9.09731C12.4016 9.09731 11.8623 8.95944 11.4001 8.6837C10.9378 8.39985 10.5769 8.01868 10.3174 7.54019C10.066 7.0617 9.94027 6.53456 9.94027 5.95875C9.94027 5.37483 10.0619 4.84768 10.3052 4.37731C10.5485 3.89882 10.8972 3.5217 11.3514 3.24597C11.8056 2.96212 12.3408 2.82019 12.9572 2.82019C13.5816 2.82019 14.1169 2.96212 14.563 3.24597C15.0171 3.5217 15.3658 3.89882 15.6091 4.37731C15.8524 4.84768 15.9741 5.37483 15.9741 5.95875V6.3237H10.877C10.9256 6.68054 11.0392 7.00899 11.2176 7.30906C11.4041 7.60102 11.6515 7.83621 11.9597 8.01463C12.2678 8.18493 12.6247 8.27009 13.0302 8.27009C13.46 8.27009 13.8209 8.17682 14.1129 7.9903C14.4048 7.79566 14.6319 7.5483 14.7941 7.24823H15.7916C15.5808 7.7916 15.2442 8.23765 14.7819 8.58638C14.3278 8.927 13.7398 9.09731 13.018 9.09731ZM10.8891 5.47215H15.0252C14.9441 4.95311 14.7252 4.51923 14.3683 4.1705C14.0115 3.82177 13.5411 3.64741 12.9572 3.64741C12.3733 3.64741 11.9029 3.82177 11.546 4.1705C11.1973 4.51923 10.9783 4.95311 10.8891 5.47215ZM12.2638 2.06597L13.0058 0.788646H14.3075L13.0058 2.06597H12.2638Z" fill="black"/>
<path d="M20.6775 9.09731C20.0693 9.09731 19.5422 8.95944 19.0961 8.6837C18.6501 8.39985 18.3013 8.01868 18.0499 7.54019C17.8066 7.0617 17.685 6.53456 17.685 5.95875C17.685 5.37483 17.8066 4.84768 18.0499 4.37731C18.3013 3.89882 18.6501 3.5217 19.0961 3.24597C19.5422 2.96212 20.0693 2.82019 20.6775 2.82019C21.3993 2.82019 22.0116 3.00672 22.5145 3.37978C23.0254 3.75284 23.3701 4.23538 23.5485 4.82741H22.5631C22.4252 4.47868 22.2022 4.19483 21.894 3.97586C21.594 3.75689 21.229 3.64741 20.7992 3.64741C20.3532 3.64741 19.9639 3.75284 19.6314 3.9637C19.2989 4.17456 19.0434 4.45435 18.865 4.80308C18.6866 5.15181 18.5973 5.53703 18.5973 5.95875C18.5973 6.37236 18.6866 6.75758 18.865 7.11442C19.0434 7.46315 19.2989 7.74294 19.6314 7.9538C19.9639 8.16466 20.3532 8.27009 20.7992 8.27009C21.229 8.27009 21.594 8.1606 21.894 7.94164C22.2022 7.72267 22.4252 7.43882 22.5631 7.09009H23.5485C23.3701 7.68212 23.0254 8.16466 22.5145 8.53772C22.0116 8.91078 21.3993 9.09731 20.6775 9.09731Z" fill="black"/>
<path d="M28.2921 9.09731C27.6758 9.09731 27.1405 8.95944 26.6864 8.6837C26.2322 8.39985 25.8835 8.01868 25.6402 7.54019C25.3969 7.0617 25.2752 6.53456 25.2752 5.95875C25.2752 5.37483 25.3969 4.84768 25.6402 4.37731C25.8835 3.89882 26.2322 3.5217 26.6864 3.24597C27.1405 2.96212 27.6758 2.82019 28.2921 2.82019C28.9166 2.82019 29.4519 2.96212 29.8979 3.24597C30.3521 3.5217 30.7008 3.89882 30.9441 4.37731C31.1874 4.84768 31.309 5.37483 31.309 5.95875C31.309 6.53456 31.1874 7.0617 30.9441 7.54019C30.7008 8.01868 30.3521 8.39985 29.8979 8.6837C29.4519 8.95944 28.9166 9.09731 28.2921 9.09731ZM28.2921 8.27009C28.7463 8.27009 29.1275 8.16466 29.4356 7.9538C29.7519 7.74294 29.9912 7.46315 30.1534 7.11442C30.3156 6.75758 30.3967 6.37236 30.3967 5.95875C30.3967 5.53703 30.3156 5.15181 30.1534 4.80308C29.9912 4.45435 29.7519 4.17456 29.4356 3.9637C29.1275 3.75284 28.7463 3.64741 28.2921 3.64741C27.8461 3.64741 27.4649 3.75284 27.1486 3.9637C26.8323 4.17456 26.5931 4.45435 26.4309 4.80308C26.2687 5.15181 26.1876 5.53703 26.1876 5.95875C26.1876 6.37236 26.2687 6.75758 26.4309 7.11442C26.5931 7.46315 26.8323 7.74294 27.1486 7.9538C27.4649 8.16466 27.8461 8.27009 28.2921 8.27009Z" fill="black"/>
<path d="M35.8643 9.09731C35.4506 9.09731 35.0573 8.99999 34.6842 8.80535C34.3112 8.6026 34.0071 8.30658 33.7719 7.91731C33.5448 7.51992 33.4313 7.03332 33.4313 6.45751V2.91751H34.3436V6.43318C34.3436 6.98466 34.5018 7.43071 34.8181 7.77133C35.1425 8.10383 35.552 8.27009 36.0467 8.27009C36.3873 8.27009 36.6955 8.19304 36.9713 8.03896C37.247 7.87676 37.466 7.65779 37.6282 7.38205C37.7985 7.10631 37.8836 6.78597 37.8836 6.42102V2.91751H38.796V8.99999H37.8836V8.05112C37.6647 8.34308 37.397 8.59043 37.0807 8.79318C36.7645 8.99593 36.359 9.09731 35.8643 9.09731Z" fill="black"/>
<path d="M43.01 8.99999L40.6257 2.91751H41.6232L43.5453 8.02679L45.4552 2.91751H46.4527L44.0805 8.99999H43.01Z" fill="black"/>
<path d="M48.2806 8.99999V2.91751H49.1929V4.4138C49.2254 4.30837 49.2862 4.1705 49.3754 4.00019C49.4727 3.82177 49.6106 3.64335 49.789 3.46493C49.9675 3.28652 50.1905 3.13648 50.4581 3.01483C50.7338 2.88507 51.0582 2.82019 51.4313 2.82019H51.4921V3.73256H51.3826C50.9285 3.73256 50.5351 3.85827 50.2026 4.10968C49.8782 4.35298 49.6268 4.67332 49.4484 5.07071C49.2781 5.45999 49.1929 5.87765 49.1929 6.3237V8.99999H48.2806Z" fill="black"/>
<path d="M53.4109 1.89566V0.703491H54.3962V1.89566H53.4109ZM53.4474 8.99999V2.91751H54.3597V8.99999H53.4474Z" fill="black"/>
<path d="M56.9153 8.99999V2.91751H57.8277V4.4138C57.8601 4.30837 57.9209 4.1705 58.0102 4.00019C58.1075 3.82177 58.2453 3.64335 58.4238 3.46493C58.6022 3.28652 58.8252 3.13648 59.0928 3.01483C59.3686 2.88507 59.693 2.82019 60.066 2.82019H60.1269V3.73256H60.0174C59.5632 3.73256 59.1699 3.85827 58.8374 4.10968C58.513 4.35298 58.2616 4.67332 58.0831 5.07071C57.9128 5.45999 57.8277 5.87765 57.8277 6.3237V8.99999H56.9153Z" fill="black"/>
</svg>
