<svg width="137" height="23" viewBox="0 0 137 23" fill="none" xmlns="http://www.w3.org/2000/svg">
<path d="M0 10.7905C0.142146 9.94997 0.21631 9.09092 0.444979 8.27513C1.25459 5.34568 2.87382 2.98483 5.60549 1.53865C8.09614 0.222252 10.63 0.203709 13.1207 1.62517C13.5409 1.8662 13.9427 2.13813 14.3691 2.3668C15.1849 2.81178 15.7658 2.47804 15.8215 1.551C15.8276 1.42122 15.8338 1.28526 15.84 1.12457H16.5446V7.60148H15.8709C15.8153 7.23684 15.7782 6.87221 15.6979 6.51375C15.0675 3.67702 12.3234 1.10603 8.96137 1.32852C7.22472 1.44594 5.97631 2.34208 5.11107 3.81298C4.3818 5.04903 4.02953 6.40869 3.83794 7.81161C3.49185 10.2961 3.49185 12.7805 3.89356 15.2526C4.12841 16.7112 4.52395 18.1265 5.35828 19.381C6.31622 20.8272 7.65116 21.575 9.40635 21.5565C10.216 21.5441 11.0132 21.4823 11.7796 21.2228C13.0651 20.7901 13.8005 19.9002 13.887 18.5405C13.9427 17.6197 13.8994 16.6926 13.8994 15.7285H11.2666V15.0054H19.5976V15.71H17.3294C17.3294 15.8645 17.3294 15.9819 17.3294 16.1055C17.3294 17.0202 17.3294 17.941 17.3294 18.8557C17.3294 18.9731 17.2862 19.1338 17.2058 19.2018C15.6052 20.6109 13.8067 21.6677 11.6869 22.0695C9.36309 22.5083 7.08876 22.3908 4.95657 21.2598C2.63897 20.0238 1.26695 18.0276 0.580944 15.5431C0.315193 14.579 0.22867 13.5654 0.0618026 12.5704C0.0432618 12.4468 0.0247214 12.3294 0.00618063 12.2058C0.00618063 11.7299 0.00618063 11.2602 0.00618063 10.7843L0 10.7905Z" fill="white"/>
<path d="M136.089 11.2235C135.91 11.7117 135.638 12.1382 135.094 12.2618C134.501 12.4039 133.907 12.3977 133.475 11.8848C133.098 11.446 133.104 10.5622 133.444 10.0122C133.493 9.92564 133.555 9.84529 133.636 9.73405C133.277 9.69079 132.993 9.81439 132.727 9.98126C131.781 10.5498 131.231 11.4274 130.842 12.4286C130.521 13.2506 130.372 14.1158 130.36 14.9934C130.341 16.9711 130.36 18.9488 130.36 20.9265C130.36 20.9698 130.366 21.0068 130.379 21.0934H132.993V21.8412H132.628C130.311 21.8412 127.993 21.8412 125.675 21.8412C125.169 21.8412 125.199 21.9462 125.199 21.3653C125.199 21.2911 125.212 21.2231 125.218 21.1119H127.628V10.3583H125.212V9.61662C125.329 9.61662 125.441 9.61662 125.552 9.61662C126.466 9.61662 127.387 9.62281 128.302 9.60426C129.056 9.58572 129.779 9.46212 130.354 8.78229V11.687C130.379 11.6932 130.397 11.6994 130.422 11.7056C130.465 11.6128 130.508 11.514 130.558 11.4213C131.108 10.3088 131.856 9.40032 133.116 9.09748C133.574 8.98624 134.081 8.96152 134.55 9.0295C135.372 9.14692 135.873 9.67843 136.101 10.4757V11.2173L136.089 11.2235Z" fill="white"/>
<path d="M73.335 11.5137V1.61911H71.0298V0.877475C71.1596 0.877475 71.277 0.877475 71.3944 0.877475C72.2411 0.877475 73.0817 0.877476 73.9283 0.858935C74.7318 0.846575 75.492 0.698247 76.0544 -0.00012207V21.1055H78.0444V21.8224H73.3598V20.061C73.0817 20.3762 72.8653 20.6605 72.612 20.9077C71.1163 22.3477 69.355 22.4898 67.5071 21.81C65.3501 21.0189 64.1265 19.375 63.6197 17.1748C62.878 13.9796 64.6889 10.9328 66.716 9.7276C68.9656 8.38649 71.6726 8.77584 73.1805 11.2974C73.2176 11.353 73.2547 11.4086 73.3289 11.5137H73.335ZM66.5491 15.6607C66.5491 16.1551 66.5368 16.6495 66.5491 17.1439C66.58 18.0586 66.6295 18.9733 66.9261 19.857C67.1548 20.5369 67.5627 21.0622 68.2734 21.2723C70.6837 21.9954 72.8653 20.5307 73.2114 18.4232C73.4957 16.6742 73.5081 14.8819 73.1929 13.1329C72.921 11.6188 72.0186 10.4383 70.5107 9.91301C68.9903 9.38769 67.2969 9.67816 66.8087 11.8165C66.8025 11.8474 66.7963 11.8783 66.7901 11.9092C66.512 13.1453 66.5244 14.3999 66.5368 15.6607H66.5491Z" fill="white"/>
<path d="M98.9399 1.27871H99.6135V7.61965H98.9461C98.8657 7.11287 98.8039 6.60609 98.6927 6.11167C98.3713 4.65931 97.7533 3.36146 96.5358 2.43442C95.1205 1.35287 93.5074 1.07476 91.8017 1.48266C90.1639 1.87819 89.0886 3.27493 88.9959 5.02394C88.9711 5.506 88.9959 5.99425 89.0453 6.47013C89.1318 7.24884 89.5459 7.8236 90.2319 8.20678C91.1157 8.69502 92.0922 8.90514 93.0686 9.12145C94.4221 9.43047 95.7818 9.69622 97.1229 10.0609C98.087 10.3204 98.9461 10.821 99.6197 11.5812C100.349 12.4032 100.652 13.392 100.751 14.4612C100.887 15.9383 100.782 17.3845 100.176 18.7565C99.2736 20.8145 97.6482 21.9084 95.4542 22.2174C93.7176 22.4584 92.0798 22.1185 90.5038 21.3893C90.0836 21.1977 89.6633 20.9999 89.2245 20.8578C88.5694 20.6476 88.2975 20.8392 88.2295 21.5129C88.2171 21.655 88.2048 21.7972 88.1924 21.9702H87.5064V14.387H88.1677C88.2357 15.0545 88.2728 15.7096 88.3778 16.3585C88.8104 19.0964 90.5718 20.9443 93.2232 21.4449C94.3356 21.655 95.4357 21.6118 96.5049 21.1853C98.1797 20.5178 99.1871 19.016 99.1377 17.2114C99.1253 16.8221 99.082 16.4327 99.014 16.0495C98.8101 14.9124 98.1365 14.1522 97.0982 13.6887C96.0599 13.2251 94.9413 13.1015 93.8474 12.8791C92.7596 12.6566 91.6719 12.4279 90.6213 12.088C88.8661 11.5194 87.9081 10.2401 87.6362 8.42927C87.4322 7.07579 87.3766 5.72231 87.7845 4.39356C88.5323 1.9709 90.646 0.512358 93.2541 0.580341C94.521 0.611242 95.6767 0.988236 96.7459 1.6557C97.0487 1.84729 97.3577 2.03888 97.6791 2.19957C98.2971 2.51476 98.6494 2.35407 98.8286 1.69279C98.8657 1.55682 98.9028 1.41467 98.9399 1.27253V1.27871Z" fill="white"/>
<path d="M51.0796 21.0984H53.2613V21.8153H46.0613V21.0984H48.3233V10.3571H46.0613V9.61544C46.1663 9.61544 46.2776 9.61544 46.3827 9.61544C47.2602 9.61544 48.1317 9.61544 49.0093 9.61544C49.7756 9.61544 50.5358 9.5969 51.0364 8.83673V11.5622C51.0611 11.5746 51.0796 11.5808 51.1044 11.5931C51.1847 11.4819 51.2589 11.3706 51.3392 11.2656C52.0994 10.2211 53.0264 9.39295 54.3181 9.10248C55.48 8.84291 56.6357 8.93561 57.7296 9.43003C58.8482 9.93063 59.3859 10.8639 59.4354 12.0505C59.4848 13.1938 59.4539 14.3372 59.4539 15.4805C59.4539 17.2233 59.4539 18.96 59.4539 20.7028C59.4539 22.4457 59.4539 20.9439 59.4539 21.1045H61.7406V21.8276H54.4603V21.1169H56.7037C56.7222 21.0427 56.7346 21.0057 56.7346 20.9686C56.7346 17.7857 56.7346 14.6029 56.7222 11.4201C56.7222 11.179 56.6604 10.9257 56.5863 10.697C56.3514 10.011 55.7705 9.67107 55.0165 9.71433C53.7681 9.78849 52.8472 10.4436 52.1179 11.3892C51.7471 11.8651 51.4566 12.4027 51.1415 12.9219C51.0858 13.0146 51.0549 13.132 51.0549 13.2433C51.0549 15.8204 51.0549 18.3914 51.0549 20.9686C51.0549 20.9995 51.0673 21.0304 51.0796 21.1107V21.0984Z" fill="white"/>
<path d="M40.2831 20.5119C39.5476 21.4019 38.6206 21.8963 37.5205 22.0694C36.5564 22.2177 35.5923 22.261 34.6405 21.9952C33.491 21.68 32.6875 20.9878 32.4156 19.795C32.1313 18.5404 32.4033 17.4156 33.3736 16.5257C34.3377 15.6357 35.5366 15.2155 36.7974 15.0053C37.7801 14.8446 38.7813 14.8076 39.7701 14.7149C39.9123 14.7025 40.0544 14.7149 40.2275 14.7149V14.344C40.2275 13.4294 40.2275 12.5085 40.2275 11.5938C40.2275 10.4381 39.8196 9.93134 38.6762 9.75829C37.7615 9.61614 36.8716 9.73357 36.0187 10.1044C35.8704 10.1662 35.7282 10.2589 35.5984 10.3578C35.1658 10.7039 35.1658 11.1179 35.6355 11.3899C36.3463 11.804 36.371 12.9597 35.9693 13.4417C35.6046 13.8743 34.9681 14.0906 34.3809 13.9361C33.8556 13.8002 33.4724 13.3119 33.3859 12.6816C33.2314 11.5753 33.664 10.71 34.5045 10.024C35.2462 9.41837 36.1176 9.1279 37.0508 9.01666C38.5402 8.84361 39.9679 9.05374 41.2781 9.82009C42.3967 10.4752 42.9777 11.4331 42.9591 12.7619C42.9282 15.1907 42.953 17.6196 42.953 20.0546C42.953 20.2091 42.953 20.3636 42.9715 20.5181C43.0518 21.1979 43.5895 21.4637 44.1766 21.1176C44.3682 21.0064 44.5351 20.8395 44.6834 20.6726C44.8565 20.481 44.9986 20.2709 45.1717 20.0422C45.3385 20.1658 45.5054 20.2833 45.697 20.4131C45.1778 21.371 44.4609 22.0446 43.3423 22.1373C42.0136 22.2424 40.9258 21.8407 40.2954 20.4934L40.2831 20.5119ZM40.2213 15.4503C39.047 15.4503 37.9037 15.3947 36.8098 15.8273C36.0187 16.1425 35.4996 16.7111 35.3142 17.5454C35.1287 18.3736 35.1596 19.2017 35.3698 20.0237C35.5243 20.617 35.9075 21.0311 36.5193 21.1423C37.8233 21.3772 38.9543 21.062 39.801 19.999C39.9988 19.7518 40.1842 19.418 40.1966 19.1152C40.2398 17.9162 40.2151 16.7111 40.2151 15.4503H40.2213Z" fill="white"/>
<path d="M109.978 8.97321C112.19 9.04737 114.087 10.2896 115.206 12.669C116.535 15.4934 115.738 18.9481 113.408 20.8517C111.022 22.7984 106.943 22.6872 104.724 19.8937C102.314 16.853 102.895 12.2735 106.01 10.0548C107.067 9.30076 108.259 8.97321 109.978 8.97321ZM112.845 15.6046C112.827 15.6046 112.808 15.6046 112.796 15.6046C112.796 15.0669 112.802 14.5354 112.796 13.9978C112.783 13.1511 112.752 12.3105 112.493 11.4948C112.215 10.6357 111.652 10.0733 110.769 9.8508C110.058 9.67158 109.347 9.67158 108.624 9.789C107.561 9.96205 106.869 10.5615 106.578 11.5936C106.473 11.9644 106.381 12.36 106.374 12.7432C106.337 14.3191 106.319 15.8889 106.319 17.4649C106.319 17.9593 106.368 18.4537 106.436 18.942C106.628 20.3016 107.308 21.0989 108.482 21.3461C109.186 21.4944 109.891 21.4944 110.596 21.3461C111.461 21.173 112.104 20.6972 112.419 19.8505C112.536 19.5353 112.641 19.2015 112.666 18.8678C112.746 17.7801 112.79 16.6923 112.845 15.6046Z" fill="white"/>
<path d="M22.558 21.1119V10.3644H20.1539V9.61662C20.2713 9.61662 20.3764 9.61662 20.4876 9.61662C21.4023 9.61662 22.3231 9.62281 23.2378 9.60426C23.9794 9.58572 24.7025 9.4683 25.2711 8.78229V11.6994C25.2958 11.6994 25.3144 11.7117 25.3391 11.7179C25.3824 11.6314 25.4256 11.551 25.4689 11.4645C25.8644 10.6425 26.3774 9.91946 27.187 9.44976C27.9595 9.00478 28.7877 8.85027 29.6529 9.07276C30.753 9.35087 31.3401 10.5375 30.8952 11.5201C30.5861 12.2 29.8383 12.4966 29.004 12.2741C28.4107 12.1196 28.0584 11.5758 28.1511 10.8527C28.2006 10.4757 28.3551 10.1172 28.4725 9.70933C28.2933 9.75877 28.0584 9.78967 27.8483 9.88856C27.0325 10.2779 26.501 10.9516 26.0869 11.7303C25.5183 12.7871 25.302 13.9366 25.2835 15.1232C25.2588 17.0577 25.2835 18.9983 25.2835 20.9327C25.2835 20.9759 25.2897 21.013 25.302 21.0995H27.9225V21.8288H20.16V21.1243H22.558V21.1119Z" fill="white"/>
<path d="M122.245 8.76361V21.0932H124.563V21.8163H117.215V21.1118H119.514V10.3705H117.221V9.61649C117.363 9.61649 117.505 9.61649 117.647 9.61649C118.513 9.61649 119.378 9.62885 120.243 9.60413C120.978 9.58559 121.683 9.44962 122.252 8.76361H122.245Z" fill="white"/>
<path d="M122.499 3.85079C122.499 4.76547 121.794 5.48238 120.88 5.48238C119.983 5.48238 119.273 4.76547 119.267 3.87551C119.267 2.96084 119.971 2.25629 120.886 2.25629C121.794 2.25629 122.493 2.94848 122.493 3.85697L122.499 3.85079Z" fill="white"/>
</svg>
