<svg width="66" height="10" viewBox="0 0 66 10" fill="none" xmlns="http://www.w3.org/2000/svg">
<path d="M0.985352 9.00008V0.946887H6.90968V1.82276H1.89772V4.52338H6.37442V5.41142H1.89772V8.12421H6.90968V9.00008H0.985352Z" fill="black"/>
<path d="M9.16504 9.00008V2.91761H10.0774V3.86647C10.2964 3.57452 10.564 3.32716 10.8803 3.12441C11.1966 2.92166 11.6021 2.82029 12.0968 2.82029C12.5185 2.82029 12.9118 2.92166 13.2768 3.12441C13.6499 3.31905 13.9499 3.61507 14.177 4.01245C14.4122 4.40173 14.5298 4.88428 14.5298 5.46008V9.00008H13.6174V5.48441C13.6174 4.93294 13.4593 4.49094 13.143 4.15843C12.8267 3.81781 12.4171 3.64751 11.9143 3.64751C11.5737 3.64751 11.2655 3.72455 10.9898 3.87864C10.714 4.03273 10.491 4.2517 10.3207 4.53555C10.1585 4.81129 10.0774 5.13163 10.0774 5.49658V9.00008H9.16504Z" fill="black"/>
<path d="M17.5429 9.00008V3.7205H16.3021V2.91761H17.5429V0.740083H18.4553V2.91761H19.8542V3.7205H18.4553V9.00008H17.5429Z" fill="black"/>
<path d="M24.275 9.0974C23.683 9.0974 23.164 8.95953 22.7179 8.68379C22.28 8.39995 21.9394 8.01878 21.6961 7.54029C21.4528 7.0618 21.3311 6.53465 21.3311 5.95885C21.3311 5.37493 21.4528 4.84778 21.6961 4.3774C21.9394 3.89891 22.28 3.5218 22.7179 3.24606C23.164 2.96221 23.683 2.82029 24.275 2.82029C24.7779 2.82029 25.2077 2.91761 25.5645 3.11225C25.9295 3.30689 26.2255 3.57046 26.4526 3.90297V0.484619H27.3649V9.00008H26.4526V8.02689C26.2255 8.35129 25.9295 8.6108 25.5645 8.80544C25.2077 9.00008 24.7779 9.0974 24.275 9.0974ZM24.3967 8.27019C24.8509 8.27019 25.232 8.16476 25.5402 7.9539C25.8565 7.74304 26.0957 7.46324 26.2579 7.11452C26.4201 6.75768 26.5012 6.37245 26.5012 5.95885C26.5012 5.53713 26.4201 5.1519 26.2579 4.80318C26.0957 4.45445 25.8565 4.17465 25.5402 3.96379C25.232 3.75294 24.8509 3.64751 24.3967 3.64751C23.9506 3.64751 23.5654 3.75294 23.241 3.96379C22.9166 4.17465 22.6693 4.45445 22.499 4.80318C22.3287 5.1519 22.2435 5.53713 22.2435 5.95885C22.2435 6.37245 22.3287 6.75768 22.499 7.11452C22.6693 7.46324 22.9166 7.74304 23.241 7.9539C23.5654 8.16476 23.9506 8.27019 24.3967 8.27019Z" fill="black"/>
<path d="M32.6169 9.0974C32.0005 9.0974 31.4612 8.95953 30.9989 8.68379C30.5367 8.39995 30.1758 8.01878 29.9163 7.54029C29.6648 7.0618 29.5391 6.53465 29.5391 5.95885C29.5391 5.37493 29.6608 4.84778 29.9041 4.3774C30.1474 3.89891 30.4961 3.5218 30.9503 3.24606C31.4044 2.96221 31.9397 2.82029 32.5561 2.82029C33.1805 2.82029 33.7158 2.96221 34.1618 3.24606C34.616 3.5218 34.9647 3.89891 35.208 4.3774C35.4513 4.84778 35.573 5.37493 35.573 5.95885V6.32379H30.4758C30.5245 6.68063 30.638 7.00909 30.8165 7.30915C31.003 7.60111 31.2503 7.8363 31.5585 8.01472C31.8667 8.18503 32.2235 8.27019 32.629 8.27019C33.0589 8.27019 33.4198 8.17692 33.7117 7.99039C34.0037 7.79575 34.2308 7.5484 34.393 7.24833H35.3905C35.1796 7.7917 34.8431 8.23775 34.3808 8.58647C33.9266 8.92709 33.3387 9.0974 32.6169 9.0974ZM30.488 5.47225H34.6241C34.543 4.95321 34.324 4.51933 33.9672 4.1706C33.6103 3.82187 33.14 3.64751 32.5561 3.64751C31.9721 3.64751 31.5018 3.82187 31.1449 4.1706C30.7962 4.51933 30.5772 4.95321 30.488 5.47225Z" fill="black"/>
<path d="M40.2764 9.0974C39.6682 9.0974 39.141 8.95953 38.695 8.68379C38.2489 8.39995 37.9002 8.01878 37.6488 7.54029C37.4055 7.0618 37.2838 6.53465 37.2838 5.95885C37.2838 5.37493 37.4055 4.84778 37.6488 4.3774C37.9002 3.89891 38.2489 3.5218 38.695 3.24606C39.141 2.96221 39.6682 2.82029 40.2764 2.82029C40.9982 2.82029 41.6105 3.00682 42.1133 3.37988C42.6243 3.75294 42.9689 4.23548 43.1474 4.82751H42.162C42.0241 4.47878 41.8011 4.19493 41.4929 3.97596C41.1929 3.75699 40.8279 3.64751 40.3981 3.64751C39.952 3.64751 39.5627 3.75294 39.2302 3.96379C38.8977 4.17465 38.6423 4.45445 38.4638 4.80318C38.2854 5.1519 38.1962 5.53713 38.1962 5.95885C38.1962 6.37245 38.2854 6.75768 38.4638 7.11452C38.6423 7.46324 38.8977 7.74304 39.2302 7.9539C39.5627 8.16476 39.952 8.27019 40.3981 8.27019C40.8279 8.27019 41.1929 8.1607 41.4929 7.94173C41.8011 7.72276 42.0241 7.43891 42.162 7.09019H43.1474C42.9689 7.68221 42.6243 8.16476 42.1133 8.53782C41.6105 8.91087 40.9982 9.0974 40.2764 9.0974Z" fill="black"/>
<path d="M45.2512 9.00008V0.484619H46.1636V5.93452L49.0953 2.91761H50.3727L47.9275 5.3141L50.5551 9.00008H49.436L47.3071 5.94668L46.1636 7.07802V9.00008H45.2512Z" fill="black"/>
<path d="M54.7224 9.0974C54.106 9.0974 53.5667 8.95953 53.1045 8.68379C52.6422 8.39995 52.2813 8.01878 52.0218 7.54029C51.7704 7.0618 51.6447 6.53465 51.6447 5.95885C51.6447 5.37493 51.7663 4.84778 52.0096 4.3774C52.2529 3.89891 52.6016 3.5218 53.0558 3.24606C53.51 2.96221 54.0452 2.82029 54.6616 2.82029C55.286 2.82029 55.8213 2.96221 56.2673 3.24606C56.7215 3.5218 57.0702 3.89891 57.3135 4.3774C57.5568 4.84778 57.6785 5.37493 57.6785 5.95885V6.32379H52.5814C52.63 6.68063 52.7436 7.00909 52.922 7.30915C53.1085 7.60111 53.3559 7.8363 53.664 8.01472C53.9722 8.18503 54.3291 8.27019 54.7346 8.27019C55.1644 8.27019 55.5253 8.17692 55.8172 7.99039C56.1092 7.79575 56.3363 7.5484 56.4985 7.24833H57.496C57.2851 7.7917 56.9486 8.23775 56.4863 8.58647C56.0322 8.92709 55.4442 9.0974 54.7224 9.0974ZM52.5935 5.47225H56.7296C56.6485 4.95321 56.4295 4.51933 56.0727 4.1706C55.7159 3.82187 55.2455 3.64751 54.6616 3.64751C54.0777 3.64751 53.6073 3.82187 53.2504 4.1706C52.9017 4.51933 52.6827 4.95321 52.5935 5.47225Z" fill="black"/>
<path d="M59.7665 9.00008V2.91761H60.6788V3.86647C60.8978 3.57452 61.1654 3.32716 61.4817 3.12441C61.798 2.92166 62.2035 2.82029 62.6982 2.82029C63.1199 2.82029 63.5133 2.92166 63.8782 3.12441C64.2513 3.31905 64.5514 3.61507 64.7784 4.01245C65.0136 4.40173 65.1312 4.88428 65.1312 5.46008V9.00008H64.2188V5.48441C64.2188 4.93294 64.0607 4.49094 63.7444 4.15843C63.4281 3.81781 63.0186 3.64751 62.5158 3.64751C62.1751 3.64751 61.867 3.72455 61.5912 3.87864C61.3155 4.03273 61.0925 4.2517 60.9221 4.53555C60.7599 4.81129 60.6788 5.13163 60.6788 5.49658V9.00008H59.7665Z" fill="black"/>
</svg>
