<svg width="133" height="37" viewBox="0 0 133 37" fill="none" xmlns="http://www.w3.org/2000/svg">
<path d="M1.09661 0.722343H18.2723C33.0402 0.722343 38.819 9.39046 38.819 18.5669C38.819 27.9038 31.4083 36.2241 17.3092 36.2241H1.12337C0.82908 36.2241 0.722066 36.0369 0.722066 35.8764C0.722066 35.6891 0.90934 35.5286 1.17687 35.5286H4.20001C5.13638 35.5286 5.75171 34.9667 5.75171 33.9234V3.07664C5.75171 2.3008 5.37716 1.44469 4.14651 1.44469H1.06986C0.82908 1.44469 0.695312 1.28416 0.695312 1.09689C0.695312 0.93637 0.748819 0.722343 1.09661 0.722343ZM11.8247 34.5654C11.8247 35.3413 12.1725 35.5821 12.6809 35.5821H17.2289C28.4386 35.5821 32.5051 26.9942 32.5051 18.3796C32.5051 9.765 28.1978 1.41793 18.7271 1.41793H12.5471C11.905 1.41793 11.8515 1.953 11.8515 2.19378L11.8247 34.5654ZM40.5312 0.722343C40.2636 0.722343 40.0229 0.829356 40.0229 1.04338C40.0229 1.25741 40.1566 1.39118 40.3974 1.39118H43.4205C44.1161 1.39118 44.785 1.87274 44.785 3.21041V33.9501C44.785 34.5922 44.3034 35.5553 43.4473 35.5553H40.4509C40.1031 35.5553 40.0764 35.8228 40.0764 35.9299C40.0764 36.0369 40.0496 36.2241 40.4509 36.2241H55.0048C55.2188 36.2241 55.5131 36.1974 55.5131 35.9834C55.5131 35.7693 55.4596 35.5553 55.085 35.5553H52.2759C51.8746 35.5553 50.7777 35.3145 50.7777 34.0839V2.88937C50.7777 2.00651 51.3396 1.41793 52.3562 1.41793H55.1118C55.3526 1.41793 55.4863 1.28416 55.4863 1.09689C55.4863 0.909617 55.3526 0.749096 55.0315 0.749096H40.5312V0.722343ZM63.2716 18.4866C63.2716 8.66811 67.6592 0.722343 75.8992 0.722343C83.9788 0.722343 88.5268 8.66811 88.5268 18.4866C88.5268 28.3051 84.3801 36.2509 75.8992 36.2509C67.6859 36.2777 63.2716 28.3051 63.2716 18.4866ZM75.8992 37C87.6172 37 95.0012 28.7064 95.0012 18.5134C95.0012 8.32032 87.6975 0 75.8992 0C64.1277 0 56.7973 8.29356 56.7973 18.4866C56.7973 28.6797 64.422 37 75.8992 37ZM132.456 36.0101C127.854 36.4917 125.313 28.9472 122.985 25.3623C121.246 22.7137 117.554 20.0116 113.916 19.4765C119.909 19.1287 126.624 17.2025 126.624 10.4071C126.624 4.89588 123.226 0.722343 110.759 0.722343H96.3923C96.2051 0.722343 96.0178 0.829356 96.0178 1.04338C96.0178 1.25741 96.2051 1.39118 96.3923 1.39118H99.683C100.379 1.39118 101.047 1.87274 101.047 3.21041V33.9501C101.047 34.5922 100.566 35.5553 99.7098 35.5553H96.4726C96.2051 35.5553 96.0981 35.7693 96.0981 35.8764C96.0981 35.9834 96.2051 36.2241 96.4726 36.2241H111.722C111.936 36.2241 112.123 36.1171 112.123 35.9031C112.123 35.6891 111.99 35.5553 111.695 35.5553H108.619C108.217 35.5553 107.12 35.2878 107.12 34.0839V19.5568H108.699C116.243 19.5568 116.805 27.7433 120.551 32.4252C123.761 36.4382 127.961 36.9465 130.342 36.9465C131.359 36.9465 132.055 36.9197 132.697 36.7592C133.098 36.6255 133.178 35.9299 132.456 36.0101ZM108.645 1.39118H110.866C114.665 1.39118 120.818 2.88937 120.818 10.0593C120.818 16.6406 115.361 18.8612 110.304 18.8612H107.067V2.88937C107.067 1.97975 107.629 1.39118 108.645 1.39118Z" fill="black"/>
</svg>
