<svg width="41" height="8" viewBox="0 0 41 8" fill="none" xmlns="http://www.w3.org/2000/svg">
<path d="M3.27863 7.07167C2.77687 7.07167 2.31095 6.9522 1.88087 6.71327C1.45079 6.46836 1.10433 6.10399 0.841506 5.62015C0.578679 5.13631 0.447266 4.55092 0.447266 3.86399C0.447266 3.17706 0.578679 2.59167 0.841506 2.10783C1.10433 1.62399 1.45079 1.2626 1.88087 1.02367C2.31095 0.778764 2.77687 0.656311 3.27863 0.656311C3.89985 0.656311 4.42252 0.817591 4.84663 1.14015C5.27073 1.46271 5.56343 1.91071 5.72471 2.48415L4.98999 2.68127C4.86455 2.26911 4.65847 1.94954 4.37175 1.72255C4.091 1.49556 3.72663 1.38207 3.27863 1.38207C2.89036 1.38207 2.54092 1.47764 2.23031 1.66879C1.92567 1.85994 1.68673 2.14068 1.51351 2.51103C1.34028 2.88138 1.25367 3.33236 1.25367 3.86399C1.25367 4.39562 1.34028 4.8466 1.51351 5.21695C1.68673 5.5873 1.92567 5.86804 2.23031 6.05919C2.54092 6.25034 2.89036 6.34591 3.27863 6.34591C3.72663 6.34591 4.091 6.23242 4.37175 6.00543C4.65847 5.77844 4.86455 5.45887 4.98999 5.04671L5.72471 5.24383C5.56343 5.81727 5.27073 6.26527 4.84663 6.58783C4.42252 6.91039 3.89985 7.07167 3.27863 7.07167Z" fill="white"/>
<path d="M9.41217 7.07167C8.89846 7.07167 8.42657 6.94623 7.99649 6.69535C7.56641 6.4385 7.22294 6.06815 6.96609 5.58431C6.71521 5.10047 6.58977 4.52703 6.58977 3.86399C6.58977 3.20095 6.71521 2.62751 6.96609 2.14367C7.22294 1.65983 7.56641 1.29247 7.99649 1.04159C8.42657 0.784738 8.89846 0.656311 9.41217 0.656311C9.9199 0.656311 10.3888 0.784738 10.8189 1.04159C11.249 1.29247 11.5894 1.65983 11.8403 2.14367C12.0972 2.62751 12.2256 3.20095 12.2256 3.86399C12.2256 4.52703 12.0972 5.10047 11.8403 5.58431C11.5894 6.06815 11.249 6.4385 10.8189 6.69535C10.3888 6.94623 9.9199 7.07167 9.41217 7.07167ZM9.41217 6.34591C9.78849 6.34591 10.129 6.25332 10.4336 6.06815C10.7382 5.88298 10.9802 5.60522 11.1594 5.23487C11.3386 4.85855 11.4282 4.40159 11.4282 3.86399C11.4282 3.32639 11.3386 2.87242 11.1594 2.50207C10.9802 2.12575 10.7382 1.845 10.4336 1.65983C10.129 1.47466 9.78849 1.38207 9.41217 1.38207C9.03585 1.38207 8.69537 1.47466 8.39073 1.65983C8.08609 1.845 7.84417 2.12575 7.66497 2.50207C7.48577 2.87242 7.39617 3.32639 7.39617 3.86399C7.39617 4.40159 7.48577 4.85855 7.66497 5.23487C7.84417 5.60522 8.08609 5.88298 8.39073 6.06815C8.69537 6.25332 9.03585 6.34591 9.41217 6.34591Z" fill="white"/>
<path d="M13.4488 0.727991H14.3717L16.1099 5.19007L17.8481 0.727991H18.7621V6.99999H17.9915V2.27807L16.3697 6.42655H15.8411L14.2283 2.27807V6.99999H13.4488V0.727991Z" fill="white"/>
<path d="M20.3175 0.727991H22.5217C23.1131 0.727991 23.57 0.889271 23.8926 1.21183C24.2211 1.52842 24.3854 1.96148 24.3854 2.51103C24.3854 3.06655 24.2211 3.50559 23.8926 3.82815C23.57 4.14474 23.1131 4.30303 22.5217 4.30303H21.0971V6.99999H20.3175V0.727991ZM22.5127 3.57727C22.8771 3.57727 23.1459 3.48468 23.3191 3.29951C23.4924 3.10836 23.579 2.84554 23.579 2.51103C23.579 2.1825 23.4924 1.92564 23.3191 1.74047C23.1459 1.54932 22.8771 1.45375 22.5127 1.45375H21.0971V3.57727H22.5127Z" fill="white"/>
<path d="M25.5238 0.727991H27.6294C28.2088 0.727991 28.6568 0.871351 28.9734 1.15807C29.2959 1.44479 29.4572 1.85098 29.4572 2.37663C29.4572 2.81866 29.3437 3.17706 29.1167 3.45183C28.8898 3.72063 28.5672 3.89684 28.1491 3.98047L30.0307 6.99999H29.1615L27.2889 4.02527H26.3033V6.99999H25.5238V0.727991ZM27.6025 3.29951C27.9549 3.29951 28.2207 3.22484 28.3999 3.07551C28.5791 2.92618 28.6687 2.69322 28.6687 2.37663C28.6687 1.76138 28.3133 1.45375 27.6025 1.45375H26.3033V3.29951H27.6025Z" fill="white"/>
<path d="M32.6212 0.727991H33.3559L35.569 6.99999H34.7536L34.1802 5.31551H31.7968L31.2234 6.99999H30.3991L32.6212 0.727991ZM33.9472 4.58975L32.9885 1.77631L32.0298 4.58975H33.9472Z" fill="white"/>
<path d="M36.4525 0.727991H38.5581C39.1375 0.727991 39.5856 0.871351 39.9021 1.15807C40.2247 1.44479 40.386 1.85098 40.386 2.37663C40.386 2.81866 40.2725 3.17706 40.0455 3.45183C39.8185 3.72063 39.4959 3.89684 39.0778 3.98047L40.9594 6.99999H40.0903L38.2177 4.02527H37.2321V6.99999H36.4525V0.727991ZM38.5313 3.29951C38.8837 3.29951 39.1495 3.22484 39.3287 3.07551C39.5079 2.92618 39.5975 2.69322 39.5975 2.37663C39.5975 1.76138 39.2421 1.45375 38.5313 1.45375H37.2321V3.29951H38.5313Z" fill="white"/>
</svg>
