<svg width="59" height="9" viewBox="0 0 59 9" fill="none" xmlns="http://www.w3.org/2000/svg">
<path d="M0.0339966 7.99998V0.431985H2.564C4.874 0.431985 6.139 1.90598 6.139 4.21598C6.139 6.52599 4.874 7.99998 2.564 7.99998H0.0339966ZM1.002 7.18598H2.388C4.17 7.18598 5.138 6.17398 5.138 4.21598C5.138 2.25798 4.17 1.24598 2.388 1.24598H1.002V7.18598Z" fill="#53545C"/>
<path d="M8.24318 7.99998V0.431985H12.8852L12.7312 1.26798H9.21118V3.45698H12.3352V4.29298H9.21118V7.16398H12.8852L13.0392 7.99998H8.24318Z" fill="#53545C"/>
<path d="M17.2569 8.16498C15.8049 8.16498 14.7709 7.27399 14.3309 6.10799L15.1449 5.64598C15.5629 6.74598 16.3769 7.32898 17.2789 7.32898C18.1809 7.32898 18.7969 6.78998 18.7969 6.01998C18.7969 5.24998 18.2689 4.89798 17.4769 4.63398L16.5529 4.32598C15.6289 4.01798 14.6169 3.47898 14.6169 2.26898C14.6169 1.05898 15.6069 0.277985 16.9929 0.277985C18.3789 0.277985 19.2369 1.15798 19.5229 1.81798L18.8189 2.34598C18.5329 1.68598 17.8509 1.10298 16.9929 1.10298C16.1349 1.10298 15.6069 1.53198 15.6069 2.21398C15.6069 2.89598 16.2009 3.18198 16.8609 3.40198L17.7849 3.70998C18.6759 4.00698 19.7979 4.58999 19.7979 5.93198C19.7979 7.27399 18.7089 8.16498 17.2569 8.16498Z" fill="#53545C"/>
<path d="M24.6073 8.15399C22.5833 8.15399 21.3623 6.54799 21.3623 4.21598C21.3623 1.88398 22.6273 0.277985 24.6513 0.277985C26.6753 0.277985 27.3573 1.88398 27.4453 2.36798L26.5873 2.71998C26.4883 2.18098 26.0153 1.11398 24.6293 1.11398C23.2433 1.11398 22.3633 2.32398 22.3633 4.21598C22.3633 6.10798 23.2433 7.29598 24.6293 7.29598C26.0153 7.29598 26.5213 6.28398 26.6643 5.65698L27.5223 6.00898C27.3793 6.63598 26.6313 8.15399 24.6073 8.15399Z" fill="#53545C"/>
<path d="M32.4763 8.15399C30.6283 8.15399 29.5723 7.14198 29.5723 5.27198V0.431985H30.5403V5.20598C30.5403 6.52598 31.1563 7.27398 32.4763 7.27398C33.7963 7.27398 34.4123 6.52598 34.4123 5.20598V0.431985H35.3803V5.27198C35.3803 7.14198 34.3243 8.15399 32.4763 8.15399Z" fill="#53545C"/>
<path d="M37.9754 7.99998V0.431985H40.5274C41.9794 0.431985 43.0464 0.981985 43.0464 2.27998C43.0464 3.57798 41.9134 3.79798 41.5834 3.84198V3.86398C42.3534 3.90798 43.4534 4.41398 43.4534 5.82198C43.4534 7.22998 42.3754 7.99998 40.8794 7.99998H37.9754ZM38.9434 3.48998H40.3734C41.3634 3.48998 42.0564 3.26998 42.0564 2.36798C42.0564 1.46598 41.3634 1.24598 40.3734 1.24598H38.9434V3.48998ZM38.9434 7.18598H40.5274C41.6274 7.18598 42.4524 6.83398 42.4524 5.73398C42.4524 4.63398 41.6274 4.30398 40.5274 4.30398H38.9434V7.18598Z" fill="#53545C"/>
<path d="M45.6045 7.99998V0.431985H48.4095C49.9495 0.431985 50.9505 1.12498 50.9505 2.45598C50.9505 3.78698 49.9605 4.28198 49.1685 4.41398L51.3905 7.99998H50.2465L48.1125 4.47998H46.5725V7.99998H45.6045ZM46.5725 3.66598H48.3985C49.3005 3.66598 49.9605 3.35798 49.9605 2.45598C49.9605 1.54298 49.3005 1.24598 48.3985 1.24598H46.5725V3.66598Z" fill="#53545C"/>
<path d="M53.3733 7.99998V0.431985H58.0153L57.8613 1.26798H54.3413V3.45698H57.4653V4.29298H54.3413V7.16398H58.0153L58.1693 7.99998H53.3733Z" fill="#53545C"/>
</svg>
