<?xml version="1.0" encoding="UTF-8"?>
<svg id="Layer_1" xmlns="http://www.w3.org/2000/svg" version="1.1" viewBox="0 0 66.9 15.8">
  <!-- Generator: Adobe Illustrator 29.7.1, SVG Export Plug-In . SVG Version: 2.1.1 Build 8)  -->
  <defs>
    <style>
      .st0 {
        fill-rule: evenodd;
      }

      .st1 {
        fill: #fff;
      }
    </style>
  </defs>
  <g id="Rectangle_2">
    <g id="Rectangle_2-2">
      <path class="st0" d="M59.2,0H7.7C3.5,0,0,3.5,0,7.7v.4c0,4.2,3.4,7.7,7.7,7.7h51.5c4.2,0,7.7-3.4,7.7-7.7v-.4c0-4.3-3.4-7.7-7.7-7.7Z"/>
    </g>
  </g>
  <g>
    <path class="st1" d="M25.49,7.9c0,1.37-1.05,2.4-2.43,2.4s-2.43-1.03-2.43-2.4,1.05-2.4,2.43-2.4,2.43,1.03,2.43,2.4ZM24.73,7.9c0-1-.74-1.7-1.66-1.7s-1.66.69-1.66,1.7.74,1.7,1.66,1.7,1.66-.69,1.66-1.7Z"/>
    <path class="st1" d="M30.42,7.9c0,.76-.32,1.38-.78,1.75-.47.37-1.05.54-1.78.54h-1.51v-4.59h1.51c.73,0,1.31.18,1.78.54.46.37.78.99.78,1.75ZM29.66,7.9c0-.56-.22-1-.54-1.25-.32-.25-.73-.36-1.29-.36h-.73v3.21h.73c.56,0,.97-.11,1.29-.36.31-.25.54-.68.54-1.24Z"/>
    <path class="st1" d="M35.43,10.19h-.9l-1.59-2.23-.92.96v1.27h-.73v-4.59h.73v2.41l.92-.98,1.36-1.44h.96l-1.8,1.84,1.98,2.75Z"/>
    <path class="st1" d="M38.83,10.19l-1.32-1.54h-.83v1.54h-.73v-4.59h1.81c.48,0,.86.09,1.19.36.34.27.54.67.54,1.17s-.22.9-.57,1.16c-.19.14-.39.23-.6.28l1.45,1.63h-.94ZM36.67,6.29v1.67h1.06c.25,0,.5-.03.69-.18.2-.15.31-.38.31-.66s-.11-.51-.31-.66c-.19-.15-.44-.18-.69-.18h-1.06Z"/>
    <path class="st1" d="M43.27,5.61h.84l-1.83,2.75v1.83h-.73v-1.83l-1.83-2.75h.85l.88,1.34c.16.25.48.73.48.73h0s.31-.48.47-.73l.88-1.34Z"/>
    <path class="st1" d="M44.01,9.24c.13.17.35.31.69.31.48,0,.83-.28.83-.88v-3.07h.73v3.07c0,1-.67,1.57-1.56,1.57-.52,0-.9-.2-1.17-.46l.47-.54Z"/>
  </g>
</svg>