<svg width="62" height="9" viewBox="0 0 62 9" fill="none" xmlns="http://www.w3.org/2000/svg">
<path d="M3.95072 2.19394H8.49344V2.81218H3.95072V2.19394ZM4.12096 3.98594H8.30528V4.59522H4.12096V3.98594ZM3.67296 5.86754H8.61888V6.49474H3.67296V5.86754ZM5.84128 2.40898H6.49536V8.71682H5.84128V2.40898ZM7.44512 0.464661L8.0992 0.679701C7.8304 1.22626 7.52576 1.85346 7.26592 2.25666L6.74624 2.0685C6.9792 1.63842 7.28384 0.93954 7.44512 0.464661ZM4.336 0.724501L4.88256 0.52738C5.1872 1.00226 5.48288 1.63842 5.5904 2.05058L5.008 2.28354C4.90944 1.86242 4.62272 1.20834 4.336 0.724501ZM0.760964 3.1885H3.43104V3.7261H0.760964V3.1885ZM0.805764 0.796181H3.41312V1.33378H0.805764V0.796181ZM0.760964 4.38914H3.43104V4.92674H0.760964V4.38914ZM0.339844 1.96994H3.74464V2.52546H0.339844V1.96994ZM1.08352 5.59874H3.43104V8.21506H1.08352V7.65058H2.83968V6.15426H1.08352V5.59874ZM0.752004 5.59874H1.3344V8.62722H0.752004V5.59874Z" fill="white"/>
<path d="M12.0058 1.02018C11.961 1.31586 11.9341 1.62946 11.9162 1.92514C11.8803 2.93762 11.8086 5.06114 11.8086 6.39618C11.8086 7.38178 12.4269 7.72226 13.2781 7.72226C14.9178 7.72226 15.8496 6.80834 16.4947 5.8765L16.9965 6.48578C16.3872 7.33698 15.2224 8.45698 13.2602 8.45698C11.9699 8.45698 11.0829 7.92834 11.0829 6.4589C11.0829 5.13282 11.1725 2.86594 11.1725 1.92514C11.1725 1.59362 11.1456 1.28002 11.0918 1.02018H12.0058Z" fill="white"/>
<path d="M24.2272 1.3965C24.0301 1.53986 23.7523 1.78178 23.609 1.90722C22.9907 2.44482 21.7005 3.4573 21.0374 4.01282C20.4998 4.47874 20.4909 4.61314 21.0733 5.09698C21.8886 5.76898 23.4746 7.0413 24.4243 8.00002L23.7882 8.58242C23.6 8.36738 23.385 8.15234 23.1699 7.92834C22.5338 7.28322 21.1808 6.11842 20.3386 5.4285C19.4963 4.72066 19.5949 4.33538 20.4013 3.65442C21.0822 3.08994 22.4442 2.01474 23.0445 1.40546C23.2237 1.22626 23.4566 0.966421 23.5552 0.805141L24.2272 1.3965Z" fill="white"/>
<path d="M30.4454 2.70466C30.9562 2.75842 31.44 2.7853 31.9686 2.7853C33.0438 2.7853 34.1459 2.70466 35.0509 2.5165V3.20642C34.1011 3.3677 33.008 3.43938 31.9597 3.43938C31.44 3.43938 30.9741 3.42146 30.4544 3.38562L30.4454 2.70466ZM33.5814 1.10082C33.5546 1.28002 33.5366 1.46818 33.5277 1.63842C33.5098 1.96994 33.5008 2.6061 33.5008 3.13474C33.5008 4.51458 33.6352 5.91234 33.6352 6.83522C33.6352 7.56994 33.2947 8.28674 32.0851 8.28674C30.8845 8.28674 30.2304 7.8029 30.2304 6.9965C30.2304 6.24386 30.8934 5.6525 32.0762 5.6525C33.5814 5.6525 34.6298 6.4141 35.3824 7.09506L34.9971 7.68642C34.0563 6.80834 33.1514 6.19906 32.0134 6.19906C31.3414 6.19906 30.8755 6.49474 30.8755 6.92482C30.8755 7.39074 31.3146 7.63266 31.9686 7.63266C32.7213 7.63266 32.9363 7.25634 32.9363 6.65602C32.9363 6.0109 32.8198 4.33538 32.8198 3.15266C32.8198 2.53442 32.8109 1.96994 32.8109 1.65634C32.8109 1.49506 32.8019 1.2621 32.775 1.10082H33.5814ZM29.1642 1.16354C29.1104 1.3069 29.0387 1.60258 29.0029 1.76386C28.8237 2.59714 28.5549 4.37122 28.5549 5.37474C28.5549 5.81378 28.5818 6.1901 28.6445 6.62914C28.7878 6.21698 29.0118 5.67042 29.1642 5.30306L29.5315 5.58978C29.3075 6.21698 28.976 7.1309 28.8864 7.56994C28.8595 7.69538 28.8416 7.87458 28.8506 7.97314C28.8595 8.06274 28.8685 8.19714 28.8774 8.28674L28.2413 8.3405C28.071 7.69538 27.9008 6.70978 27.9008 5.50018C27.9008 4.18306 28.2054 2.4717 28.313 1.73698C28.3488 1.52194 28.3667 1.28898 28.3757 1.09186L29.1642 1.16354Z" fill="white"/>
<path d="M37.936 1.71906C38.5811 1.79074 39.4054 1.82658 40.3104 1.82658C41.1706 1.82658 42.0755 1.77282 42.7206 1.70114V2.43586C42.1114 2.48066 41.1347 2.54338 40.3104 2.54338C39.4144 2.54338 38.6438 2.50754 37.936 2.44482V1.71906ZM38.2944 5.32994C38.1869 5.67938 38.1152 6.0109 38.1152 6.34242C38.1152 7.03234 38.8141 7.49826 40.2477 7.49826C41.4752 7.49826 42.631 7.36386 43.312 7.14882L43.321 7.91938C42.6758 8.08962 41.5379 8.22402 40.2656 8.22402C38.4467 8.22402 37.3894 7.63266 37.3894 6.5037C37.3894 6.03778 37.488 5.61666 37.5686 5.25826L38.2944 5.32994Z" fill="white"/>
<path d="M48.5894 0.98434C48.5178 1.22626 48.473 1.50402 48.4192 1.73698C48.2938 2.45378 47.9354 4.18306 47.6307 5.01634C48.4102 4.46978 49.2166 4.24578 50.1485 4.24578C51.5731 4.24578 52.4064 4.97154 52.4064 6.01986C52.4064 7.8925 50.4979 8.58242 47.7741 8.2957L47.5859 7.5789C49.6646 7.86562 51.6717 7.51618 51.6717 6.03778C51.6717 5.37474 51.1251 4.85506 50.0768 4.85506C49.0106 4.85506 48.016 5.22242 47.4246 5.93026C47.3171 6.06466 47.2365 6.1901 47.1469 6.34242L46.4838 6.10946C47.1648 4.77442 47.6397 2.55234 47.7472 1.69218C47.783 1.40546 47.801 1.19042 47.783 0.9485L48.5894 0.98434ZM45.8029 2.13122C46.2778 2.21186 46.9587 2.27458 47.4963 2.27458C48.6432 2.27458 50.4083 2.14018 51.815 1.82658L51.833 2.5165C50.5606 2.7405 48.7328 2.9197 47.5053 2.9197C46.896 2.9197 46.3226 2.8749 45.8118 2.8301L45.8029 2.13122Z" fill="white"/>
<path d="M56.752 0.97538C57.5226 1.22626 59.431 1.59362 60.2285 1.67426L60.0582 2.35522C59.1981 2.23874 57.2627 1.8445 56.5728 1.6653L56.752 0.97538ZM56.5549 2.61506C56.4384 3.22434 56.2771 4.55042 56.1875 5.13282C57.0477 4.38018 58.0333 4.03074 59.1085 4.03074C60.4794 4.03074 61.3933 4.85506 61.3933 5.91234C61.3933 7.50722 59.9686 8.59138 56.6445 8.31362L56.4294 7.58786C59.2608 7.92834 60.6406 7.11298 60.6406 5.88546C60.6406 5.17762 59.9686 4.6669 59.0547 4.6669C57.881 4.6669 56.9133 5.10594 56.2861 5.86754C56.1517 6.01986 56.071 6.16322 56.0173 6.30658L55.3453 6.1453C55.5245 5.32994 55.7485 3.44834 55.8022 2.5165L56.5549 2.61506Z" fill="white"/>
</svg>
