<svg width="40" height="9" viewBox="0 0 40 9" fill="none" xmlns="http://www.w3.org/2000/svg">
<path d="M3.27799 8.16498C1.82599 8.16498 0.79199 7.27399 0.35199 6.10799L1.16599 5.64598C1.58399 6.74598 2.39799 7.32898 3.29999 7.32898C4.20199 7.32898 4.81799 6.78998 4.81799 6.01998C4.81799 5.24998 4.28999 4.89798 3.49799 4.63398L2.57399 4.32598C1.64999 4.01798 0.63799 3.47898 0.63799 2.26898C0.63799 1.05898 1.62799 0.277985 3.01399 0.277985C4.39999 0.277985 5.25799 1.15798 5.54399 1.81798L4.83999 2.34598C4.55399 1.68598 3.87199 1.10298 3.01399 1.10298C2.15599 1.10298 1.62799 1.53198 1.62799 2.21398C1.62799 2.89598 2.22199 3.18198 2.88199 3.40198L3.80599 3.70998C4.69699 4.00698 5.81899 4.58999 5.81899 5.93198C5.81899 7.27399 4.72999 8.16498 3.27799 8.16498Z" fill="#53545C"/>
<path d="M10.6284 8.15399C8.6044 8.15399 7.3834 6.54799 7.3834 4.21598C7.3834 1.88398 8.6484 0.277985 10.6724 0.277985C12.6964 0.277985 13.3784 1.88398 13.4664 2.36798L12.6084 2.71998C12.5094 2.18098 12.0364 1.11398 10.6504 1.11398C9.2644 1.11398 8.3844 2.32398 8.3844 4.21598C8.3844 6.10798 9.2644 7.29598 10.6504 7.29598C12.0364 7.29598 12.5424 6.28398 12.6854 5.65698L13.5434 6.00898C13.4004 6.63598 12.6524 8.15399 10.6284 8.15399Z" fill="#53545C"/>
<path d="M18.4534 8.15399C16.2754 8.15399 15.0984 6.39398 15.0984 4.21598C15.0984 2.03798 16.2754 0.277985 18.4534 0.277985C20.6314 0.277985 21.8084 2.03798 21.8084 4.21598C21.8084 6.39398 20.6314 8.15399 18.4534 8.15399ZM18.4534 7.33998C20.0814 7.33998 20.8074 5.86598 20.8074 4.21598C20.8074 2.56598 20.0814 1.09198 18.4534 1.09198C16.8254 1.09198 16.0994 2.56598 16.0994 4.21598C16.0994 5.86598 16.8254 7.33998 18.4534 7.33998Z" fill="#53545C"/>
<path d="M23.9106 7.99998V0.431985H26.6826C28.1456 0.431985 29.1906 1.15798 29.1906 2.56598C29.1906 3.97398 28.1566 4.69998 26.6826 4.69998H24.8786V7.99998H23.9106ZM24.8786 3.88598H26.5726C27.5406 3.88598 28.2006 3.53398 28.2006 2.56598C28.2006 1.59798 27.5406 1.24598 26.5726 1.24598H24.8786V3.88598Z" fill="#53545C"/>
<path d="M31.2496 7.99998V0.431985H34.0546C35.5946 0.431985 36.5956 1.12498 36.5956 2.45598C36.5956 3.78698 35.6056 4.28198 34.8136 4.41398L37.0356 7.99998H35.8916L33.7576 4.47998H32.2176V7.99998H31.2496ZM32.2176 3.66598H34.0436C34.9456 3.66598 35.6056 3.35798 35.6056 2.45598C35.6056 1.54298 34.9456 1.24598 34.0436 1.24598H32.2176V3.66598Z" fill="#53545C"/>
<path d="M39.0404 7.99998V0.431985H40.0084V7.99998H39.0404Z" fill="#53545C"/>
</svg>
