<svg width="63" height="12" viewBox="0 0 63 12" fill="none" xmlns="http://www.w3.org/2000/svg">
<path d="M5.36475 3.11712H11.5324V3.9565H5.36475V3.11712ZM5.59589 5.55011H11.2769V6.37733H5.59589V5.55011ZM4.98764 8.10475H11.7027V8.9563H4.98764V8.10475ZM7.93156 3.40908H8.8196V11.9732H7.93156V3.40908ZM10.1091 0.769287L10.9971 1.06125C10.6322 1.80331 10.2186 2.65485 9.86579 3.20228L9.16022 2.94681C9.47651 2.36289 9.89011 1.41403 10.1091 0.769287ZM5.88785 1.12207L6.62991 0.854441C7.04352 1.49918 7.44496 2.3629 7.59094 2.92248L6.80022 3.23877C6.6664 2.66702 6.27713 1.77898 5.88785 1.12207ZM1.03403 4.46743H4.65919V5.19733H1.03403V4.46743ZM1.09486 1.21939H4.63486V1.94929H1.09486V1.21939ZM1.03403 6.09753H4.65919V6.82743H1.03403V6.09753ZM0.46228 2.813H5.08496V3.56723H0.46228V2.813ZM1.47197 7.7398H4.65919V11.292H1.47197V10.5256H3.8563V8.49403H1.47197V7.7398ZM1.02187 7.7398H1.81259V11.8516H1.02187V7.7398Z" fill="black"/>
<path d="M17.2742 1.52351C17.2134 1.92496 17.1769 2.35073 17.1526 2.75217C17.1039 4.12681 17.0066 7.0099 17.0066 8.82248C17.0066 10.1606 17.846 10.6229 19.0017 10.6229C21.2278 10.6229 22.493 9.38207 23.3689 8.11692L24.0501 8.94413C23.2229 10.0998 21.6415 11.6204 18.9773 11.6204C17.2256 11.6204 16.0212 10.9027 16.0212 8.90764C16.0212 7.10723 16.1429 4.02949 16.1429 2.75217C16.1429 2.30207 16.1064 1.8763 16.0334 1.52351H17.2742Z" fill="black"/>
<path d="M34.8404 2.03444C34.5728 2.22908 34.1957 2.55753 34.001 2.72784C33.1617 3.45774 31.4099 4.83238 30.5097 5.58661C29.7798 6.21918 29.7676 6.40166 30.5584 7.05857C31.6654 7.97094 33.8186 9.69836 35.1081 11L34.2443 11.7907C33.9889 11.4988 33.6969 11.2068 33.405 10.9027C32.5412 10.0268 30.7043 8.44537 29.5608 7.50867C28.4173 6.54764 28.5511 6.02454 29.646 5.10001C30.5705 4.33362 32.4196 2.87382 33.2346 2.04661C33.4779 1.80331 33.7942 1.45052 33.9281 1.23155L34.8404 2.03444Z" fill="black"/>
<path d="M42.5408 4.05382V5.30681H48.4408V4.05382H42.5408ZM42.5408 6.0732V7.33836H48.4408V6.0732H42.5408ZM42.5408 2.03444V3.27527H48.4408V2.03444H42.5408ZM41.6528 1.21939H49.3654V8.16558H41.6528V1.21939ZM46.2755 7.56949H47.2V10.5986C47.2 10.9513 47.2973 11.0122 47.8204 11.0122C48.0759 11.0122 49.3045 11.0122 49.633 11.0122C50.1318 11.0122 50.2169 10.8054 50.2656 9.28475C50.4602 9.45506 50.8617 9.60104 51.1171 9.66186C51.0076 11.4379 50.74 11.888 49.706 11.888C49.4505 11.888 47.9786 11.888 47.7353 11.888C46.5796 11.888 46.2755 11.6083 46.2755 10.5986V7.56949ZM43.3437 7.82496H44.3291C44.0736 9.99032 43.3437 11.3163 40.412 11.9854C40.3268 11.7542 40.0713 11.3771 39.8889 11.1825C42.5652 10.6472 43.1369 9.60104 43.3437 7.82496Z" fill="black"/>
<path d="M55.4478 2.04661C55.7155 2.07094 56.0561 2.0831 56.2994 2.0831C56.9441 2.0831 59.8272 1.99795 60.472 1.93712C60.8369 1.90063 61.0072 1.8763 61.141 1.82764L61.7006 2.54537C61.4817 2.69135 61.2384 2.84949 61.0072 3.03197C60.4111 3.49424 58.7567 4.91753 57.8078 5.69609C58.3674 5.51362 58.9513 5.45279 59.4988 5.45279C61.5182 5.45279 62.9658 6.65712 62.9658 8.29939C62.9658 10.2579 61.3478 11.5353 58.7689 11.5353C57.1144 11.5353 56.1048 10.8175 56.1048 9.79568C56.1048 8.96846 56.859 8.21423 57.9782 8.21423C59.5961 8.21423 60.4111 9.35774 60.4963 10.5864L59.6204 10.7324C59.5474 9.69836 58.9513 8.9563 57.9782 8.9563C57.4186 8.9563 56.9928 9.29692 56.9928 9.72269C56.9928 10.3188 57.6619 10.6716 58.6229 10.6716C60.6909 10.6716 61.9926 9.82001 61.9926 8.29939C61.9926 7.09506 60.8491 6.20702 59.2555 6.20702C57.2361 6.20702 56.1412 7.05857 54.6085 8.62784L53.9029 7.92228C54.9126 7.09506 56.4819 5.78125 57.1753 5.18516C57.8565 4.62558 59.3893 3.34826 59.9975 2.80083C59.3528 2.83733 56.9198 2.93465 56.2872 2.97114C56.0074 2.99547 55.7398 3.00764 55.4722 3.04413L55.4478 2.04661Z" fill="black"/>
</svg>
