<svg width="120" height="37" viewBox="0 0 120 37" fill="none" xmlns="http://www.w3.org/2000/svg">
<path d="M76.4361 3.2603C75.1085 5.29322 75.067 8.19739 75.551 10.4792C76.0627 12.9132 77.5286 14.8217 80.1009 15.2089C82.604 15.5823 84.8582 14.3653 85.7848 12.0143C86.6698 9.77394 86.7666 6.9804 85.9922 4.69856C85.3837 2.94222 83.9731 1.58694 82.1338 1.21355C80.0594 0.771009 77.6392 1.43482 76.4361 3.2603ZM83.0189 15.9833C83.0189 16.2461 83.4614 16.5089 83.6274 16.6471C83.9454 16.9099 84.2635 17.1588 84.5954 17.4078C85.3145 17.9333 86.0613 18.4035 86.8496 18.8322C87.4858 19.1779 88.1772 19.496 88.8964 19.6481C89.4357 19.7588 89.975 19.7449 90.5144 19.8417C90.9016 19.9109 91.3718 20.0353 91.3165 20.5194C91.2474 21.0864 90.307 21.0172 89.9059 21.0172C88.3294 21.0172 86.7251 20.8236 85.2592 20.2013C83.7518 19.5651 82.4104 18.5141 81.1519 17.4769C80.8477 17.228 80.5434 16.9791 80.2392 16.7301C79.8796 16.4259 79.6583 16.3291 79.202 16.2046C78.4413 16.011 77.6946 15.7344 77.0031 15.361C74.4447 13.9781 72.7713 11.4335 72.6883 8.5293C72.5915 5.63895 73.9468 2.80393 76.4499 1.25504C79.1328 -0.418318 82.5763 -0.432147 85.2316 1.29653C87.5273 2.7901 88.9655 5.22407 89.0347 7.97612C89.1038 10.9494 87.7347 13.7153 85.0933 15.1674C84.4433 15.527 83.7518 15.7897 83.0327 15.9972" fill="#010101"/>
<path d="M42.5541 0.425275C45.5551 0.452934 48.5422 0.425275 51.5294 0.480592C52.2347 0.480592 52.9399 0.563569 53.6314 0.53591C54.1569 0.508251 54.5718 0.273152 55.0697 0.217834C56.0239 0.121028 55.858 1.64226 55.8718 2.2231C55.8994 2.88691 56.259 3.93794 55.8994 4.54643C55.7335 4.82302 55.3186 4.80919 55.1526 4.54643C54.9452 4.24219 54.9452 3.79965 54.9037 3.45391C54.8207 2.54117 54.5995 1.71141 53.5208 1.62843C52.9123 1.57311 52.3176 1.68375 51.7091 1.68375C51.0453 1.68375 50.3815 1.68375 49.7177 1.68375C49.7454 5.34854 49.6762 8.9995 49.7177 12.6643C49.7177 13.3834 49.6209 14.1993 49.8007 14.9046C49.9113 15.3472 50.4783 15.3334 50.8379 15.3472C51.2251 15.361 51.723 15.3057 52.0549 15.527C52.5112 15.8174 52.1793 16.3429 51.723 16.3706C51.0592 16.3982 50.3677 16.2461 49.7039 16.2184C48.8603 16.1908 48.0167 16.2184 47.1731 16.2599C46.6199 16.2876 45.9699 16.412 45.4306 16.3014C45.237 16.2599 45.071 16.1493 45.0295 15.9418C44.9327 15.5408 45.1955 15.3748 45.5689 15.3334C46.0667 15.2919 46.8688 15.5685 47.2699 15.1397C47.6156 14.7802 47.588 14.0749 47.5741 13.6185C47.5741 12.1388 47.5188 10.6452 47.5188 9.16545C47.5188 6.91126 47.6018 4.64324 47.4773 2.38905C47.4635 2.15395 47.4497 1.91885 47.422 1.68375C47.1454 1.68375 46.8688 1.68375 46.5923 1.68375C46.0944 1.66992 45.5827 1.65609 45.0849 1.64226C44.421 1.6146 43.0519 1.26887 42.6785 2.04331C42.3328 2.76244 42.4711 3.63369 42.2083 4.38048C41.9318 5.1411 41.2541 4.71239 41.2126 4.09006C41.1435 3.2603 41.3648 2.40288 41.4339 1.58694C41.4892 0.923133 41.6552 -0.100242 42.5264 0.439104" fill="#010101"/>
<path d="M61.2652 1.66992C61.2514 2.09863 61.7354 2.54117 61.9429 2.88691C62.3024 3.45391 62.6482 4.00709 62.9939 4.57409C63.6992 5.7081 64.4045 6.84211 65.1513 7.93463C66.0917 6.52404 66.9768 5.07195 67.8619 3.63369C68.1661 3.14966 69.6597 1.5178 68.3459 1.39333C68.0693 1.3795 67.5853 1.44865 67.4055 1.15823C66.9353 0.356128 68.2767 0.425275 68.6916 0.466763C69.4661 0.549739 70.2682 0.508251 71.0426 0.439104C71.416 0.411445 72.2596 0.190175 72.4256 0.701863C72.7575 1.64226 71.5266 1.32419 71.0979 1.47631C70.5033 1.69758 70.1714 2.49968 69.881 3.01137C69.0374 4.47729 68.0831 5.87405 67.1704 7.29848C66.7832 7.9208 66.2715 8.55696 65.9811 9.2346C65.663 9.99521 65.7736 11.0048 65.8013 11.8069C65.8151 12.6781 65.8704 13.5494 65.8843 14.4206C65.8843 14.8217 65.9119 15.0568 66.3545 15.1536C66.714 15.2365 67.1012 15.1951 67.4608 15.1951C67.848 15.1951 68.3874 15.2504 68.4289 15.7482C68.4704 16.3982 67.8204 16.4674 67.3225 16.4259C65.9949 16.3014 64.7779 16.1631 63.4365 16.2876C62.8556 16.3429 60.8365 16.6748 61.0578 15.5546C61.1546 15.0706 61.7769 15.0429 62.1642 15.0429C62.4546 15.0429 62.7312 15.0429 63.0216 15.0429C63.2152 15.0429 63.2843 15.0983 63.3673 14.8908C63.4503 14.6834 63.5056 14.4483 63.5333 14.227C63.6301 13.4802 63.5333 12.7196 63.5333 11.9728C63.5333 11.1984 63.6301 10.3963 63.4503 9.63565C63.2843 8.97184 62.7865 8.37717 62.3993 7.81017C61.9152 7.09104 61.4589 6.35808 60.9887 5.63895C60.5461 4.96131 60.1036 4.2975 59.6749 3.61986C59.3015 3.06669 59.0387 2.44437 58.6238 1.91885C58.2643 1.46248 57.8909 1.46248 57.3654 1.32419C56.8813 1.18589 56.8813 0.53591 57.3654 0.397616C58.0153 0.204005 58.8313 0.466763 59.4951 0.53591C60.4078 0.618886 61.2514 0.356128 62.1365 0.31464C62.4407 0.31464 62.8556 0.342298 63.0354 0.632716C63.1737 0.867815 63.0769 1.18589 62.8141 1.2827C62.3163 1.47631 61.6386 1.22738 61.2514 1.69758" fill="#010101"/>
<path d="M24.1333 0.369957C24.4929 0.356128 25.0737 0.369957 25.0737 0.867815C25.0737 1.42099 24.5206 1.40716 24.1057 1.39333C23.7599 1.3795 23.1653 1.29653 22.9578 1.66992C22.7089 2.09863 22.7642 2.76244 22.7642 3.24647C22.7642 6.55169 22.7919 9.87075 22.7919 13.176C22.7919 16.4812 22.5983 14.794 22.9855 15.1674C23.2206 15.3887 23.7461 15.3195 24.0365 15.3195C24.3131 15.3195 24.7833 15.3057 24.9769 15.5546C25.3088 16.0248 24.6312 16.3844 24.2578 16.3567C22.7366 16.2461 21.2153 16.0248 19.6803 16.1769C19.3484 16.2046 18.4771 16.3706 18.4771 15.8174C18.4771 15.3887 19.1547 15.361 19.4452 15.3334C19.7494 15.3057 20.1505 15.3195 20.4132 15.1536C20.6622 14.9876 20.6898 14.5451 20.7036 14.2823C20.7728 13.3419 20.6622 12.3877 20.6622 11.4473C20.6622 8.87503 20.6207 6.30277 20.7175 3.7305C20.7451 3.05286 20.9526 1.83587 20.1505 1.55928C19.86 1.46248 17.8271 1.42099 18.5463 0.660374C19.0026 0.176346 20.3026 0.508251 20.8558 0.563569C21.9621 0.660374 23.027 0.425275 24.1195 0.383787" fill="#010101"/>
<path d="M103.818 1.57311C103.431 1.26887 101.813 1.6146 101.841 0.923133C101.868 0.259322 102.532 0.411445 102.989 0.466763C103.68 0.549739 104.399 0.632716 105.104 0.549739C105.602 0.494422 107.732 -0.0310949 107.608 0.99228C107.497 1.93268 105.879 1.03377 105.519 1.69758C105.27 2.18161 105.353 2.88691 105.367 3.41242C105.367 4.24219 105.367 5.05812 105.367 5.88788C105.367 7.54741 105.464 9.20694 105.436 10.8526C105.422 12.2356 105.34 13.6462 104.275 14.6557C103.403 15.4716 102.2 15.9695 101.039 16.2184C98.6046 16.7301 95.2026 16.5918 93.2526 14.8217C92.2292 13.8813 92.1186 12.3462 92.091 11.0462C92.0633 9.34523 92.1048 7.65805 92.1186 5.95703C92.1186 5.11344 92.1186 4.26984 92.1048 3.41242C92.1048 2.96988 92.091 2.52734 92.0771 2.0848C92.0771 1.73907 92.1186 1.49014 91.7314 1.42099C91.2888 1.33801 90.8186 1.44865 90.3623 1.36567C90.0304 1.29653 89.8782 0.840156 90.1687 0.646545C90.7495 0.231663 91.7867 0.466763 92.4505 0.494422C93.2664 0.522081 94.0962 0.549739 94.9121 0.494422C95.3685 0.452934 96.627 0.0933695 96.6132 0.936962C96.5855 1.8497 94.7185 0.964621 94.4696 1.78056C94.3036 2.3199 94.4143 2.96988 94.4281 3.52306C94.4696 4.36665 94.3866 5.21024 94.3728 6.05384C94.3313 7.79634 94.2898 9.55267 94.3175 11.2952C94.3313 12.4292 94.5111 13.4111 95.4377 14.144C96.8897 15.2919 99.061 15.4855 100.817 15.0983C101.675 14.9046 102.546 14.5451 103.168 13.9228C103.97 13.1207 104.067 12.1111 104.053 11.0186C104.012 9.38672 104.012 7.75485 104.012 6.12298C104.012 4.49112 103.998 4.49112 104.012 3.67518C104.026 2.98371 104.081 2.23692 103.804 1.57311" fill="#010101"/>
<path d="M112.31 1.86353C112.185 3.64752 112.296 5.44534 112.254 7.22933C113.056 7.32614 113.858 7.33997 114.661 7.32614C115.075 7.32614 115.504 7.32614 115.919 7.32614C116.334 7.32614 116.555 7.24316 116.707 6.81445C116.873 6.38574 116.804 5.54215 117.205 5.25173C117.938 4.74004 117.952 5.90171 117.924 6.28894C117.869 7.02189 117.924 7.76868 117.924 8.51547C117.924 8.87503 118.146 10.8111 117.703 10.8803C116.749 11.0186 116.915 9.4697 116.666 8.91652C116.472 8.48781 115.228 8.59844 114.826 8.59844C113.983 8.59844 113.139 8.66759 112.31 8.61227C112.213 10.3271 112.268 12.0281 112.254 13.7291C112.254 14.2685 112.296 14.6557 112.863 14.7525C113.43 14.8632 114.024 14.8493 114.605 14.8493C115.642 14.8493 117.081 15.2366 118.049 14.7664C119.072 14.2685 118.464 12.5675 119.183 11.8622C119.598 11.4611 119.943 11.959 119.985 12.3462C120.04 12.8579 119.93 13.3696 119.888 13.8813C119.833 14.5451 119.888 15.3748 119.639 15.9972C119.473 16.412 118.713 16.2876 118.367 16.2738C116.873 16.2184 115.38 16.094 113.886 16.1078C112.088 16.1078 110.277 16.3291 108.493 16.2599C108.133 16.2599 107.469 15.9142 107.939 15.4993C108.258 15.2089 108.866 15.2642 109.281 15.2227C109.557 15.1951 109.682 15.1536 109.876 14.9461C110.097 14.711 110.014 14.227 110.014 13.8951C110.028 13.0238 110.041 12.1526 110.041 11.2813C110.041 9.51118 110.041 7.74102 110.041 5.95703C110.041 5.11344 110.041 4.26985 110.041 3.44008C110.041 2.61032 110.29 2.01565 109.848 1.66992C109.364 1.29653 108.092 1.79438 107.843 1.17206C107.58 0.494422 108.41 0.480592 108.838 0.508251C109.751 0.549739 110.664 0.508251 111.563 0.508251C113.361 0.508251 115.145 0.508251 116.942 0.563569C117.288 0.563569 117.634 0.577398 117.966 0.508251C118.201 0.452934 118.394 0.273152 118.643 0.452934C119.072 0.77101 119.003 1.64226 119.031 2.11246C119.058 2.59649 119.611 4.82302 118.74 4.78153C117.827 4.72621 117.952 2.65181 117.565 2.14012C117.108 1.55928 115.919 1.82204 115.297 1.86353C114.315 1.91885 113.333 1.73907 112.351 1.86353" fill="#010101"/>
<path d="M4.3573 1.71141C4.3573 5.12727 4.46794 8.54313 4.3573 11.9452C4.34347 12.4707 4.31581 12.9962 4.30198 13.5217C4.30198 13.8813 4.23284 14.5036 4.46794 14.8217C4.77218 15.2504 5.82322 15.1259 6.27959 15.1259C7.10935 15.1397 7.93911 15.1536 8.76888 15.1259C10.0965 15.0568 11.272 14.8355 12.2262 13.8674C13.1666 12.927 13.6921 11.6271 13.9826 10.3548C14.5772 7.61656 14.0932 4.40814 11.673 2.65181C10.705 1.96034 9.55715 1.69758 8.38165 1.6146C7.71784 1.57311 7.0402 1.57311 6.36256 1.57311C5.68492 1.57311 4.48177 1.3795 4.3573 1.71141ZM0.0287027 1.11674C0.0148733 0.75718 -0.0127855 0.480592 0.429755 0.466763C0.844637 0.439104 1.27335 0.466763 1.68823 0.494422C2.57331 0.563569 3.44456 0.591228 4.32964 0.549739C5.90619 0.466763 7.49657 0.369957 9.08695 0.466763C12.1571 0.674204 15.1027 2.29224 16.3197 5.25173C17.4676 8.0591 16.4995 11.5718 14.6049 13.826C13.706 14.8908 12.5305 15.7759 11.1475 16.0801C9.68162 16.3982 8.13272 16.3844 6.63915 16.3152C5.57429 16.2738 4.52325 16.2184 3.45839 16.2184C2.91905 16.2184 2.3797 16.2461 1.84035 16.2599C1.37015 16.2738 0.54039 16.4397 0.139338 16.1078C-0.151079 15.8727 0.0563614 15.4578 0.360608 15.361C0.77549 15.2366 1.23186 15.3057 1.66057 15.1951C2.42119 15.0153 2.24141 13.7015 2.22758 13.1345C2.18609 10.4931 2.07545 7.85166 2.17226 5.22407C2.19992 4.2007 2.3797 3.12201 2.21375 2.11246C1.96482 0.743351 0.720172 1.80821 0.0287027 1.11674Z" fill="#010101"/>
<path d="M35.3628 7.72719C36.5383 6.8836 37.0223 5.11344 36.4691 3.79965C36.1787 3.12201 35.667 2.38905 34.9617 2.07097C34.2979 1.78056 33.4958 1.72524 32.7767 1.69758C32.6107 1.69758 32.4448 1.69758 32.2788 1.69758C32.0299 1.69758 31.9746 1.64226 31.9608 1.91885C31.9331 2.40288 31.9193 2.90074 31.9193 3.38476C31.9193 4.39431 31.9193 5.40385 31.9193 6.39957C31.9193 6.89743 31.9193 7.40912 31.9193 7.90697C31.9193 8.22505 32.0437 8.12824 32.3203 8.1559C32.5831 8.18356 32.832 8.19739 33.0948 8.21122C33.8692 8.23888 34.699 8.18356 35.349 7.72719M31.9746 9.16545C31.8778 10.8388 31.9054 12.526 31.9331 14.1855C31.9331 14.6419 31.9193 15.2227 32.4725 15.2919C32.9288 15.3472 33.399 15.2642 33.8416 15.3195C34.215 15.3748 34.533 15.6238 34.3809 16.0387C34.1873 16.578 33.0671 16.2876 32.6522 16.2461C31.9193 16.1769 31.1863 16.1078 30.4395 16.1078C29.6651 16.1078 28.8906 16.3152 28.1162 16.2876C27.7151 16.2876 27.2035 15.9142 27.6045 15.5131C27.8949 15.2227 28.4619 15.278 28.8353 15.2642C29.0289 15.2642 29.2225 15.2365 29.4023 15.1812C29.6927 15.0844 29.6374 14.7249 29.6651 14.4621C29.7481 13.5494 29.6927 12.6228 29.6927 11.6962V6.31659C29.6927 5.04429 29.7896 3.75816 29.7342 2.48585C29.7204 2.20927 29.7342 1.78055 29.5406 1.54546C29.3193 1.26887 28.7385 1.3795 28.4204 1.3795C28.0609 1.3795 27.6045 1.32419 27.6598 0.853986C27.7151 0.425275 28.3375 0.480592 28.6417 0.494422C29.8864 0.591228 31.1033 0.577398 32.348 0.563569C33.6341 0.549739 34.9894 0.53591 36.234 0.964621C38.6542 1.82204 39.802 4.64324 38.4329 6.86977C37.05 9.11013 34.3671 9.34523 31.9884 9.15162" fill="#010101"/>
<path d="M52.2485 32.0116H53.991C53.7282 31.2648 53.4516 30.518 53.1474 29.7851C52.857 30.5319 52.5251 31.2648 52.2485 32.0116ZM53.8389 27.766C54.4059 29.1627 54.9176 30.5872 55.4707 31.9839C55.7335 32.6478 55.9962 33.3116 56.259 33.9754C56.3973 34.2934 56.5356 34.6254 56.6877 34.9434C56.8398 35.2753 57.1026 35.1785 57.4207 35.2615C57.6419 35.3307 57.7526 35.7179 57.5451 35.8562C57.3515 35.9806 57.0334 35.9115 56.826 35.8838C56.2175 35.8009 55.6367 35.8838 55.0282 35.8977C54.7516 35.8977 54.1569 35.9391 54.1846 35.5104C54.2123 35.1094 54.9729 35.22 55.2356 35.1785C55.1527 34.6254 54.9176 34.1275 54.6825 33.6296C54.558 33.3531 54.4335 33.0903 54.3367 32.7999H52.4283C51.9719 32.7999 51.9442 32.8829 51.7506 33.2839C51.4879 33.8509 51.3081 34.4594 51.0177 35.0126C51.2943 35.1509 52.1378 35.0541 51.9581 35.6072C51.8336 35.9668 51.0592 35.8147 50.7964 35.8147C50.4783 35.8009 49.6347 36.0221 49.4135 35.7317C49.3166 35.5934 49.372 35.2892 49.5241 35.22C49.6209 35.1785 49.7315 35.1647 49.8283 35.1509C50.0496 35.1094 50.0634 34.9573 50.1602 34.7636C50.8379 33.4222 51.3634 32.0116 51.9027 30.6287C52.1793 29.9234 52.4559 29.2319 52.7602 28.5404C52.9953 28.0011 53.1474 27.4202 53.8389 27.7521" fill="#010101"/>
<path d="M71.3745 28.3053C71.2501 28.6511 70.6001 28.4436 70.3512 28.5543C70.3235 29.2319 70.3097 29.9095 70.2958 30.601C70.282 32.0669 70.2958 33.519 70.3373 34.9849C70.3512 35.5104 71.1394 34.9849 71.3469 35.4275C71.5681 35.8977 70.9735 35.953 70.6831 35.9253C70.199 35.8838 69.7288 35.8147 69.231 35.8423C68.9406 35.87 68.6363 35.9253 68.3459 35.9115C67.9448 35.9115 67.931 35.6902 67.9448 35.3307C68.0831 35.1094 68.3874 35.1232 68.6087 35.137C68.7193 35.137 68.8161 35.1647 68.9267 35.1785C68.9682 34.9849 68.982 34.7775 69.0097 34.57C69.0788 33.7818 69.0374 32.9797 69.0235 32.1776C69.0235 31.4446 69.0235 30.7116 69.0235 29.9787C69.0235 29.2457 69.2725 28.6234 68.664 28.5404C68.4289 28.5128 67.9863 28.5404 67.9448 28.2223C67.848 27.6 68.982 27.8766 69.2863 27.8904C69.798 27.9319 71.416 27.3649 71.3884 28.2915" fill="#010101"/>
<path d="M77.8882 27.8075C78.0956 28.0149 78.0403 28.3606 78.0403 28.6234C78.0265 28.9691 78.1233 29.2872 78.1509 29.6191C78.2062 30.2829 77.4733 30.1031 77.3765 29.5915C77.3073 29.1904 77.3212 28.734 76.8924 28.5404C76.3531 28.2915 75.5095 28.3468 75.0393 28.7064C74.5276 29.0936 74.2787 29.8404 74.7351 30.3797C75.1499 30.8914 75.8829 31.0574 76.4776 31.251C77.7499 31.6797 78.8562 32.6754 78.552 34.1552C78.2754 35.4413 77.0722 35.9806 75.8552 36.0221C75.1914 36.0498 74.5415 35.953 73.9053 35.7732C73.684 35.704 73.2691 35.6902 73.2553 35.4413C73.2553 35.2062 73.2 34.9573 73.1585 34.7222C73.1032 34.3626 72.9511 33.7956 73.1862 33.4637C73.5181 32.9797 73.8362 33.7679 73.8915 34.003C74.0574 34.8328 74.6383 35.22 75.4819 35.2892C76.3393 35.3583 77.3765 34.9849 77.3626 33.9754C77.3626 32.6063 75.4957 32.3712 74.5415 31.9148C73.3936 31.3478 72.9787 30.0063 73.6425 28.8723C74.5829 27.2681 76.3946 27.9043 77.902 27.8075" fill="#010101"/>
<path d="M62.8003 31.4723C63.5747 30.9329 63.4779 29.2872 62.7035 28.8032C62.4546 28.6372 62.1503 28.6096 61.8599 28.6096C61.694 28.6096 61.528 28.6096 61.3482 28.6096C60.961 28.6096 60.9472 28.5681 60.9195 28.983C60.8642 29.8819 60.9333 30.7808 60.9057 31.6659C61.5003 31.6244 62.2748 31.8318 62.7865 31.4723M63.395 32.0116C63.6439 32.7031 64.2109 33.2424 64.5566 33.8786C64.8885 34.4871 65.1098 35.0817 65.8704 35.1785C66.1332 35.2062 66.3821 35.303 66.313 35.6211C66.23 36.036 65.8704 35.9945 65.4832 35.9945C64.7917 35.9945 64.1279 35.8147 63.7269 35.22C63.3258 34.6254 63.0216 33.9754 62.6482 33.3669C62.4546 33.0488 62.261 32.7169 62.0535 32.4127H61.4035C61.0163 32.4127 60.961 32.3573 60.9333 32.7446C60.878 33.4775 60.8918 34.1966 60.9472 34.9296C60.9886 35.4551 61.8737 35.0126 62.0673 35.4413C62.3578 36.0498 61.3206 35.9253 61.044 35.8977C60.311 35.8147 59.5781 35.953 58.8589 35.8977C58.3196 35.8423 58.3749 35.2338 58.8866 35.1785C59.0387 35.1785 59.177 35.1785 59.3291 35.1785C59.6195 35.1785 59.5227 34.9987 59.5227 34.7636C59.5366 34.2658 59.5504 33.7679 59.5642 33.2701C59.5642 32.3988 59.5642 31.5137 59.5642 30.6287C59.5642 30.1861 59.5642 29.7436 59.5642 29.301C59.5642 28.8447 59.6749 28.5681 59.1493 28.5543C58.9557 28.5543 58.6377 28.5957 58.527 28.4021C58.4994 28.2085 58.4994 27.9458 58.7206 27.8351C59.177 27.6277 59.9238 27.9181 60.4078 27.8904C61.7354 27.8351 63.5747 27.517 64.446 28.8308C65.1375 29.868 64.612 31.6244 63.395 31.9978" fill="#010101"/>
<path d="M47.5188 30.0893C47.4773 29.4393 47.0348 28.9415 46.4263 28.7479C46.0806 28.6372 45.7072 28.6096 45.3338 28.6511V31.0159C45.3338 31.2786 45.2093 31.652 45.5136 31.6935C45.8593 31.735 46.2327 31.7074 46.5646 31.5829C47.1869 31.334 47.5603 30.7531 47.5188 30.0893ZM43.2179 27.8628C44.9327 27.9181 48.8465 27.2819 48.8879 29.9648C48.9156 31.3616 47.8369 32.2329 46.5369 32.3573C46.2327 32.3988 45.9146 32.3988 45.5965 32.3712C45.2923 32.3435 45.3891 32.4403 45.3614 32.7031C45.3614 32.8829 45.3338 33.0765 45.3338 33.2562C45.3338 33.6158 45.1678 35.1094 45.5689 35.1924C45.8316 35.2477 46.3848 35.0817 46.5508 35.386C46.9518 36.1328 45.5274 35.87 45.2231 35.8423C44.8636 35.8147 44.504 35.787 44.1583 35.8147C43.854 35.8285 43.4945 35.9945 43.1902 35.8977C42.9413 35.8147 42.8583 35.4966 43.0658 35.3168C43.2317 35.1785 43.4806 35.1924 43.6743 35.1785C44.0338 35.1509 44.0062 35.0956 44.02 34.736C44.02 34.3349 44.0477 33.9201 44.0477 33.519C44.0615 32.6754 44.0615 31.8456 44.0477 31.0021C44.0477 30.1861 44.02 29.3702 43.9923 28.5543C43.7572 28.4298 43.4668 28.5404 43.2179 28.4713C42.9413 28.4021 42.9413 27.9596 43.1902 27.8628" fill="#010101"/>
</svg>
