<svg width="174" height="38" viewBox="0 0 174 38" fill="none" xmlns="http://www.w3.org/2000/svg">
<g clip-path="url(#clip0_7_1693)">
<path d="M0.446289 0.690918V37.0999L6.51081 31.0358V0.690918H0.446289Z" fill="black"/>
<path d="M19.8599 15.2594C21.007 13.7342 21.6781 11.843 21.6781 9.79316C21.6781 4.76619 17.6025 0.690918 12.5752 0.690918V6.75501C14.2469 6.75501 15.6136 8.10937 15.6136 9.79316C15.6136 11.477 14.2591 12.8313 12.5752 12.8313V18.8954C15.9186 18.8954 18.6397 21.6163 18.6397 24.9595C18.6397 28.3027 15.9186 31.0236 12.5752 31.0236V37.0877C19.2742 37.0877 24.7164 31.6581 24.7164 24.9473C24.7164 20.9818 22.8129 17.4556 19.8599 15.235V15.2594Z" fill="black"/>
<path d="M118.771 0.690918V37.0999L124.848 31.0358V0.690918H118.771Z" fill="black"/>
<path d="M130.913 0.690418V6.75452C134.269 6.75452 136.978 9.47543 136.978 12.8186V24.959C136.978 28.3144 134.257 31.0231 130.913 31.0231V37.0872C137.612 37.0872 143.054 31.6576 143.054 24.9468V12.8064C143.054 6.10784 137.624 0.666016 130.913 0.666016V0.690418Z" fill="black"/>
<path d="M88.437 0.690918V37.0999L94.5015 31.0358V0.690918H88.437Z" fill="black"/>
<path d="M112.719 0.690918H100.578V6.75501H112.719V0.690918Z" fill="black"/>
<path d="M112.719 12.8311H100.578V18.8951H112.719V12.8311Z" fill="black"/>
<path d="M112.719 31.0356H100.578V37.0997H112.719V31.0356Z" fill="black"/>
<path d="M149.119 18.8954L155.183 12.8313C155.183 9.47593 157.904 6.76722 161.248 6.76722C164.591 6.76722 167.312 9.48813 167.312 12.8313V18.8954L173.377 12.8313C173.377 6.13274 167.947 0.690918 161.235 0.690918C154.524 0.690918 149.094 6.12054 149.094 12.8313V18.8954H149.119Z" fill="black"/>
<path d="M167.324 24.9591C167.324 28.3145 164.603 31.0232 161.26 31.0232C157.916 31.0232 155.195 28.3023 155.195 24.9591V18.895L149.131 24.9591C149.131 31.6577 154.561 37.0995 161.272 37.0995C167.983 37.0995 173.413 31.6699 173.413 24.9591V18.895L167.349 24.9591H167.324Z" fill="black"/>
<path d="M58.0898 37.0999L64.1666 31.0358V0.690918H58.0898V37.0999Z" fill="black"/>
<path d="M70.231 0.690918V6.75501C73.5866 6.75501 76.2955 9.47592 76.2955 12.8191C76.2955 16.1623 73.5744 18.8832 70.231 18.8832V24.9473C76.93 24.9473 82.3722 19.5177 82.3722 12.8069C82.3722 6.09614 76.93 0.690918 70.231 0.690918Z" fill="black"/>
<path d="M76.2954 37.0999H82.3721V31.0358L76.2954 24.9595V37.0999Z" fill="black"/>
<path d="M45.9605 12.8313L39.896 18.8954L39.8838 37.0999L45.9605 31.0358V18.8954L52.025 12.8313V0.690918H45.9605V12.8313Z" fill="black"/>
<path d="M33.8199 12.8313V0.690918H27.7554V12.8313L33.8199 18.8954L39.8966 12.8313H33.8199Z" fill="black"/>
</g>
<defs>
<clipPath id="clip0_7_1693">
<rect width="172.943" height="36.409" fill="white" transform="translate(0.446289 0.690918)"/>
</clipPath>
</defs>
</svg>
