<svg width="39" height="12" viewBox="0 0 39 12" fill="none" xmlns="http://www.w3.org/2000/svg">
<path d="M3.86846 9.09743C3.07368 9.09743 2.42894 8.992 1.93423 8.78114C1.43952 8.56217 1.06646 8.2621 0.815055 7.88093C0.571756 7.49976 0.429832 7.06994 0.389282 6.59145H1.33815C1.36248 6.98073 1.49224 7.29702 1.72743 7.54031C1.96262 7.7755 2.27079 7.94987 2.65196 8.06341C3.04124 8.17695 3.46701 8.23372 3.92928 8.23372C4.61052 8.23372 5.14983 8.11612 5.54722 7.88093C5.94461 7.63763 6.1433 7.2808 6.1433 6.81042C6.1433 6.52657 6.04193 6.29949 5.83918 6.12918C5.64454 5.95076 5.38097 5.80478 5.04846 5.69124C4.72406 5.5777 4.36722 5.47633 3.97794 5.38712C3.58866 5.2898 3.19533 5.18842 2.79794 5.08299C2.40866 4.97757 2.04777 4.84375 1.71526 4.68155C1.39086 4.51935 1.12729 4.31255 0.92454 4.06114C0.729901 3.80162 0.632581 3.47317 0.632581 3.07578C0.632581 2.41887 0.88399 1.88361 1.38681 1.47001C1.89774 1.0564 2.65602 0.849593 3.66165 0.849593C4.37533 0.849593 4.9633 0.959078 5.42557 1.17805C5.88784 1.38891 6.23251 1.6687 6.45959 2.01743C6.69478 2.36616 6.82454 2.74327 6.84887 3.14877H5.91217C5.86351 2.74327 5.66076 2.40265 5.30392 2.12691C4.94708 1.84306 4.39966 1.70114 3.66165 1.70114C3.2075 1.70114 2.83849 1.74574 2.55464 1.83495C2.27079 1.92416 2.05183 2.04176 1.89774 2.18774C1.75176 2.32561 1.65038 2.47159 1.59361 2.62567C1.54495 2.77976 1.52062 2.92574 1.52062 3.06361C1.52062 3.33124 1.61794 3.55021 1.81258 3.72052C2.01533 3.88272 2.2789 4.02059 2.6033 4.13413C2.93581 4.23956 3.30076 4.33688 3.69815 4.42609C4.09554 4.5153 4.48887 4.61667 4.87815 4.73021C5.27554 4.83564 5.63643 4.97351 5.96083 5.14382C6.29334 5.30602 6.55691 5.51688 6.75155 5.7764C6.9543 6.03592 7.05567 6.36842 7.05567 6.77392C7.05567 7.52004 6.77183 8.09585 6.20413 8.50135C5.63643 8.89873 4.85787 9.09743 3.86846 9.09743Z" fill="black"/>
<path d="M11.8637 9.09743C11.2554 9.09743 10.7283 8.95956 10.2822 8.68382C9.83619 8.39997 9.48746 8.0188 9.23605 7.54031C8.99275 7.06183 8.8711 6.53468 8.8711 5.95887C8.8711 5.37495 8.99275 4.84781 9.23605 4.37743C9.48746 3.89894 9.83619 3.52183 10.2822 3.24609C10.7283 2.96224 11.2554 2.82031 11.8637 2.82031C12.5855 2.82031 13.1978 3.00684 13.7006 3.3799C14.2115 3.75296 14.5562 4.2355 14.7346 4.82753H13.7492C13.6114 4.4788 13.3884 4.19495 13.0802 3.97598C12.7801 3.75702 12.4152 3.64753 11.9853 3.64753C11.5393 3.64753 11.15 3.75296 10.8175 3.96382C10.485 4.17468 10.2295 4.45447 10.0511 4.8032C9.87268 5.15193 9.78347 5.53715 9.78347 5.95887C9.78347 6.37248 9.87268 6.7577 10.0511 7.11454C10.2295 7.46327 10.485 7.74306 10.8175 7.95392C11.15 8.16478 11.5393 8.27021 11.9853 8.27021C12.4152 8.27021 12.7801 8.16073 13.0802 7.94176C13.3884 7.72279 13.6114 7.43894 13.7492 7.09021H14.7346C14.5562 7.68224 14.2115 8.16478 13.7006 8.53784C13.1978 8.9109 12.5855 9.09743 11.8637 9.09743Z" fill="black"/>
<path d="M19.4783 9.09743C18.8619 9.09743 18.3267 8.95956 17.8725 8.68382C17.4183 8.39997 17.0696 8.0188 16.8263 7.54031C16.583 7.06183 16.4614 6.53468 16.4614 5.95887C16.4614 5.37495 16.583 4.84781 16.8263 4.37743C17.0696 3.89894 17.4183 3.52183 17.8725 3.24609C18.3267 2.96224 18.8619 2.82031 19.4783 2.82031C20.1027 2.82031 20.638 2.96224 21.084 3.24609C21.5382 3.52183 21.8869 3.89894 22.1302 4.37743C22.3735 4.84781 22.4952 5.37495 22.4952 5.95887C22.4952 6.53468 22.3735 7.06183 22.1302 7.54031C21.8869 8.0188 21.5382 8.39997 21.084 8.68382C20.638 8.95956 20.1027 9.09743 19.4783 9.09743ZM19.4783 8.27021C19.9324 8.27021 20.3136 8.16478 20.6218 7.95392C20.9381 7.74306 21.1773 7.46327 21.3395 7.11454C21.5017 6.7577 21.5828 6.37248 21.5828 5.95887C21.5828 5.53715 21.5017 5.15193 21.3395 4.8032C21.1773 4.45447 20.9381 4.17468 20.6218 3.96382C20.3136 3.75296 19.9324 3.64753 19.4783 3.64753C19.0322 3.64753 18.6511 3.75296 18.3348 3.96382C18.0185 4.17468 17.7792 4.45447 17.617 4.8032C17.4548 5.15193 17.3737 5.53715 17.3737 5.95887C17.3737 6.37248 17.4548 6.7577 17.617 7.11454C17.7792 7.46327 18.0185 7.74306 18.3348 7.95392C18.6511 8.16478 19.0322 8.27021 19.4783 8.27021Z" fill="black"/>
<path d="M24.6782 11.4088V2.91763H25.5906V3.89083C25.8177 3.55832 26.1096 3.2988 26.4665 3.11227C26.8314 2.91763 27.2653 2.82031 27.7681 2.82031C28.3601 2.82031 28.8751 2.96224 29.3131 3.24609C29.7591 3.52183 30.1038 3.89894 30.3471 4.37743C30.5904 4.84781 30.712 5.37495 30.712 5.95887C30.712 6.53468 30.5904 7.06183 30.3471 7.54031C30.1038 8.0188 29.7591 8.39997 29.3131 8.68382C28.8751 8.95956 28.3601 9.09743 27.7681 9.09743C27.2653 9.09743 26.8314 9.00011 26.4665 8.80547C26.1096 8.60272 25.8177 8.33915 25.5906 8.01475V11.4088H24.6782ZM27.6465 8.27021C28.1006 8.27021 28.4858 8.16478 28.8021 7.95392C29.1265 7.74306 29.3739 7.46327 29.5442 7.11454C29.7145 6.7577 29.7997 6.37248 29.7997 5.95887C29.7997 5.53715 29.7145 5.15193 29.5442 4.8032C29.3739 4.45447 29.1265 4.17468 28.8021 3.96382C28.4858 3.75296 28.1006 3.64753 27.6465 3.64753C27.2004 3.64753 26.8192 3.75296 26.503 3.96382C26.1867 4.17468 25.9474 4.45447 25.7852 4.8032C25.623 5.15193 25.5419 5.53715 25.5419 5.95887C25.5419 6.37248 25.623 6.7577 25.7852 7.11454C25.9474 7.46327 26.1867 7.74306 26.503 7.95392C26.8192 8.16478 27.2004 8.27021 27.6465 8.27021Z" fill="black"/>
<path d="M32.8862 9.00011V2.91763H33.7986V4.41392C33.831 4.30849 33.8919 4.17062 33.9811 4.00031C34.0784 3.8219 34.2163 3.64348 34.3947 3.46506C34.5731 3.28664 34.7961 3.1366 35.0638 3.01495C35.3395 2.88519 35.6639 2.82031 36.037 2.82031H36.0978V3.73269H35.9883C35.5341 3.73269 35.1408 3.85839 34.8083 4.1098C34.4839 4.3531 34.2325 4.67344 34.0541 5.07083C33.8838 5.46011 33.7986 5.87777 33.7986 6.32382V9.00011H32.8862Z" fill="black"/>
<path d="M38.0165 1.89578V0.703613H39.0019V1.89578H38.0165ZM38.053 9.00011V2.91763H38.9654V9.00011H38.053Z" fill="black"/>
</svg>
