<svg width="45" height="8" viewBox="0 0 45 8" fill="none" xmlns="http://www.w3.org/2000/svg">
<path d="M2.37457 7.07167C2.02812 7.07167 1.70854 6.997 1.41585 6.84767C1.12913 6.69236 0.893183 6.4833 0.708009 6.22047C0.522836 5.95764 0.403369 5.67092 0.349609 5.36031L0.994729 4.95711C1.21574 5.88298 1.67868 6.34591 2.38353 6.34591C2.68817 6.34591 2.93606 6.25631 3.12721 6.07711C3.31836 5.89194 3.41393 5.62612 3.41393 5.27967C3.41393 5.05268 3.3542 4.85855 3.23473 4.69727C3.11526 4.53599 2.96593 4.40159 2.78673 4.29407C2.60753 4.18655 2.35366 4.05514 2.02513 3.89983C1.61894 3.70271 1.29638 3.47274 1.05745 3.20991C0.824489 2.94111 0.708009 2.60063 0.708009 2.18847C0.708009 1.89578 0.776703 1.63295 0.914089 1.39999C1.05148 1.16703 1.23964 0.984844 1.47857 0.853431C1.7175 0.722018 1.9863 0.656311 2.28497 0.656311C2.69713 0.656311 3.03164 0.745911 3.28849 0.925111C3.54534 1.09834 3.74545 1.34922 3.88881 1.67775L3.25265 2.08095C3.0615 1.61503 2.73894 1.38207 2.28497 1.38207C2.04006 1.38207 1.84294 1.45674 1.69361 1.60607C1.54428 1.7554 1.46961 1.9346 1.46961 2.14367C1.46961 2.35274 1.52636 2.53194 1.63985 2.68127C1.75334 2.8306 1.89372 2.95604 2.06097 3.05759C2.2342 3.15914 2.46716 3.27562 2.75985 3.40703C3.2198 3.6161 3.57521 3.861 3.82609 4.14175C4.07697 4.41652 4.20241 4.78388 4.20241 5.24383C4.20241 5.6082 4.12177 5.92778 3.96049 6.20255C3.80518 6.47732 3.58716 6.69236 3.30641 6.84767C3.03164 6.997 2.72102 7.07167 2.37457 7.07167Z" fill="white"/>
<path d="M5.38219 0.727991H6.16171V3.29055H9.12747V0.727991H9.90699V6.99999H9.12747V4.01631H6.16171V6.99999H5.38219V0.727991Z" fill="white"/>
<path d="M13.9456 7.07167C13.4319 7.07167 12.96 6.94623 12.5299 6.69535C12.0998 6.4385 11.7563 6.06815 11.4995 5.58431C11.2486 5.10047 11.1232 4.52703 11.1232 3.86399C11.1232 3.20095 11.2486 2.62751 11.4995 2.14367C11.7563 1.65983 12.0998 1.29247 12.5299 1.04159C12.96 0.784738 13.4319 0.656311 13.9456 0.656311C14.4533 0.656311 14.9222 0.784738 15.3523 1.04159C15.7824 1.29247 16.1228 1.65983 16.3737 2.14367C16.6306 2.62751 16.759 3.20095 16.759 3.86399C16.759 4.52703 16.6306 5.10047 16.3737 5.58431C16.1228 6.06815 15.7824 6.4385 15.3523 6.69535C14.9222 6.94623 14.4533 7.07167 13.9456 7.07167ZM13.9456 6.34591C14.3219 6.34591 14.6624 6.25332 14.967 6.06815C15.2716 5.88298 15.5136 5.60522 15.6928 5.23487C15.872 4.85855 15.9616 4.40159 15.9616 3.86399C15.9616 3.32639 15.872 2.87242 15.6928 2.50207C15.5136 2.12575 15.2716 1.845 14.967 1.65983C14.6624 1.47466 14.3219 1.38207 13.9456 1.38207C13.5693 1.38207 13.2288 1.47466 12.9241 1.65983C12.6195 1.845 12.3776 2.12575 12.1984 2.50207C12.0192 2.87242 11.9296 3.32639 11.9296 3.86399C11.9296 4.40159 12.0192 4.85855 12.1984 5.23487C12.3776 5.60522 12.6195 5.88298 12.9241 6.06815C13.2288 6.25332 13.5693 6.34591 13.9456 6.34591Z" fill="white"/>
<path d="M17.9822 0.727991H20.1863C20.7777 0.727991 21.2347 0.889271 21.5572 1.21183C21.8858 1.52842 22.05 1.96148 22.05 2.51103C22.05 3.06655 21.8858 3.50559 21.5572 3.82815C21.2347 4.14474 20.7777 4.30303 20.1863 4.30303H18.7617V6.99999H17.9822V0.727991ZM20.1774 3.57727C20.5418 3.57727 20.8106 3.48468 20.9838 3.29951C21.157 3.10836 21.2436 2.84554 21.2436 2.51103C21.2436 2.1825 21.157 1.92564 20.9838 1.74047C20.8106 1.54932 20.5418 1.45375 20.1774 1.45375H18.7617V3.57727H20.1774Z" fill="white"/>
<path d="M25.4372 0.727991H26.3063L29.1556 5.67391V0.727991H29.9262V6.99999H29.057L26.2167 2.07199V6.99999H25.4372V0.727991Z" fill="white"/>
<path d="M33.9743 7.07167C33.4606 7.07167 32.9887 6.94623 32.5586 6.69535C32.1286 6.4385 31.7851 6.06815 31.5282 5.58431C31.2774 5.10047 31.1519 4.52703 31.1519 3.86399C31.1519 3.20095 31.2774 2.62751 31.5282 2.14367C31.7851 1.65983 32.1286 1.29247 32.5586 1.04159C32.9887 0.784738 33.4606 0.656311 33.9743 0.656311C34.4821 0.656311 34.951 0.784738 35.381 1.04159C35.8111 1.29247 36.1516 1.65983 36.4025 2.14367C36.6593 2.62751 36.7878 3.20095 36.7878 3.86399C36.7878 4.52703 36.6593 5.10047 36.4025 5.58431C36.1516 6.06815 35.8111 6.4385 35.381 6.69535C34.951 6.94623 34.4821 7.07167 33.9743 7.07167ZM33.9743 6.34591C34.3506 6.34591 34.6911 6.25332 34.9958 6.06815C35.3004 5.88298 35.5423 5.60522 35.7215 5.23487C35.9007 4.85855 35.9903 4.40159 35.9903 3.86399C35.9903 3.32639 35.9007 2.87242 35.7215 2.50207C35.5423 2.12575 35.3004 1.845 34.9958 1.65983C34.6911 1.47466 34.3506 1.38207 33.9743 1.38207C33.598 1.38207 33.2575 1.47466 32.9529 1.65983C32.6482 1.845 32.4063 2.12575 32.2271 2.50207C32.0479 2.87242 31.9583 3.32639 31.9583 3.86399C31.9583 4.40159 32.0479 4.85855 32.2271 5.23487C32.4063 5.60522 32.6482 5.88298 32.9529 6.06815C33.2575 6.25332 33.598 6.34591 33.9743 6.34591Z" fill="white"/>
<path d="M37.225 0.727991H38.0493L39.3395 5.83519L40.7015 1.39103H41.3914L42.7443 5.83519L44.0435 0.727991H44.8589L43.1655 6.99999H42.377L41.0419 2.62751L39.7159 6.99999H38.9184L37.225 0.727991Z" fill="white"/>
</svg>
