<svg xmlns="http://www.w3.org/2000/svg" viewBox="0 0 66.93 15.75"><defs><style>.cls-1,.cls-2{isolation:isolate;}.cls-2{mix-blend-mode:multiply;}.cls-3{fill-rule:evenodd;}.cls-4{fill:#fff;}</style></defs><g class="cls-1"><g id="Rectangle_2" data-name="Rectangle 2" class="cls-2"><g id="Rectangle_2-2" data-name="Rectangle 2"><path class="cls-3" d="M62.2,3.15H10.63A7.68,7.68,0,0,0,3,10.83v.39a7.68,7.68,0,0,0,7.68,7.68H62.2a7.68,7.68,0,0,0,7.68-7.68v-.39A7.68,7.68,0,0,0,62.2,3.15Z" transform="translate(-2.95 -3.15)"/></g></g><g id="Découvrir"><path class="cls-4" d="M24.21,10.52a2.19,2.19,0,0,1,.7-1.64,2.3,2.3,0,0,1,1.68-.69,2.37,2.37,0,0,1,2.35,2.35,2.21,2.21,0,0,1-.7,1.66,2.4,2.4,0,0,1-3.26.08A2.25,2.25,0,0,1,24.21,10.52Zm.69,0a1.67,1.67,0,0,0,1.66,1.71,1.61,1.61,0,0,0,1.2-.49,1.75,1.75,0,0,0,0-2.42,1.68,1.68,0,0,0-2.87,1.2Zm4.9,2.27V8l3.3,3.45V8.28h.68v4.79l-3.3-3.44V12.8Zm6.31-3.88V12.8h-.68V8.92h-1V8.28h2.76v.64Zm1.65,3.88V8.28h1a3.42,3.42,0,0,1,1.07.13,2,2,0,0,1,.78.45,2.2,2.2,0,0,1,.7,1.68,2.18,2.18,0,0,1-.73,1.69,2.15,2.15,0,0,1-.77.44,3.34,3.34,0,0,1-1.07.13Zm.68-.64h.31a2.37,2.37,0,0,0,.76-.1,1.45,1.45,0,0,0,.55-.32,1.55,1.55,0,0,0,.51-1.2,1.58,1.58,0,0,0-.5-1.21,1.91,1.91,0,0,0-1.32-.41h-.31Zm6.17-3.24H42.8V10h1.76v.64H42.8v1.51h1.81v.64h-2.5V8.28h2.5Zm1.58,1.16L48,8.28h.91l-2,2,2,2.48H48l-1.63-2-.14.14V12.8h-.68V8.28h.68Z" transform="translate(-2.95 -3.15)"/></g></g></svg>