<svg xmlns="http://www.w3.org/2000/svg" viewBox="0 0 66.93 15.75"><defs><style>.cls-1,.cls-2{isolation:isolate;}.cls-2{mix-blend-mode:multiply;}.cls-3{fill-rule:evenodd;}.cls-4{fill:#fff;}</style></defs><g class="cls-1"><g id="Rectangle_2" data-name="Rectangle 2" class="cls-2"><g id="Rectangle_2-2" data-name="Rectangle 2"><path class="cls-3" d="M62.2,3.15H10.63A7.68,7.68,0,0,0,3,10.83v.39a7.68,7.68,0,0,0,7.68,7.68H62.2a7.68,7.68,0,0,0,7.68-7.68v-.39A7.68,7.68,0,0,0,62.2,3.15Z" transform="translate(-2.95 -3.15)"/></g></g><g id="Découvrir"><path class="cls-4" d="M28.69,9l-.55.33a1,1,0,0,0-.3-.35.63.63,0,0,0-.38-.1A.72.72,0,0,0,27,9a.5.5,0,0,0-.19.4c0,.22.17.4.49.54l.46.18a2,2,0,0,1,.8.54,1.25,1.25,0,0,1,.26.79,1.36,1.36,0,0,1-.42,1,1.45,1.45,0,0,1-1,.41,1.35,1.35,0,0,1-1-.35,1.6,1.6,0,0,1-.47-1l.69-.15a1.16,1.16,0,0,0,.16.55.7.7,0,0,0,.62.29.72.72,0,0,0,.74-.75.61.61,0,0,0,0-.24A.53.53,0,0,0,28,11a1.12,1.12,0,0,0-.2-.17,2.79,2.79,0,0,0-.3-.15L27,10.53q-.93-.39-.93-1.14a1.11,1.11,0,0,1,.39-.86,1.4,1.4,0,0,1,1-.34A1.34,1.34,0,0,1,28.69,9ZM33,8.52v.81a1.88,1.88,0,0,0-1.22-.5,1.58,1.58,0,0,0-1.18.5,1.71,1.71,0,0,0-.48,1.22,1.63,1.63,0,0,0,.48,1.2,1.69,1.69,0,0,0,1.79.38,2.09,2.09,0,0,0,.29-.16l.32-.24v.82a2.47,2.47,0,0,1-1.23.33,2.34,2.34,0,0,1-2.34-2.32A2.31,2.31,0,0,1,30,9a2.26,2.26,0,0,1,1.82-.83A2.32,2.32,0,0,1,33,8.52Zm.61,2a2.19,2.19,0,0,1,.7-1.64,2.35,2.35,0,0,1,3.33,0,2.32,2.32,0,0,1,0,3.32,2.4,2.4,0,0,1-3.26.08A2.21,2.21,0,0,1,33.58,10.52Zm.69,0a1.67,1.67,0,0,0,1.66,1.71,1.63,1.63,0,0,0,1.2-.49,1.65,1.65,0,0,0,.49-1.21,1.69,1.69,0,0,0-.48-1.22,1.7,1.7,0,0,0-2.39,0A1.67,1.67,0,0,0,34.27,10.53Zm5.58.43V12.8h-.68V8.28h.77a3.2,3.2,0,0,1,.86.08,1.19,1.19,0,0,1,.51.29,1.31,1.31,0,0,1,.39,1,1.25,1.25,0,0,1-.41,1,1.67,1.67,0,0,1-1.13.36Zm0-.63h.25c.63,0,.94-.24.94-.72s-.32-.7-1-.7h-.22Zm4.09.54,1.4,1.93H44.5L43.21,11h-.12V12.8h-.68V8.28h.8a2,2,0,0,1,1.29.33,1.25,1.25,0,0,1,.44,1,1.26,1.26,0,0,1-.28.83A1.18,1.18,0,0,1,43.94,10.87Zm-.85-.52h.21c.65,0,1-.24,1-.74s-.31-.69-.94-.69h-.24ZM46.7,8.28V12.8H46V8.28Z" transform="translate(-2.95 -3.15)"/></g></g></svg>