<?xml version="1.0" encoding="UTF-8"?>
<svg id="Calque_1" xmlns="http://www.w3.org/2000/svg" version="1.1" viewBox="0 0 50.7 7">
  <!-- Generator: Adobe Illustrator 29.1.0, SVG Export Plug-In . SVG Version: 2.1.0 Build 142)  -->
  <defs>
    <style>
      .st0 {
        fill: #fff;
      }
    </style>
  </defs>
  <path class="st0" d="M5.1,2.1h-.8c-.1-1-.7-1.4-1.7-1.4s-1.5.3-1.5,1.1c0,1.6,4.3.5,4.3,3.1s-1.4,2-2.6,2-2.8-.7-2.8-2.4h.8c0,1.1.9,1.6,1.9,1.6s1.7-.3,1.7-1.2C4.5,3.2.2,4.4.2,2S1.4,0,2.6,0s2.4.6,2.5,2.1Z"/>
  <path class="st0" d="M6.5,6.8V.2h.9v2.9h3.5V.2h.9v6.7h-.9v-3.1h-3.5v3.1h-.9Z"/>
  <path class="st0" d="M13.7,3.5c0,1.3.7,2.8,2.3,2.8s2.3-1.4,2.3-2.8-.7-2.8-2.3-2.8-2.3,1.4-2.3,2.8ZM12.8,3.5c0-1.8,1.1-3.5,3.2-3.5s3.2,1.7,3.2,3.5-1.1,3.5-3.2,3.5-3.2-1.7-3.2-3.5Z"/>
  <path class="st0" d="M21.2.9v2.5h1.7c1,0,1.5-.4,1.5-1.2s-.4-1.2-1.5-1.2h-1.7ZM20.3,6.8V.2h2.9c1.3,0,2,.7,2,2s-.7,2-2,2h-2v2.7h-.9Z"/>
  <path class="st0" d="M29,6.8V.2h.9l3.5,5.4h0V.2h.8v6.7h-1l-3.5-5.4h0v5.4h-.8Z"/>
  <path class="st0" d="M36.3,3.5c0,1.3.7,2.8,2.3,2.8s2.3-1.4,2.3-2.8-.7-2.8-2.3-2.8-2.3,1.4-2.3,2.8ZM35.4,3.5c0-1.8,1.1-3.5,3.2-3.5s3.2,1.7,3.2,3.5-1.1,3.5-3.2,3.5-3.2-1.7-3.2-3.5Z"/>
  <path class="st0" d="M50.7.2l-1.8,6.7h-.9l-1.5-5.6h0l-1.5,5.6h-.9l-1.7-6.7h.9l1.3,5.6h0l1.5-5.6h1l1.5,5.6h0l1.4-5.6h.9Z"/>
</svg>