<svg xmlns="http://www.w3.org/2000/svg" viewBox="0 0 66.93 15.75"><defs><style>.cls-1,.cls-2{isolation:isolate;}.cls-2{mix-blend-mode:multiply;}.cls-3{fill-rule:evenodd;}.cls-4{fill:#fff;}</style></defs><g class="cls-1"><g id="Rectangle_2" data-name="Rectangle 2" class="cls-2"><g id="Rectangle_2-2" data-name="Rectangle 2"><path class="cls-3" d="M62.2,3.15H10.63A7.68,7.68,0,0,0,3,10.83v.39a7.68,7.68,0,0,0,7.68,7.68H62.2a7.68,7.68,0,0,0,7.68-7.68v-.39A7.68,7.68,0,0,0,62.2,3.15Z" transform="translate(-2.95 -3.15)"/></g></g><g id="Découvrir"><path class="cls-4" d="M20.75,12.8V8.28h.95a3.42,3.42,0,0,1,1.07.13,2,2,0,0,1,.77.45,2.14,2.14,0,0,1,.7,1.68,2.15,2.15,0,0,1-.73,1.69,2.12,2.12,0,0,1-.76.44,3.34,3.34,0,0,1-1.07.13Zm.68-.64h.31a2.37,2.37,0,0,0,.76-.1,1.69,1.69,0,0,0,.55-.32,1.55,1.55,0,0,0,.51-1.2,1.58,1.58,0,0,0-.5-1.21,1.91,1.91,0,0,0-1.32-.41h-.31ZM27.6,8.92H25.79V10h1.76v.65H25.79v1.51H27.6v.64H25.1V8.28h2.5Zm3.45,0-.55.33a.83.83,0,0,0-.3-.35.6.6,0,0,0-.37-.1.77.77,0,0,0-.48.16.52.52,0,0,0-.18.4c0,.22.16.4.49.54l.45.18a2,2,0,0,1,.81.54,1.24,1.24,0,0,1,.25.79,1.36,1.36,0,0,1-.42,1,1.43,1.43,0,0,1-1,.41,1.36,1.36,0,0,1-1-.35,1.6,1.6,0,0,1-.47-1L29,11.4a1.14,1.14,0,0,0,.17.55.69.69,0,0,0,.61.29.72.72,0,0,0,.74-.75.62.62,0,0,0-.15-.45.85.85,0,0,0-.2-.17l-.29-.15-.44-.19q-.93-.39-.93-1.14a1.11,1.11,0,0,1,.39-.86,1.4,1.4,0,0,1,1-.34A1.34,1.34,0,0,1,31.05,9Zm4.29-.43v.81a1.93,1.93,0,0,0-1.23-.5,1.57,1.57,0,0,0-1.17.5,1.71,1.71,0,0,0-.48,1.22,1.63,1.63,0,0,0,.48,1.2,1.56,1.56,0,0,0,1.17.49,1.64,1.64,0,0,0,.62-.11L35,12l.32-.24v.82a2.47,2.47,0,0,1-1.23.33,2.32,2.32,0,0,1-2.34-2.32A2.31,2.31,0,0,1,32.34,9a2.25,2.25,0,0,1,1.82-.83A2.34,2.34,0,0,1,35.34,8.52Zm1.54-.24V11a1.46,1.46,0,0,0,.19.85.94.94,0,0,0,.8.39.93.93,0,0,0,.8-.39,1.42,1.42,0,0,0,.19-.85V8.28h.69v2.91a1.7,1.7,0,0,1-2.91,1.18,1.67,1.67,0,0,1-.44-1.18V8.28Zm3.75,4.52V8.28h.68a2.81,2.81,0,0,1,.72.07,1,1,0,0,1,.46.23A1.35,1.35,0,0,1,42.8,9a1.44,1.44,0,0,1,.11.53,1.07,1.07,0,0,1-.37.83,1.07,1.07,0,0,1,.57.43,1.26,1.26,0,0,1-.17,1.6,1.14,1.14,0,0,1-.51.31,2.76,2.76,0,0,1-.77.09Zm.68-2.58h.22a.77.77,0,0,0,.55-.17.65.65,0,0,0,.18-.5.62.62,0,0,0-.18-.48.77.77,0,0,0-.53-.17h-.24Zm0,1.94h.42a1,1,0,0,0,.68-.18.66.66,0,0,0,0-1,1.12,1.12,0,0,0-.76-.2h-.35Zm4.4-1.29,1.4,1.93h-.83L45,11h-.12V12.8h-.68V8.28H45a2,2,0,0,1,1.29.33,1.22,1.22,0,0,1,.44,1,1.31,1.31,0,0,1-.27.83A1.23,1.23,0,0,1,45.71,10.87Zm-.85-.52h.22c.64,0,1-.24,1-.74s-.32-.69-.95-.69h-.24Zm3.61-2.07V12.8h-.68V8.28Zm2.62,2.59,1.4,1.93h-.83L50.37,11h-.13V12.8h-.68V8.28h.8a2,2,0,0,1,1.29.33,1.22,1.22,0,0,1,.44,1,1.31,1.31,0,0,1-.27.83A1.21,1.21,0,0,1,51.09,10.87Zm-.85-.52h.22c.65,0,1-.24,1-.74s-.32-.69-.94-.69h-.25Z" transform="translate(-2.95 -3.15)"/></g></g></svg>