<svg width="45" height="10" viewBox="0 0 45 10" fill="none" xmlns="http://www.w3.org/2000/svg">
<path d="M4.56191 9.0974C3.95366 9.0974 3.39813 8.99197 2.89531 8.78111C2.39249 8.57025 1.95861 8.27424 1.59366 7.89307C1.23682 7.5119 0.961085 7.07397 0.766446 6.57926C0.571807 6.07644 0.474487 5.54118 0.474487 4.97348C0.474487 4.39768 0.571807 3.86242 0.766446 3.36771C0.961085 2.873 1.23682 2.43507 1.59366 2.0539C1.95861 1.67273 2.39249 1.37672 2.89531 1.16586C3.39813 0.954997 3.95366 0.849568 4.56191 0.849568C5.17016 0.849568 5.72569 0.954997 6.22851 1.16586C6.73133 1.37672 7.16115 1.67273 7.51799 2.0539C7.88294 2.43507 8.16273 2.873 8.35737 3.36771C8.55201 3.86242 8.64933 4.39768 8.64933 4.97348C8.64933 5.54118 8.55201 6.07644 8.35737 6.57926C8.16273 7.07397 7.88294 7.5119 7.51799 7.89307C7.16115 8.27424 6.73133 8.57025 6.22851 8.78111C5.72569 8.99197 5.17016 9.0974 4.56191 9.0974ZM4.56191 8.20936C5.21882 8.20936 5.78246 8.06744 6.25284 7.78359C6.73133 7.49163 7.09627 7.10235 7.34768 6.61575C7.6072 6.12105 7.73696 5.57362 7.73696 4.97348C7.73696 4.36524 7.6072 3.81782 7.34768 3.33122C7.09627 2.84462 6.73133 2.4594 6.25284 2.17555C5.78246 1.88359 5.21882 1.73761 4.56191 1.73761C3.91311 1.73761 3.34947 1.88359 2.87098 2.17555C2.39249 2.4594 2.02349 2.84462 1.76397 3.33122C1.51256 3.81782 1.38686 4.36524 1.38686 4.97348C1.38686 5.57362 1.51256 6.12105 1.76397 6.61575C2.02349 7.10235 2.39249 7.49163 2.87098 7.78359C3.34947 8.06744 3.91311 8.20936 4.56191 8.20936Z" fill="black"/>
<path d="M10.8877 9.00008V2.91761H11.8001V3.86647C12.019 3.57452 12.2867 3.32716 12.6029 3.12441C12.9192 2.92166 13.3247 2.82029 13.8194 2.82029C14.2412 2.82029 14.6345 2.92166 14.9994 3.12441C15.3725 3.31905 15.6726 3.61507 15.8996 4.01245C16.1348 4.40173 16.2524 4.88428 16.2524 5.46008V9.00008H15.3401V5.48441C15.3401 4.93294 15.1819 4.49094 14.8656 4.15843C14.5493 3.81781 14.1398 3.64751 13.637 3.64751C13.2963 3.64751 12.9882 3.72455 12.7124 3.87864C12.4367 4.03273 12.2137 4.2517 12.0434 4.53555C11.8812 4.81129 11.8001 5.13163 11.8001 5.49658V9.00008H10.8877Z" fill="black"/>
<path d="M19.2655 9.00008V3.7205H18.0247V2.91761H19.2655V0.740083H20.1779V2.91761H21.5769V3.7205H20.1779V9.00008H19.2655Z" fill="black"/>
<path d="M25.9977 9.0974C25.4057 9.0974 24.8866 8.95953 24.4406 8.68379C24.0026 8.39995 23.662 8.01878 23.4187 7.54029C23.1754 7.0618 23.0538 6.53465 23.0538 5.95885C23.0538 5.37493 23.1754 4.84778 23.4187 4.3774C23.662 3.89891 24.0026 3.5218 24.4406 3.24606C24.8866 2.96221 25.4057 2.82029 25.9977 2.82029C26.5005 2.82029 26.9303 2.91761 27.2872 3.11225C27.6521 3.30689 27.9481 3.57046 28.1752 3.90297V0.484619H29.0876V9.00008H28.1752V8.02689C27.9481 8.35129 27.6521 8.6108 27.2872 8.80544C26.9303 9.00008 26.5005 9.0974 25.9977 9.0974ZM26.1193 8.27019C26.5735 8.27019 26.9547 8.16476 27.2628 7.9539C27.5791 7.74304 27.8184 7.46324 27.9806 7.11452C28.1428 6.75768 28.2239 6.37245 28.2239 5.95885C28.2239 5.53713 28.1428 5.1519 27.9806 4.80318C27.8184 4.45445 27.5791 4.17465 27.2628 3.96379C26.9547 3.75294 26.5735 3.64751 26.1193 3.64751C25.6733 3.64751 25.2881 3.75294 24.9637 3.96379C24.6393 4.17465 24.3919 4.45445 24.2216 4.80318C24.0513 5.1519 23.9661 5.53713 23.9661 5.95885C23.9661 6.37245 24.0513 6.75768 24.2216 7.11452C24.3919 7.46324 24.6393 7.74304 24.9637 7.9539C25.2881 8.16476 25.6733 8.27019 26.1193 8.27019Z" fill="black"/>
<path d="M34.3395 9.0974C33.7232 9.0974 33.1838 8.95953 32.7216 8.68379C32.2593 8.39995 31.8984 8.01878 31.6389 7.54029C31.3875 7.0618 31.2618 6.53465 31.2618 5.95885C31.2618 5.37493 31.3834 4.84778 31.6267 4.3774C31.87 3.89891 32.2188 3.5218 32.6729 3.24606C33.1271 2.96221 33.6623 2.82029 34.2787 2.82029C34.9032 2.82029 35.4384 2.96221 35.8845 3.24606C36.3386 3.5218 36.6874 3.89891 36.9306 4.3774C37.1739 4.84778 37.2956 5.37493 37.2956 5.95885V6.32379H32.1985C32.2471 6.68063 32.3607 7.00909 32.5391 7.30915C32.7256 7.60111 32.973 7.8363 33.2812 8.01472C33.5893 8.18503 33.9462 8.27019 34.3517 8.27019C34.7815 8.27019 35.1424 8.17692 35.4344 7.99039C35.7263 7.79575 35.9534 7.5484 36.1156 7.24833H37.1131C36.9023 7.7917 36.5657 8.23775 36.1034 8.58647C35.6493 8.92709 35.0613 9.0974 34.3395 9.0974ZM32.2106 5.47225H36.3467C36.2656 4.95321 36.0467 4.51933 35.6898 4.1706C35.333 3.82187 34.8626 3.64751 34.2787 3.64751C33.6948 3.64751 33.2244 3.82187 32.8676 4.1706C32.5188 4.51933 32.2999 4.95321 32.2106 5.47225Z" fill="black"/>
<path d="M39.3836 9.00008V0.484619H40.296V5.93452L43.2277 2.91761H44.505L42.0599 5.3141L44.6875 9.00008H43.5683L41.4395 5.94668L40.296 7.07802V9.00008H39.3836Z" fill="black"/>
</svg>
