<?xml version="1.0" encoding="utf-8"?>
<!-- Generator: Adobe Illustrator 26.0.1, SVG Export Plug-In . SVG Version: 6.00 Build 0)  -->
<svg version="1.1" id="Layer_1" xmlns="http://www.w3.org/2000/svg" xmlns:xlink="http://www.w3.org/1999/xlink" x="0px" y="0px"
	 viewBox="0 0 66.9 15.8" style="enable-background:new 0 0 66.9 15.8;" xml:space="preserve">
<style type="text/css">
	.st0{fill-rule:evenodd;clip-rule:evenodd;}
	.st1{fill:#FFFFFF;}
</style>
<g>
	<g id="Rectangle_2">
		<g id="Rectangle_2-2">
			<path class="st0" d="M59.2,0H7.7C3.5,0,0,3.5,0,7.7v0.4c0,4.2,3.4,7.7,7.7,7.7h51.5c4.2,0,7.7-3.4,7.7-7.7V7.7
				C66.9,3.4,63.5,0,59.2,0z"/>
		</g>
	</g>
</g>
<g>
	<path class="st1" d="M15.8,10.3V5.4h1c0.5,0,0.9,0,1.2,0.1c0.3,0.1,0.6,0.3,0.8,0.5c0.5,0.5,0.8,1.1,0.8,1.8c0,0.8-0.3,1.4-0.8,1.8
		c-0.3,0.2-0.5,0.4-0.8,0.5c-0.3,0.1-0.7,0.1-1.2,0.1H15.8z M16.5,9.6h0.3c0.3,0,0.6,0,0.8-0.1c0.2-0.1,0.4-0.2,0.6-0.4
		c0.4-0.3,0.5-0.8,0.5-1.3c0-0.5-0.2-1-0.5-1.3c-0.3-0.3-0.8-0.4-1.4-0.4h-0.3V9.6z"/>
	<path class="st1" d="M23.2,6.1h-2v1.2h1.9V8h-1.9v1.6h2v0.7h-2.7V5.4h2.7V6.1z"/>
	<path class="st1" d="M26.9,6.2l-0.6,0.4c-0.1-0.2-0.2-0.3-0.3-0.4C25.9,6.1,25.8,6,25.6,6c-0.2,0-0.4,0.1-0.5,0.2
		c-0.1,0.1-0.2,0.3-0.2,0.4c0,0.2,0.2,0.4,0.5,0.6l0.5,0.2c0.4,0.2,0.7,0.4,0.9,0.6c0.2,0.2,0.3,0.5,0.3,0.9c0,0.5-0.2,0.8-0.5,1.1
		c-0.3,0.3-0.7,0.4-1.1,0.4c-0.4,0-0.8-0.1-1.1-0.4C24.2,9.8,24,9.4,23.9,9l0.7-0.2c0,0.3,0.1,0.5,0.2,0.6c0.2,0.2,0.4,0.3,0.7,0.3
		c0.2,0,0.4-0.1,0.6-0.2c0.2-0.2,0.2-0.4,0.2-0.6c0-0.1,0-0.2,0-0.3c0-0.1-0.1-0.2-0.1-0.2c-0.1-0.1-0.1-0.1-0.2-0.2
		s-0.2-0.1-0.3-0.2l-0.5-0.2c-0.7-0.3-1-0.7-1-1.2c0-0.4,0.1-0.7,0.4-0.9c0.3-0.2,0.6-0.4,1.1-0.4C26.2,5.3,26.6,5.6,26.9,6.2z"/>
	<path class="st1" d="M31.6,5.7v0.9C31.2,6.2,30.7,6,30.3,6c-0.5,0-0.9,0.2-1.3,0.5c-0.3,0.4-0.5,0.8-0.5,1.3c0,0.5,0.2,0.9,0.5,1.3
		c0.3,0.4,0.8,0.5,1.3,0.5c0.3,0,0.5,0,0.7-0.1c0.1,0,0.2-0.1,0.3-0.2c0.1-0.1,0.2-0.2,0.3-0.3v0.9c-0.4,0.2-0.9,0.4-1.3,0.4
		c-0.7,0-1.3-0.2-1.8-0.7c-0.5-0.5-0.7-1.1-0.7-1.8c0-0.6,0.2-1.2,0.6-1.7c0.5-0.6,1.2-0.9,2-0.9C30.8,5.3,31.2,5.5,31.6,5.7z"/>
	<path class="st1" d="M32.2,7.9c0-0.7,0.3-1.3,0.8-1.8c0.5-0.5,1.1-0.7,1.8-0.7c0.7,0,1.3,0.2,1.8,0.7c0.5,0.5,0.8,1.1,0.8,1.8
		c0,0.7-0.3,1.3-0.8,1.8c-0.5,0.5-1.1,0.7-1.8,0.7c-0.6,0-1.2-0.2-1.7-0.7C32.5,9.3,32.2,8.6,32.2,7.9z M33,7.9c0,0.5,0.2,1,0.5,1.3
		c0.4,0.3,0.8,0.5,1.3,0.5c0.5,0,0.9-0.2,1.3-0.5c0.4-0.4,0.5-0.8,0.5-1.3c0-0.5-0.2-1-0.5-1.3C35.8,6.2,35.3,6,34.8,6
		c-0.5,0-0.9,0.2-1.3,0.5C33.2,6.9,33,7.3,33,7.9z"/>
	<path class="st1" d="M38.3,10.3V5.4H39c0.3,0,0.6,0,0.8,0.1c0.2,0.1,0.4,0.1,0.5,0.3c0.1,0.1,0.2,0.3,0.3,0.5
		c0.1,0.2,0.1,0.4,0.1,0.6c0,0.4-0.1,0.6-0.4,0.9c0.3,0.1,0.5,0.2,0.6,0.5c0.2,0.2,0.2,0.5,0.2,0.8c0,0.4-0.1,0.7-0.4,1
		c-0.2,0.2-0.3,0.3-0.5,0.3c-0.2,0.1-0.5,0.1-0.8,0.1H38.3z M39,7.5h0.2c0.3,0,0.5-0.1,0.6-0.2s0.2-0.3,0.2-0.5
		c0-0.2-0.1-0.4-0.2-0.5c-0.1-0.1-0.3-0.2-0.6-0.2H39V7.5z M39,9.6h0.5c0.3,0,0.6-0.1,0.7-0.2c0.2-0.1,0.2-0.3,0.2-0.5
		c0-0.2-0.1-0.4-0.2-0.5c-0.2-0.1-0.4-0.2-0.8-0.2H39V9.6z"/>
	<path class="st1" d="M43.8,8.2l1.5,2.1h-0.9l-1.4-2h-0.1v2h-0.7V5.4H43c0.6,0,1.1,0.1,1.4,0.4c0.3,0.3,0.5,0.6,0.5,1.1
		c0,0.3-0.1,0.6-0.3,0.9C44.4,8,44.1,8.2,43.8,8.2z M42.9,7.7h0.2c0.7,0,1.1-0.3,1.1-0.8c0-0.5-0.3-0.8-1-0.8h-0.3V7.7z"/>
	<path class="st1" d="M46.8,5.4v4.9h-0.7V5.4H46.8z"/>
	<path class="st1" d="M49.6,8.2l1.5,2.1h-0.9l-1.4-2h-0.1v2H48V5.4h0.9c0.6,0,1.1,0.1,1.4,0.4c0.3,0.3,0.5,0.6,0.5,1.1
		c0,0.3-0.1,0.6-0.3,0.9C50.2,8,50,8.2,49.6,8.2z M48.7,7.7h0.2c0.7,0,1.1-0.3,1.1-0.8c0-0.5-0.3-0.8-1-0.8h-0.3V7.7z"/>
</g>
</svg>
