<svg width="55" height="9" viewBox="0 0 55 9" fill="none" xmlns="http://www.w3.org/2000/svg">
<path d="M2.64645 8.11996C2.08645 8.11996 1.60645 7.93996 1.20645 7.55996C0.806445 7.17996 0.606445 6.69996 0.606445 6.09996V5.89996H1.56645V6.09996C1.56645 6.41996 1.66645 6.66996 1.87645 6.86996C2.08645 7.06996 2.33645 7.15996 2.62645 7.15996C2.91645 7.15996 3.16645 7.05996 3.37645 6.85996C3.57645 6.65996 3.68645 6.40996 3.68645 6.09996C3.68645 5.67996 3.49645 5.35996 3.11645 5.11996L1.72645 4.25996C1.44645 4.08996 1.21645 3.85996 1.05645 3.57996C0.886445 3.29996 0.806445 2.99996 0.806445 2.66996C0.806445 2.17996 0.976445 1.75996 1.32645 1.39996C1.67645 1.04996 2.11645 0.86996 2.63645 0.86996C3.09645 0.86996 3.48645 1.01996 3.82645 1.30996C4.16645 1.60996 4.35645 2.00996 4.40645 2.50996L3.52645 2.71996C3.49645 2.43996 3.39645 2.21996 3.22645 2.05996C3.04645 1.89996 2.84645 1.81996 2.62645 1.81996C2.38645 1.81996 2.18645 1.90996 2.01645 2.06996C1.84645 2.22996 1.76645 2.42996 1.76645 2.64996C1.76645 2.98996 1.93645 3.26996 2.29645 3.47996L3.59645 4.27996C4.29645 4.70996 4.64645 5.31996 4.64645 6.09996C4.64645 6.67996 4.44645 7.16996 4.06645 7.54996C3.68645 7.92996 3.20645 8.11996 2.64645 8.11996Z" fill="white"/>
<path d="M10.355 0.999961H11.315V7.99996H10.355V4.97996H7.05504V7.99996H6.09504V0.999961H7.05504V4.01996H10.355V0.999961Z" fill="white"/>
<path d="M16.2175 8.11996C15.2075 8.11996 14.3475 7.76996 13.6475 7.05996C12.9375 6.35996 12.5875 5.49996 12.5875 4.48996C12.5875 3.48996 12.9375 2.63996 13.6475 1.92996C14.3475 1.22996 15.2075 0.86996 16.2175 0.86996C17.2175 0.86996 18.0675 1.22996 18.7775 1.92996C19.4775 2.63996 19.8375 3.48996 19.8375 4.48996C19.8375 5.49996 19.4775 6.35996 18.7775 7.05996C18.0675 7.76996 17.2175 8.11996 16.2175 8.11996ZM16.2175 7.16996C16.9475 7.16996 17.5775 6.90996 18.0975 6.38996C18.6175 5.86996 18.8875 5.22996 18.8875 4.48996C18.8875 3.75996 18.6175 3.12996 18.0975 2.60996C17.5775 2.08996 16.9475 1.81996 16.2175 1.81996C15.4775 1.81996 14.8375 2.08996 14.3175 2.60996C13.7975 3.12996 13.5375 3.75996 13.5375 4.48996C13.5375 5.22996 13.7975 5.86996 14.3175 6.38996C14.8375 6.90996 15.4775 7.16996 16.2175 7.16996Z" fill="white"/>
<path d="M24.1448 0.999961C24.6848 0.999961 25.1548 1.19996 25.5448 1.59996C25.9248 1.99996 26.1248 2.47996 26.1248 3.02996C26.1248 3.58996 25.9248 4.07996 25.5348 4.47996C25.1448 4.87996 24.6848 5.07996 24.1448 5.07996H22.1648V7.99996H21.2148V0.999961H24.1448ZM24.1448 4.11996C24.4348 4.11996 24.6748 4.01996 24.8748 3.79996C25.0748 3.57996 25.1748 3.32996 25.1748 3.02996C25.1748 2.73996 25.0748 2.48996 24.8748 2.26996C24.6748 2.05996 24.4348 1.94996 24.1448 1.94996H22.1648V4.11996H24.1448Z" fill="white"/>
<path d="M35.4889 0.999961V8.52996L31.1689 3.17996V7.99996H30.2089V0.459961L34.5289 5.82996V0.999961H35.4889Z" fill="white"/>
<path d="M40.5143 8.11996C39.5043 8.11996 38.6443 7.76996 37.9443 7.05996C37.2343 6.35996 36.8843 5.49996 36.8843 4.48996C36.8843 3.48996 37.2343 2.63996 37.9443 1.92996C38.6443 1.22996 39.5043 0.86996 40.5143 0.86996C41.5143 0.86996 42.3643 1.22996 43.0743 1.92996C43.7743 2.63996 44.1343 3.48996 44.1343 4.48996C44.1343 5.49996 43.7743 6.35996 43.0743 7.05996C42.3643 7.76996 41.5143 8.11996 40.5143 8.11996ZM40.5143 7.16996C41.2443 7.16996 41.8743 6.90996 42.3943 6.38996C42.9143 5.86996 43.1843 5.22996 43.1843 4.48996C43.1843 3.75996 42.9143 3.12996 42.3943 2.60996C41.8743 2.08996 41.2443 1.81996 40.5143 1.81996C39.7743 1.81996 39.1343 2.08996 38.6143 2.60996C38.0943 3.12996 37.8343 3.75996 37.8343 4.48996C37.8343 5.22996 38.0943 5.86996 38.6143 6.38996C39.1343 6.90996 39.7743 7.16996 40.5143 7.16996Z" fill="white"/>
<path d="M54.4848 0.999961L51.1848 8.40996L49.4048 4.38996L47.5948 8.41996L44.3248 0.999961H45.3648L47.6148 6.11996L49.4048 2.05996L51.1948 6.11996L53.4448 0.999961H54.4848Z" fill="white"/>
</svg>
