<svg width="229" height="80" viewBox="0 0 229 80" fill="none" xmlns="http://www.w3.org/2000/svg">
<path fill-rule="evenodd" clip-rule="evenodd" d="M22.2741 66.395C24.4803 66.395 27.0907 67.59 27.0907 69.95V77.9783C27.0907 78.5617 27.1785 79.3267 27.9619 79.3267C28.6294 79.3267 29.0352 78.7433 29.4692 78.1017L29.7905 78.345C29.2389 79.3567 28.4836 80 27.2364 80C25.8733 80 24.8861 79.1733 24.6824 78.1H24.6244C23.6389 79.48 22.3321 80 20.4174 80C18.1549 80 16.7901 78.805 16.7901 76.72C16.7901 73.29 21.113 72.43 24.1027 72.43H24.6542V68.6633C24.6542 67.2217 23.3789 66.885 22.2741 66.885C21.4327 66.885 19.46 67.2217 19.46 68.325C19.46 69.0617 20.4174 68.7233 20.4174 70.1017C20.4174 70.8367 19.8377 71.39 19.0824 71.39C18.2708 71.39 17.807 70.7167 17.807 69.6733C17.807 68.11 19.3739 66.395 22.2741 66.395ZM56.5002 66.395C58.1068 66.395 59.2099 67.4667 59.5081 67.4667C59.687 67.4667 59.7168 67.2533 59.7168 66.8233V66.5783H60.1325L60.2518 70.225H59.8658C59.6571 68.4783 58.7627 66.885 56.4108 66.885C54.8919 66.885 53.6712 67.7417 53.6712 69.335C53.6712 70.93 54.8306 71.4817 56.7983 71.605L57.8087 71.665C60.2219 71.8183 61.2041 73.1667 61.2041 75.2817C61.2041 78.1317 59.359 80 57.0667 80C54.7147 80 53.9975 78.6833 53.4029 78.6833C53.0153 78.6833 53.1048 79.1733 53.0451 79.8167H52.5979L52.5383 75.19H52.9259C53.1644 76.7517 53.9379 79.51 57.0667 79.51C58.7031 79.51 59.9553 78.4067 59.9553 76.66C59.9553 74.24 58.1665 74.21 56.5896 74.025C54.6518 73.8083 52.7768 73.5333 52.7768 70.3483C52.7768 68.1417 54.1764 66.395 56.5002 66.395ZM8.15404 58.775C12.4174 58.775 15.7068 60.275 15.7068 64.505C15.7068 68.645 11.9023 70.2317 8.44058 70.2317C7.46832 70.2317 6.32381 70.0267 5.75072 69.7333V78.985H8.66915V79.455H0V78.985H2.8323V59.2467H0V58.775H8.15404ZM48.0646 66.69V78.9817H50.3718V79.455H43.3325V78.9817H45.6398V67.8133H43.3292V67.34H45.6381C46.5623 67.34 47.4865 67.2817 48.0646 66.69ZM40.1905 66.395C41.3433 66.395 42.2476 67.12 42.2476 68.1783C42.2476 68.965 41.7491 69.5983 40.8149 69.5983C39.7863 69.5983 39.4435 69.085 39.4435 68.2683C39.4435 67.6033 39.7863 67.15 40.1292 66.9683C40.0033 66.8783 39.8476 66.8783 39.6919 66.8783C38.4149 66.8783 36.1093 68.8433 36.1093 72.7733V78.9733H38.9449V79.4567H30.8737V78.9733H33.4907V67.5433H30.8737V67.06H33.4907C34.4878 67.06 35.4849 67 36.1077 66.3933V69.9617H36.1706C36.5449 68.6017 37.6348 66.395 40.1905 66.395ZM24.6542 72.9217H24.1607C22.0422 72.9217 19.4021 72.9833 19.4021 76.2617C19.4021 77.9783 19.6638 79.265 21.5205 79.265C23.6969 79.265 24.6542 77.5483 24.6542 76.9367V72.9217ZM7.49482 59.2467H5.75238V69.145C6.18302 69.4383 7.01118 69.7617 7.95528 69.7617C9.84348 69.7617 12.6195 68.735 12.6195 64.7683C12.6195 60.92 10.9019 59.2467 7.49814 59.2467H7.49482ZM46.8522 59.8633C47.6605 59.8633 48.323 60.5433 48.323 61.37C48.323 62.1983 47.6605 62.8783 46.8522 62.8783C46.0439 62.8783 45.3797 62.1983 45.3797 61.37C45.3797 60.5433 46.0422 59.8633 46.8522 59.8633ZM186.064 37.3V54.2167C186.064 55.36 185.903 56.5717 184.765 57.35C183.337 58.33 180.909 58.2283 180.909 58.2283L180.908 57.8717C180.908 57.8717 182.277 57.91 182.971 57.1233C183.684 56.315 183.641 54.5767 183.634 54.3733V38.4233H180.914V37.95H183.632C184.56 37.95 185.484 37.8917 186.064 37.3ZM204.267 37.55C206.47 37.55 209.083 38.7467 209.083 41.1067V49.135C209.083 49.7183 209.169 50.4817 209.953 50.4817C210.62 50.4817 211.026 49.9 211.462 49.2567L211.781 49.5017C211.23 50.5133 210.475 51.1567 209.227 51.1567C207.864 51.1567 206.877 50.33 206.673 49.2567H206.615C205.63 50.6367 204.323 51.1567 202.408 51.1567C200.144 51.1567 198.781 49.9617 198.781 47.8783C198.781 44.445 203.104 43.5883 206.094 43.5883H206.645V39.8167C206.645 38.3767 205.37 38.04 204.265 38.04C203.424 38.04 201.449 38.3767 201.449 39.48C201.449 40.2167 202.408 39.8783 202.408 41.2567C202.408 41.9933 201.829 42.545 201.073 42.545C200.262 42.545 199.798 41.87 199.798 40.8283C199.798 39.265 201.366 37.55 204.267 37.55ZM67.73 37.55C69.8253 37.55 72.0414 38.5 72.0414 40.4C72.0414 41.32 71.3524 41.9333 70.6037 41.9333C69.6762 41.9333 69.1677 41.2583 69.1677 40.6167C69.1677 39.39 69.9164 39.45 69.9164 38.9917C69.9164 38.3167 68.5383 38.0417 67.6704 38.0417C64.7669 38.0417 64.0778 39.9717 64.0778 42.8833V45.55C64.0778 48.215 64.1988 50.6667 67.5511 50.6667C70.5739 50.6667 71.8907 48.3367 72.101 46.4683H72.5797C72.4903 48.7967 70.5143 51.1567 67.5511 51.1567C63.6903 51.1567 61.2058 48.3367 61.2058 44.875C61.2058 40.86 64.1988 37.5517 67.7317 37.5517L67.73 37.55ZM35.2745 37.55C37.4791 37.55 40.0911 38.7467 40.0911 41.1067V49.135C40.0911 49.7183 40.1772 50.4817 40.9607 50.4817C41.6282 50.4817 42.0356 49.9 42.4696 49.2567L42.7892 49.5017C42.2377 50.5133 41.4841 51.1567 40.2352 51.1567C38.8721 51.1567 37.8849 50.33 37.6828 49.2567H37.6248C36.6377 50.6367 35.3325 51.1567 33.4178 51.1567C31.1536 51.1567 29.7905 49.9617 29.7905 47.8783C29.7905 44.445 34.1135 43.5883 37.1031 43.5883H37.653V39.8167C37.653 38.3767 36.3776 38.04 35.2745 38.04C34.4331 38.04 32.4588 38.3767 32.4588 39.48C32.4588 40.2167 33.4178 39.8783 33.4178 41.2567C33.4178 41.9933 32.8381 42.545 32.0828 42.545C31.2712 42.545 30.8058 41.87 30.8058 40.8283C30.8058 39.265 32.3727 37.55 35.2745 37.55ZM133.085 37.55V50.3H135.41V50.7883H130.645V48H130.587C130.325 48.705 129.105 51.1567 126.519 51.1567C123.614 51.1567 122.567 49.5317 122.567 47.7567V38.715H120.243V38.225H122.567C123.498 38.225 124.427 38.165 125.009 37.5517V48.5217C125.009 49.8383 125.704 50.6667 126.809 50.6667C128.843 50.6667 130.645 48.245 130.645 45.9783V38.715H128.349V38.225H130.645C131.573 38.225 132.504 38.1633 133.085 37.55ZM87.0791 37.55C88.7884 37.55 89.9578 38.625 90.2758 38.625C90.4646 38.625 90.4961 38.4083 90.4961 37.98V37.735H90.94L91.0658 41.3817H90.6551C90.4331 39.635 89.4841 38.0417 86.9847 38.0417C85.3698 38.0417 84.0729 38.9 84.0729 40.4917C84.0729 42.0867 85.3068 42.6383 87.3954 42.7617L88.4721 42.8217C91.0344 42.975 92.0778 44.3233 92.0778 46.4383C92.0778 49.2883 90.1168 51.155 87.6803 51.155C85.1793 51.155 84.4207 49.8383 83.788 49.8383C83.3772 49.8383 83.4733 50.33 83.4087 50.9717H82.935L82.8704 46.345H83.2812C83.5346 47.9083 84.3578 50.6667 87.6803 50.6667C89.4195 50.6667 90.7495 49.5633 90.7495 47.8167C90.7495 45.395 88.8513 45.365 87.1735 45.1817C85.118 44.9667 83.1238 44.6917 83.1238 41.5033C83.1238 39.2983 84.6112 37.55 87.0791 37.55ZM222.168 37.55C225.34 37.55 226.229 39.1833 226.229 40.9667V50.1283H228.571V50.6117H221.4V50.1283H223.74V40.2417C223.74 38.58 222.94 38.035 221.991 38.035C219.501 38.035 218.228 40.575 217.694 41.6017V50.1283H219.947V50.6117H212.865V50.1283H215.205V38.7H212.865V38.2167H215.205C216.628 38.2167 217.161 38.2167 217.694 37.55V40.635H217.754C218.524 39.185 220.007 37.5517 222.17 37.5517L222.168 37.55ZM109.963 29.39V29.8733H106.981V39.7617L112.56 34.2733C113.476 33.37 115.718 31.1083 115.718 30.505C115.718 30.1133 115.453 29.8717 114.509 29.8717H112.855V29.3883H120.59V29.8717H119.586C117.843 29.8717 116.308 31.38 115.395 32.255L109.578 37.9517L118.108 49.0767C118.672 49.77 118.877 50.1317 119.704 50.1317H121.327V50.615H112.176V50.1317H114.922L107.366 40.1533L106.983 40.4533V50.1317H109.964V50.615H101.285V50.1317H103.972V29.87H101.287V29.3867H109.963V29.39ZM16.9093 29.39L17.3317 34.515H16.8182C16.6973 30.9867 14.6981 29.8717 11.3689 29.8717H5.84182V39.58H8.46874C11.6174 39.58 12.2783 37.68 12.2783 35.72H12.7619V43.74H12.2783C12.2783 41.4483 11.6174 40.0617 8.43892 40.0617H5.84182V50.1317H9.04513V50.615H0V50.1317H2.75445V29.87H0V29.3867H16.9093V29.39ZM26.1085 37.5533C27.2613 37.5533 28.1656 38.2783 28.1656 39.3367C28.1656 40.1233 27.6671 40.7567 26.7313 40.7567C25.7043 40.7567 25.3598 40.2433 25.3598 39.4267C25.3598 38.7617 25.7027 38.31 26.0455 38.1267C25.9213 38.0367 25.7656 38.0367 25.6099 38.0367C24.3313 38.0367 22.0257 40.0017 22.0257 43.9317V50.1317H24.8613V50.615H16.7901V50.1317H19.407V38.7H16.7901V38.2167H19.407C20.4058 38.2167 21.4029 38.1567 22.0257 37.55V41.1183H22.0886C22.4629 39.7583 23.5528 37.5533 26.1085 37.5533ZM177.698 28.3017V49.7783H179.824V50.2567H175.109V48.0767H175.046C174.584 49.0917 173.135 50.6133 171.01 50.6133C167.155 50.6133 164.658 47.4783 164.658 43.9833C164.658 41.0567 167.092 37.3517 170.793 37.3517C173.012 37.3517 174.493 38.995 175.046 40.3983H175.109V29.525H172.643V29.0483H175.109C176.094 29.0483 177.08 28.9883 177.698 28.3017ZM146.352 37.55C147.505 37.55 148.409 38.2767 148.409 39.3333C148.409 40.1217 147.911 40.755 146.975 40.755C145.948 40.755 145.605 40.2417 145.605 39.425C145.605 38.76 145.946 38.3083 146.289 38.125C146.165 38.035 146.007 38.035 145.853 38.035C144.575 38.035 142.269 40 142.269 43.93V50.13H145.106V50.6133H137.035V50.13H139.652V38.7H137.035V38.2167H139.652C140.649 38.2167 141.646 38.1567 142.269 37.55V41.1183H142.332C142.706 39.7583 143.796 37.55 146.352 37.55ZM53.1793 37.55C56.3495 37.55 57.2389 39.1833 57.2389 40.9667V50.1283H59.581V50.6117H52.4091V50.1283H54.7495V40.2417C54.7495 38.58 53.9495 38.035 53.0004 38.035C50.511 38.035 49.2373 40.575 48.7039 41.6017V50.1283H50.9565V50.6117H43.8725V50.1283H46.2145V38.7H43.8725V38.2167H46.2145C47.6373 38.2167 48.1689 38.2167 48.7039 37.55V40.635H48.7619C49.5337 39.185 51.0145 37.55 53.1793 37.55ZM206.645 44.0783H206.152C204.033 44.0783 201.393 44.14 201.393 47.4183C201.393 49.135 201.655 50.42 203.511 50.42C205.688 50.42 206.645 48.705 206.645 48.0933V44.0783ZM37.653 44.0783H37.1611C35.041 44.0783 32.4008 44.14 32.4008 47.4183C32.4008 49.135 32.6625 50.42 34.5209 50.42C36.6957 50.42 37.653 48.705 37.653 48.0933V44.0783ZM170.793 37.8283C168.08 37.8283 167.617 39.8883 167.617 43.9817C167.617 48.4317 167.988 50.135 171.01 50.135C173.105 50.135 175.139 48.4317 175.109 45.9517V42.4583C175.109 40.2767 173.352 37.8283 170.793 37.8283ZM78.9366 37.3017V49.595H81.2455V50.0683H74.2046V49.595H76.5135V38.425H74.2029V37.9517H76.5118C77.4344 37.9517 78.3603 37.8933 78.9366 37.3017ZM153.189 28.3V44.7967L157.883 40.235C158.529 39.6133 158.91 39.08 158.91 38.8733C158.91 38.5467 158.499 38.3983 157.59 38.3983H156.593V37.925H162.783V38.3983H161.756C160.759 38.3983 160.29 38.6367 159.291 39.5833L156.036 42.6933L160.641 48.4683C161.287 49.2683 161.521 49.595 162.079 49.595H163.574V50.0683H156.212V49.595H158.324L154.216 44.47L153.189 45.4483V49.595H155.243V50.0683H148.409V49.595H150.725V29.5133H148.406V29.04H150.725C151.664 29.04 152.601 28.98 153.189 28.3ZM194.306 37.3017V49.595H196.614V50.0683H189.574V49.595H191.882V38.425H189.574V37.9517H191.882C192.807 37.9517 193.729 37.8933 194.306 37.3017ZM193.095 30.4767C193.901 30.4767 194.566 31.155 194.566 31.9833C194.566 32.81 193.903 33.49 193.095 33.49C192.287 33.49 191.622 32.81 191.622 31.9833C191.622 31.155 192.287 30.4767 193.095 30.4767ZM77.7259 30.4767C78.5342 30.4767 79.1967 31.155 79.1967 31.9833C79.1967 32.81 78.5342 33.49 77.7259 33.49C76.9176 33.49 76.2534 32.81 76.2534 31.9833C76.2534 31.155 76.9176 30.4767 77.7259 30.4767ZM184.848 30.4767C185.658 30.4767 186.322 31.155 186.322 31.9833C186.322 32.81 185.658 33.49 184.848 33.49C184.038 33.49 183.374 32.81 183.374 31.9833C183.374 31.155 184.038 30.4767 184.848 30.4767ZM31.4832 7.61667C33.6878 7.61667 36.2998 8.81333 36.2998 11.1717V19.2C36.2998 19.7833 36.3859 20.55 37.1694 20.55C37.8369 20.55 38.2426 19.9667 38.6783 19.3233L38.9979 19.5683C38.4464 20.58 37.6928 21.2233 36.4439 21.2233C35.0807 21.2233 34.0936 20.3967 33.8915 19.3233H33.8335C32.8464 20.7033 31.5412 21.2233 29.6265 21.2233C27.3623 21.2233 25.9992 20.0283 25.9992 17.945C25.9992 14.5117 30.3222 13.655 33.3101 13.655H33.8617V9.88667C33.8617 8.44667 32.5863 8.11 31.4832 8.11C30.6418 8.11 28.6675 8.44667 28.6675 9.55C28.6675 10.285 29.6265 9.94833 29.6265 11.3267C29.6265 12.0617 29.0468 12.615 28.2915 12.615C27.4799 12.615 27.0145 11.94 27.0145 10.8983C27.0145 9.335 28.5814 7.61667 31.4832 7.61667ZM53.7921 7.61667C55.3988 7.61667 56.5019 8.69 56.8 8.69C56.9789 8.69 57.0087 8.47667 57.0087 8.04667V7.80167H57.4261L57.5437 11.4483H57.1578C56.9491 9.70167 56.0547 8.10833 53.7027 8.10833C52.1839 8.10833 50.9631 8.965 50.9631 10.5583C50.9631 12.1533 52.1226 12.7033 54.0903 12.8267L55.1006 12.8883C57.5139 13.0417 58.4961 14.3883 58.4961 16.505C58.4961 19.355 56.6509 21.2217 54.3569 21.2217C52.005 21.2217 51.2911 19.905 50.6948 19.905C50.3072 19.905 50.3967 20.3967 50.3371 21.0383H49.8899L49.8302 16.4117H50.2178C50.4563 17.975 51.2298 20.7333 54.3586 20.7333C55.995 20.7333 57.2472 19.63 57.2472 17.8833C57.2472 15.4617 55.4584 15.4317 53.8816 15.2483C51.9437 15.0317 50.0687 14.7567 50.0687 11.57C50.0687 9.365 51.4683 7.61667 53.7921 7.61667ZM67.1636 7.61667C71.1188 7.61667 73.6629 10.8967 73.6629 14.42C73.6629 17.9433 71.1188 21.2233 67.1636 21.2233C63.2083 21.2233 60.6642 17.9433 60.6642 14.42C60.6642 10.8967 63.2083 7.61667 67.1636 7.61667ZM67.1636 8.10833C63.8393 8.10833 63.619 10.4033 63.6075 12.9683V15.6167C63.6075 18.2817 63.7284 20.7333 67.1636 20.7333C70.5971 20.7333 70.7197 18.2817 70.7197 15.6167V13.2267C70.7197 10.56 70.5971 8.11 67.1636 8.11V8.10833ZM5.6265 0L11.7482 15.6283L17.7524 0H23.2911V0.47H20.7255V20.21H23.2911V20.68H15.0128V20.21H17.7524V1.585H17.6944L10.5805 20.21H10.3188L3.08903 1.93833H3.03106V17.7717C3.03106 19.7117 3.29441 20.21 4.83975 20.21H6.0058V20.68H0V20.21H0.758592C2.30228 20.21 2.56398 19.71 2.56398 17.7717V0.47H0V0H5.6265ZM44.8149 7.91667V20.2083H47.1222V20.68H40.0828V20.2083H42.3901V9.04H40.0812V8.56667H42.3901C43.3126 8.56667 44.2369 8.50833 44.8149 7.91667ZM84.2733 7.61833C87.3342 7.61833 88.1921 9.25167 88.1921 11.035V20.1967H90.453V20.68H83.5296V20.1967H85.7888V10.31C85.7888 8.64667 85.017 8.10333 84.0994 8.10333C81.6977 8.10333 80.4671 10.6417 79.952 11.67V20.1967H82.1267V20.68H75.2878V20.1967H77.5487V8.76833H75.2878V8.285H77.5487C78.9234 8.285 79.4369 8.285 79.952 7.61833V10.7017H80.0083C80.7536 9.25167 82.183 7.61833 84.2733 7.61833ZM33.8617 14.1467H33.3681C31.2513 14.1467 28.6095 14.2083 28.6095 17.4867C28.6095 19.2033 28.8712 20.4883 30.7296 20.4883C32.9043 20.4883 33.8617 18.7733 33.8617 18.1617V14.1467ZM43.6008 1.08833C44.4091 1.08833 45.075 1.76833 45.075 2.595C45.075 3.42167 44.4091 4.10333 43.6008 4.10333C42.7942 4.10333 42.13 3.42167 42.13 2.595C42.13 1.76833 42.7925 1.08833 43.6025 1.08833H43.6008Z" fill="#646F79"/>
</svg>
