<svg width="65" height="9" viewBox="0 0 65 9" fill="none" xmlns="http://www.w3.org/2000/svg">
<path d="M0.0339966 7.99998V0.431985H4.676L4.522 1.26798H1.002V3.45698H4.126V4.29298H1.002V7.16398H4.676L4.83 7.99998H0.0339966Z" fill="#53545C"/>
<path d="M6.80372 7.99998V0.431985H8.03572L10.9837 5.40398C11.2147 5.79998 11.7097 6.67999 11.7097 6.67999H11.7317C11.7317 6.67999 11.7097 5.99798 11.7097 5.40398V0.431985H12.6337V7.99998H11.4897L8.45372 2.89598C8.22272 2.49998 7.72772 1.61998 7.72772 1.61998H7.70572C7.70572 1.61998 7.72772 2.30198 7.72772 2.89598V7.99998H6.80372Z" fill="#53545C"/>
<path d="M16.6132 7.99998V1.26798H14.2922V0.431985H19.9792L19.8252 1.26798H17.5812V7.99998H16.6132Z" fill="#53545C"/>
<path d="M21.5678 7.99998V0.431985H24.0978C26.4078 0.431985 27.6728 1.90598 27.6728 4.21598C27.6728 6.52599 26.4078 7.99998 24.0978 7.99998H21.5678ZM22.5358 7.18598H23.9218C25.7038 7.18598 26.6718 6.17398 26.6718 4.21598C26.6718 2.25798 25.7038 1.24598 23.9218 1.24598H22.5358V7.18598Z" fill="#53545C"/>
<path d="M29.777 7.99998V0.431985H34.419L34.265 1.26798H30.745V3.45698H33.869V4.29298H30.745V7.16398H34.419L34.573 7.99998H29.777Z" fill="#53545C"/>
<path d="M39.2747 8.15399C37.2507 8.15399 36.0297 6.54799 36.0297 4.21598C36.0297 1.88398 37.2947 0.277985 39.3187 0.277985C41.3427 0.277985 42.0247 1.88398 42.1127 2.36798L41.2547 2.71998C41.1557 2.18098 40.6827 1.11398 39.2967 1.11398C37.9107 1.11398 37.0307 2.32398 37.0307 4.21598C37.0307 6.10798 37.9107 7.29598 39.2967 7.29598C40.6827 7.29598 41.1887 6.28398 41.3317 5.65698L42.1897 6.00898C42.0467 6.63598 41.2987 8.15399 39.2747 8.15399Z" fill="#53545C"/>
<path d="M44.2617 7.99998V0.431985H45.2297V4.13898H45.2517L48.7277 0.431985H49.8717L47.1437 3.31398L50.0477 7.99998H48.9037L46.4727 4.00698L45.2297 5.31598V7.99998H44.2617Z" fill="#53545C"/>
<path d="M51.6975 7.99998V0.431985H56.3395L56.1855 1.26798H52.6655V3.45698H55.7895V4.29298H52.6655V7.16398H56.3395L56.4935 7.99998H51.6975Z" fill="#53545C"/>
<path d="M58.4672 7.99998V0.431985H59.6992L62.6472 5.40398C62.8782 5.79998 63.3732 6.67999 63.3732 6.67999H63.3952C63.3952 6.67999 63.3732 5.99798 63.3732 5.40398V0.431985H64.2972V7.99998H63.1532L60.1172 2.89598C59.8862 2.49998 59.3912 1.61998 59.3912 1.61998H59.3692C59.3692 1.61998 59.3912 2.30198 59.3912 2.89598V7.99998H58.4672Z" fill="#53545C"/>
</svg>
