<?xml version="1.0" encoding="UTF-8"?>
<svg id="cta-txt" xmlns="http://www.w3.org/2000/svg" version="1.1" viewBox="0 0 53.5 6.4">
  <!-- Generator: Adobe Illustrator 29.1.0, SVG Export Plug-In . SVG Version: 2.1.0 Build 142)  -->
  <defs>
    <style>
      .st0 {
        fill: #fff;
      }
    </style>
  </defs>
  <path class="st0" d="M2.8,6.4c-.5,0-1-.1-1.4-.4-.4-.2-.8-.6-1-1.1-.3-.5-.4-1.1-.4-1.8s.1-1.3.4-1.8c.3-.5.6-.8,1-1.1.4-.2.9-.4,1.4-.4s1.1.2,1.6.5c.4.3.7.8.9,1.3l-.7.2c-.1-.4-.3-.7-.6-1-.3-.2-.6-.3-1.1-.3s-.7,0-1,.3c-.3.2-.5.5-.7.8-.2.4-.3.8-.3,1.4s0,1,.3,1.4c.2.4.4.7.7.8.3.2.7.3,1,.3s.8-.1,1.1-.3c.3-.2.5-.5.6-1l.7.2c-.2.6-.5,1-.9,1.3-.4.3-.9.5-1.6.5ZM9,6.4c-.5,0-1-.1-1.4-.4-.4-.3-.8-.6-1-1.1-.3-.5-.4-1.1-.4-1.7s.1-1.2.4-1.7c.3-.5.6-.9,1-1.1.4-.3.9-.4,1.4-.4s1,.1,1.4.4c.4.3.8.6,1,1.1.3.5.4,1.1.4,1.7s-.1,1.2-.4,1.7c-.3.5-.6.9-1,1.1-.4.3-.9.4-1.4.4ZM9,5.7c.4,0,.7,0,1-.3.3-.2.5-.5.7-.8.2-.4.3-.8.3-1.4s0-1-.3-1.4c-.2-.4-.4-.7-.7-.8-.3-.2-.6-.3-1-.3s-.7,0-1,.3c-.3.2-.5.5-.7.8-.2.4-.3.8-.3,1.4s0,1,.3,1.4c.2.4.4.6.7.8.3.2.6.3,1,.3ZM13,0h.9l1.7,4.5L17.4,0h.9v6.3h-.8V1.6l-1.6,4.1h-.5l-1.6-4.1v4.7h-.8V0ZM19.9,0h.9l1.7,4.5L24.3,0h.9v6.3h-.8V1.6l-1.6,4.1h-.5l-1.6-4.1v4.7h-.8V0ZM28.3,0h.7l2.2,6.3h-.8l-.6-1.7h-2.4l-.6,1.7h-.8L28.3,0ZM29.6,3.9l-1-2.8-1,2.8h1.9ZM32.1,0h.9l2.8,4.9V0h.8v6.3h-.9l-2.8-4.9v4.9h-.8V0ZM38.2,0h1.7c.5,0,1,.1,1.5.4.4.2.8.6,1,1.1.3.5.4,1,.4,1.7s-.1,1.2-.4,1.7c-.3.5-.6.8-1,1.1-.4.2-.9.4-1.5.4h-1.7V0ZM39.8,5.6c.4,0,.8,0,1.1-.2.3-.2.6-.4.8-.8.2-.4.3-.8.3-1.4s-.1-1-.3-1.4c-.2-.4-.5-.6-.8-.8-.3-.2-.7-.3-1.1-.3h-.9v4.8h.9ZM44,0h3.6v.7h-2.9v1.8h2.3v.7h-2.3v2.3h3v.7h-3.7V0ZM49,0h2.1c.6,0,1,.1,1.3.4.3.3.5.7.5,1.2s-.1.8-.3,1.1c-.2.3-.5.4-1,.5l1.9,3h-.9l-1.9-3h-1v3h-.8V0ZM51.1,2.6c.4,0,.6,0,.8-.2.2-.1.3-.4.3-.7,0-.6-.4-.9-1.1-.9h-1.3v1.8h1.3Z"/>
</svg>