<?xml version="1.0" encoding="UTF-8"?>
<svg id="Calque_1" xmlns="http://www.w3.org/2000/svg" version="1.1" viewBox="0 0 50.7 7">
  <!-- Generator: Adobe Illustrator 29.1.0, SVG Export Plug-In . SVG Version: 2.1.0 Build 142)  -->
  <defs>
    <style>
      .st0 {
        fill: #fff;
      }
    </style>
  </defs>
  <path class="st0" d="M11.1.7c-.6.9-1.7,2-2.9,2.7,0-.1-.2-.3-.3-.4,1.2-.7,2.4-1.9,3-2.8h.5c.7,1.1,2,2.2,3.1,2.8-.1.1-.3.3-.4.5-1.1-.7-2.4-1.8-3-2.7ZM9.5,2.5h3.1v.5h-3.1v-.5ZM8.6,3.9h4.3v.5h-4.3v-.5ZM12.8,3.9h.2s.4,0,.4,0c-.3.8-.9,1.9-1.3,2.8h-.6c.5-1,1-2.2,1.3-2.9h0ZM19.1.6c0,0,0,.4,0,.4,0,.5,0,1.8,0,2.4l-.5-.3c0-.3,0-1.7,0-2.1,0-.2,0-.4,0-.5h.7ZM15.3,1.6c1,0,2.8,0,3.8,0s1.8,0,2.1,0v.5c-.4,0-1,0-2.1,0s-2.8,0-3.8.1v-.5ZM19.1,3.6c0,1-.4,1.4-1.1,1.4s-1.2-.4-1.2-1.2.6-1.2,1.3-1.2,1.2.6,1.2,1.4-.5,2-2.1,2.5l-.5-.5c1.3-.3,2.1-.9,2.1-2.1s-.3-.9-.7-.9-.7.3-.7.8.3.7.7.7.7-.4.6-1.1l.4.2ZM26.3,2.2c.2.3.5.8.6,1l-.4.2c-.1-.3-.4-.8-.6-1.1l.4-.2ZM27.2,1.8c.2.2.5.7.6,1l-.4.2c-.2-.3-.4-.8-.6-1l.4-.2ZM26.7.9c-.1.1-.4.3-.5.4-.5.4-1.5,1.2-2,1.7-.4.4-.4.5,0,.9.6.5,1.9,1.5,2.7,2.3l-.5.5c-.1-.2-.3-.3-.5-.5-.5-.5-1.6-1.4-2.3-2-.7-.6-.6-.9,0-1.4.5-.4,1.6-1.3,2.1-1.8.1-.1.3-.3.4-.5l.5.5ZM31.8.8h3.8v.4h-3.8v-.4ZM31.7,2.5h4.1v.4h-4.1v-.4ZM31.6,5.2h4.1v.4h-4.1v-.4ZM32,1.7h3.5v.4h-3.5v-.4ZM32.7.2h.5v2.5h-.5V.2ZM34.2.2h.5v2.5h-.5V.2ZM33.4,2.7h.5v2.6h-.5v-2.6ZM34.8,3.4h.5v2.9c0,.3,0,.4-.2.5-.2,0-.5,0-1,0,0-.1,0-.3-.1-.4.4,0,.7,0,.8,0,0,0,.1,0,.1-.1v-2.9ZM32.1,3.4h3v.4h-2.5v3h-.5v-3.4ZM32.3,4.3h2.7v.4h-2.7v-.4ZM29.9,5.1h.5c-.2.7-.5,1.3-.8,1.7,0,0-.3-.2-.4-.3.3-.3.6-.8.7-1.4ZM30.8,5.3l.4-.2c.2.3.5.8.6,1.1l-.4.2c-.1-.3-.3-.8-.6-1.1ZM30,2.3v.9h1.1v-.9h-1.1ZM30,3.6v.9h1.1v-.9h-1.1ZM30,.9v.9h1.1v-.9h-1.1ZM29.5.5h2v4.5h-2V.5ZM37.7.6h2v.5h-2v-.5ZM39.4.6h.5c0,1.3.2,4,3,5.7-.1,0-.3.3-.4.4-2.9-1.7-3.1-4.8-3.1-6.1ZM39.2,2h.6c-.5,2.3-1.5,3.8-3,4.7,0-.1-.3-.3-.5-.4,1.6-.8,2.5-2.3,2.9-4.3Z"/>
</svg>