<svg xmlns="http://www.w3.org/2000/svg" viewBox="0 0 66.93 15.75"><defs><style>.cls-1,.cls-2{isolation:isolate;}.cls-2{mix-blend-mode:multiply;}.cls-3{fill-rule:evenodd;}.cls-4{fill:#fff;}</style></defs><g class="cls-1"><g id="Rectangle_2" data-name="Rectangle 2" class="cls-2"><g id="Rectangle_2-2" data-name="Rectangle 2"><path class="cls-3" d="M62.2,3.15H10.63A7.68,7.68,0,0,0,3,10.83v.39a7.68,7.68,0,0,0,7.68,7.68H62.2a7.68,7.68,0,0,0,7.68-7.68v-.39A7.68,7.68,0,0,0,62.2,3.15Z" transform="translate(-2.95 -3.15)"/></g></g><g id="Découvrir"><path class="cls-4" d="M21.52,8.92H19.71V10h1.76v.64H19.71v1.51h1.81v.64H19V8.28h2.49Zm.9,3.88V8l3.3,3.45V8.28h.68v4.79L23.1,9.63V12.8Zm6.31-3.88V12.8h-.68V8.92H27V8.28h2.76v.64Zm1.65,3.88V8.28h.95a3.53,3.53,0,0,1,1.08.13,2.08,2.08,0,0,1,.77.45,2.2,2.2,0,0,1,.7,1.68,2.18,2.18,0,0,1-.73,1.69,2.15,2.15,0,0,1-.77.44,3.27,3.27,0,0,1-1.06.13Zm.68-.64h.31a2.33,2.33,0,0,0,.76-.1,1.66,1.66,0,0,0,.56-2.73,1.91,1.91,0,0,0-1.32-.41h-.31Zm6.17-3.24H35.42V10h1.76v.64H35.42v1.51h1.81v.64H34.74V8.28h2.49Zm4.24-.4v.81a1.88,1.88,0,0,0-1.22-.5,1.58,1.58,0,0,0-1.18.5,1.71,1.71,0,0,0-.48,1.22,1.63,1.63,0,0,0,.48,1.2,1.69,1.69,0,0,0,1.79.38,2.09,2.09,0,0,0,.29-.16l.32-.24v.82a2.47,2.47,0,0,1-1.23.33,2.34,2.34,0,0,1-2.34-2.32,2.36,2.36,0,0,1,3.57-2Zm1.67,1.56,1.76-1.8h.91l-2,2,2,2.48h-.91l-1.63-2-.14.14V12.8h-.68V8.28h.68Zm5.79-1.16H47.12V10h1.76v.64H47.12v1.51h1.81v.64h-2.5V8.28h2.5Zm.9,3.88V8l3.3,3.45V8.28h.68v4.79l-3.3-3.44V12.8Z" transform="translate(-2.95 -3.15)"/></g></g></svg>