<svg width="52" height="9" viewBox="0 0 52 9" fill="none" xmlns="http://www.w3.org/2000/svg">
<path d="M0.774414 7.99952V1.99652H1.99841C2.60141 1.99652 3.45641 2.05952 4.21241 2.69852C4.76141 3.15752 5.23841 3.92252 5.23841 5.00252C5.23841 6.26252 4.61741 6.93752 4.18541 7.30652C3.63641 7.77452 3.06041 7.99952 1.98941 7.99952H0.774414ZM1.44041 2.62652V7.36952H2.02541C2.50241 7.36952 3.15941 7.31552 3.74441 6.82952C4.19441 6.45152 4.55441 5.85752 4.55441 5.00252C4.55441 3.56252 3.54641 2.62652 2.02541 2.62652H1.44041Z" fill="#2E2E2E"/>
<path d="M10.4749 1.99652V2.62652H8.02694V4.40852H10.4029V5.03852H8.02694V7.36952H10.4749V7.99952H7.36094V1.99652H10.4749ZM9.57494 0.0615234L10.2049 0.466524L8.82794 1.51952L8.44094 1.23152L9.57494 0.0615234Z" fill="#2E2E2E"/>
<path d="M17.1927 2.49152V3.31952C17.0037 3.13052 16.7157 2.90552 16.4097 2.76152C16.0947 2.61752 15.7257 2.52752 15.3747 2.52752C13.9887 2.52752 12.9627 3.64352 12.9627 5.02952C12.9627 6.65852 14.2857 7.47752 15.3837 7.47752C15.7887 7.47752 16.1847 7.36052 16.4997 7.19852C16.8417 7.02752 17.0847 6.80252 17.1927 6.69452V7.52252C16.5267 7.99952 15.8337 8.10752 15.3837 8.10752C13.6017 8.10752 12.2787 6.75752 12.2787 5.02052C12.2787 3.22952 13.6197 1.89752 15.4197 1.89752C15.7797 1.89752 16.4727 1.94252 17.1927 2.49152Z" fill="#2E2E2E"/>
<path d="M22.1201 8.10752C20.3831 8.10752 18.9971 6.78452 18.9971 5.00252C18.9971 3.21152 20.3921 1.89752 22.1201 1.89752C23.8481 1.89752 25.2431 3.21152 25.2431 5.00252C25.2431 6.78452 23.8571 8.10752 22.1201 8.10752ZM22.1201 2.52752C20.7701 2.52752 19.6811 3.62552 19.6811 5.00252C19.6811 6.37952 20.7701 7.47752 22.1201 7.47752C23.4701 7.47752 24.5591 6.37952 24.5591 5.00252C24.5591 3.62552 23.4701 2.52752 22.1201 2.52752Z" fill="#2E2E2E"/>
<path d="M28.0326 1.99652V5.67752C28.0326 6.18152 28.0326 6.73052 28.5096 7.13552C28.7526 7.34252 29.1666 7.47752 29.4996 7.47752C29.8326 7.47752 30.2466 7.34252 30.4896 7.13552C30.9666 6.73052 30.9666 6.18152 30.9666 5.67752V1.99652H31.6326V5.85752C31.6326 6.36152 31.5786 6.84752 31.2546 7.29752C30.8946 7.79252 30.2646 8.10752 29.4996 8.10752C28.7346 8.10752 28.1046 7.79252 27.7446 7.29752C27.4206 6.84752 27.3666 6.36152 27.3666 5.85752V1.99652H28.0326Z" fill="#2E2E2E"/>
<path d="M33.383 1.99652H34.121L35.813 6.57752L37.505 1.99652H38.243L35.813 8.35952L33.383 1.99652Z" fill="#2E2E2E"/>
<path d="M39.9859 1.99652H40.9489C41.3539 1.99652 41.9569 2.02352 42.4069 2.32952C42.7579 2.56352 43.0639 3.02252 43.0639 3.66152C43.0639 4.57952 42.4609 5.25452 41.5519 5.31752L43.4599 7.99952H42.6499L40.8229 5.37152H40.6519V7.99952H39.9859V1.99652ZM40.6519 2.62652V4.77752H41.0749C41.9029 4.77752 42.3979 4.38152 42.3979 3.67952C42.3979 3.34652 42.2989 3.01352 41.9209 2.79752C41.6509 2.64452 41.3449 2.62652 41.0569 2.62652H40.6519Z" fill="#2E2E2E"/>
<path d="M45.4035 1.99652H46.0695V7.99952H45.4035V1.99652Z" fill="#2E2E2E"/>
<path d="M48.5184 1.99652H49.4814C49.8864 1.99652 50.4894 2.02352 50.9394 2.32952C51.2904 2.56352 51.5964 3.02252 51.5964 3.66152C51.5964 4.57952 50.9934 5.25452 50.0844 5.31752L51.9924 7.99952H51.1824L49.3554 5.37152H49.1844V7.99952H48.5184V1.99652ZM49.1844 2.62652V4.77752H49.6074C50.4354 4.77752 50.9304 4.38152 50.9304 3.67952C50.9304 3.34652 50.8314 3.01352 50.4534 2.79752C50.1834 2.64452 49.8774 2.62652 49.5894 2.62652H49.1844Z" fill="#2E2E2E"/>
</svg>
