<svg width="66" height="11" viewBox="0 0 66 11" fill="none" xmlns="http://www.w3.org/2000/svg">
<path d="M0.0339966 10V2.43201H2.564C4.874 2.43201 6.139 3.90601 6.139 6.21601C6.139 8.52601 4.874 10 2.564 10H0.0339966ZM1.002 9.18601H2.388C4.17 9.18601 5.138 8.17401 5.138 6.21601C5.138 4.25801 4.17 3.24601 2.388 3.24601H1.002V9.18601Z" fill="#53545C"/>
<path d="M10.0912 1.61801L10.8392 0.144012H11.8512L10.7842 1.61801H10.0912ZM8.24318 10V2.43201H12.8852L12.7312 3.26801H9.21118V5.45701H12.3352V6.29301H9.21118V9.16401H12.8852L13.0392 10H8.24318Z" fill="#53545C"/>
<path d="M17.7409 10.154C15.7169 10.154 14.4959 8.54801 14.4959 6.21601C14.4959 3.88401 15.7609 2.27801 17.7849 2.27801C19.8089 2.27801 20.4909 3.88401 20.5789 4.36801L19.7209 4.72001C19.6219 4.18101 19.1489 3.11401 17.7629 3.11401C16.3769 3.11401 15.4969 4.32401 15.4969 6.21601C15.4969 8.10801 16.3769 9.29601 17.7629 9.29601C19.1489 9.29601 19.6549 8.28401 19.7979 7.65701L20.6559 8.00901C20.5129 8.63601 19.7649 10.154 17.7409 10.154Z" fill="#53545C"/>
<path d="M25.5659 10.154C23.3879 10.154 22.2109 8.39401 22.2109 6.21601C22.2109 4.03801 23.3879 2.27801 25.5659 2.27801C27.7439 2.27801 28.9209 4.03801 28.9209 6.21601C28.9209 8.39401 27.7439 10.154 25.5659 10.154ZM25.5659 9.34001C27.1939 9.34001 27.9199 7.86601 27.9199 6.21601C27.9199 4.56601 27.1939 3.09201 25.5659 3.09201C23.9379 3.09201 23.2119 4.56601 23.2119 6.21601C23.2119 7.86601 23.9379 9.34001 25.5659 9.34001Z" fill="#53545C"/>
<path d="M33.9051 10.154C32.0571 10.154 31.0011 9.14201 31.0011 7.27201V2.43201H31.9691V7.20601C31.9691 8.52601 32.5851 9.27401 33.9051 9.27401C35.2251 9.27401 35.8411 8.52601 35.8411 7.20601V2.43201H36.8091V7.27201C36.8091 9.14201 35.7531 10.154 33.9051 10.154Z" fill="#53545C"/>
<path d="M41.0761 10L38.5021 2.43201H39.5361L41.4061 8.15201C41.5161 8.50401 41.6811 9.07601 41.6811 9.07601H41.7031C41.7031 9.07601 41.8681 8.50401 41.9781 8.15201L43.8481 2.43201H44.8381L42.2641 10H41.0761Z" fill="#53545C"/>
<path d="M46.5498 10V2.43201H49.3548C50.8948 2.43201 51.8958 3.12501 51.8958 4.45601C51.8958 5.78701 50.9058 6.28201 50.1138 6.41401L52.3358 10H51.1918L49.0578 6.48001H47.5178V10H46.5498ZM47.5178 5.66601H49.3438C50.2458 5.66601 50.9058 5.35801 50.9058 4.45601C50.9058 3.54301 50.2458 3.24601 49.3438 3.24601H47.5178V5.66601Z" fill="#53545C"/>
<path d="M54.3186 10V2.43201H58.9606L58.8066 3.26801H55.2866V5.45701H58.4106V6.29301H55.2866V9.16401H58.9606L59.1146 10H54.3186Z" fill="#53545C"/>
<path d="M60.4613 10V9.21901L64.1683 3.90601C64.3663 3.62001 64.6303 3.26801 64.6303 3.26801V3.24601C64.6303 3.24601 64.0583 3.26801 63.5523 3.26801H60.6263V2.43201H65.7633V3.21301L62.0563 8.52601C61.8583 8.81201 61.5943 9.16401 61.5943 9.16401V9.18601C61.5943 9.18601 62.1663 9.16401 62.6723 9.16401H65.9283V10H60.4613Z" fill="#53545C"/>
</svg>
